<svg width="65" height="65" viewBox="0 0 80 80" fill="none" xmlns="http://www.w3.org/2000/svg">
<path fill-rule="evenodd" clip-rule="evenodd" d="M42.7655 34.703C42.7655 38.0077 40.0612 40.656 36.6867 40.656C33.3134 40.656 30.6079 38.0077 30.6079 34.703C30.6079 31.3983 33.3134 28.75 36.6867 28.75C40.0612 28.75 42.7655 31.3983 42.7655 34.703ZM27.5 47.3967C27.5 44.3376 31.7319 43.5722 36.6867 43.5722C41.6683 43.5722 45.8733 44.3639 45.8733 47.4255C45.8733 50.4846 41.6414 51.25 36.6867 51.25C31.705 51.25 27.5 50.4583 27.5 47.3967ZM45.2168 34.8109C45.2168 36.4938 44.7006 38.0641 43.7955 39.3685C43.7014 39.5027 43.7845 39.6835 43.9484 39.7123C44.1759 39.7494 44.4095 39.7722 44.648 39.777C47.0208 39.8381 49.1502 38.342 49.7386 36.089C50.6106 32.7459 48.0519 29.7443 44.7924 29.7443C44.4389 29.7443 44.1001 29.7802 43.7698 29.8461C43.7246 29.8557 43.6757 29.8772 43.6512 29.9156C43.6194 29.9647 43.6426 30.0282 43.6744 30.0701C44.6541 31.4152 45.2168 33.0526 45.2168 34.8109ZM49.1466 42.1279C50.7415 42.4333 51.7897 43.055 52.2239 43.9617C52.592 44.7043 52.592 45.5667 52.2239 46.3094C51.5598 47.7132 49.4169 48.1647 48.584 48.2809C48.4115 48.3049 48.2733 48.1611 48.2916 47.9911C48.7173 44.1006 45.333 42.256 44.4572 41.832C44.4205 41.8117 44.412 41.7829 44.4157 41.7637C44.4181 41.7518 44.434 41.7326 44.4621 41.729C46.3567 41.6931 48.3944 41.9482 49.1466 42.1279Z" fill="#13CAE6"/>
<circle opacity="0.1" cx="40" cy="40" r="40" fill="#13CAE6"/>
</svg>
