<svg width="26" height="24" viewBox="0 0 26 24" fill="none" xmlns="http://www.w3.org/2000/svg">
<path fill-rule="evenodd" clip-rule="evenodd" d="M15.7655 6.70301C15.7655 10.0077 13.0612 12.656 9.68667 12.656C6.31338 12.656 3.60789 10.0077 3.60789 6.70301C3.60789 3.39831 6.31338 0.75 9.68667 0.75C13.0612 0.75 15.7655 3.39831 15.7655 6.70301ZM0.5 19.3967C0.5 16.3376 4.73191 15.5722 9.68667 15.5722C14.6683 15.5722 18.8733 16.3639 18.8733 19.4255C18.8733 22.4846 14.6414 23.25 9.68667 23.25C4.705 23.25 0.5 22.4583 0.5 19.3967ZM18.2168 6.81094C18.2168 8.49383 17.7006 10.0641 16.7955 11.3685C16.7014 11.5027 16.7845 11.6835 16.9484 11.7123C17.1759 11.7494 17.4095 11.7722 17.648 11.777C20.0208 11.8381 22.1502 10.342 22.7386 8.08898C23.6106 4.74595 21.0519 1.74429 17.7924 1.74429C17.4389 1.74429 17.1001 1.78022 16.7698 1.8461C16.7246 1.85568 16.6757 1.87724 16.6512 1.91557C16.6194 1.96468 16.6426 2.02816 16.6744 2.07009C17.6541 3.41521 18.2168 5.05258 18.2168 6.81094ZM22.1466 14.1279C23.7415 14.4333 24.7897 15.055 25.2239 15.9617C25.592 16.7043 25.592 17.5667 25.2239 18.3094C24.5598 19.7132 22.4169 20.1647 21.584 20.2809C21.4115 20.3049 21.2733 20.1611 21.2916 19.9911C21.7173 16.1006 18.333 14.256 17.4572 13.832C17.4205 13.8117 17.412 13.7829 17.4157 13.7637C17.4181 13.7518 17.434 13.7326 17.4621 13.729C19.3567 13.6931 21.3944 13.9482 22.1466 14.1279Z" fill="#13CAE6"/>
</svg>
