<svg width="217" height="55" viewBox="0 0 217 78" fill="none" xmlns="http://www.w3.org/2000/svg">
<rect width="217" height="78" rx="18" fill="#12152E"/>
<path d="M59.4137 40.2498C59.3926 36.6533 61.0221 33.9428 64.3127 31.9441C62.4723 29.3074 59.6879 27.8572 56.0176 27.5777C52.5424 27.3035 48.7402 29.6027 47.348 29.6027C45.8768 29.6027 42.5123 27.6727 39.865 27.6727C34.4018 27.757 28.5957 32.0285 28.5957 40.7191C28.5957 43.2873 29.065 45.9398 30.0037 48.6715C31.2588 52.268 35.7834 61.0799 40.5031 60.9375C42.9711 60.8795 44.7166 59.1867 47.9281 59.1867C51.0447 59.1867 52.6584 60.9375 55.4111 60.9375C60.173 60.8689 64.2652 52.8586 65.457 49.2516C59.0709 46.2404 59.4137 40.4344 59.4137 40.2498ZM53.8713 24.1658C56.5449 20.9912 56.3023 18.1014 56.2232 17.0625C53.8607 17.1996 51.1291 18.6709 49.5734 20.4797C47.8596 22.4203 46.8523 24.8197 47.0686 27.525C49.6209 27.7201 51.9518 26.407 53.8713 24.1658Z" fill="white"/>
<path d="M87.868 28.14H84.22L83.548 30H82.396L85.42 21.684H86.68L89.692 30H88.54L87.868 28.14ZM87.556 27.252L86.044 23.028L84.532 27.252H87.556ZM94.4579 28.992L96.4979 23.424H97.6619L95.0819 30H93.8099L91.2299 23.424H92.4059L94.4579 28.992ZM99.3285 26.688C99.3285 26.016 99.4645 25.428 99.7365 24.924C100.009 24.412 100.381 24.016 100.853 23.736C101.333 23.456 101.865 23.316 102.449 23.316C103.025 23.316 103.525 23.44 103.949 23.688C104.373 23.936 104.689 24.248 104.897 24.624V23.424H106.001V30H104.897V28.776C104.681 29.16 104.357 29.48 103.925 29.736C103.501 29.984 103.005 30.108 102.437 30.108C101.853 30.108 101.325 29.964 100.853 29.676C100.381 29.388 100.009 28.984 99.7365 28.464C99.4645 27.944 99.3285 27.352 99.3285 26.688ZM104.897 26.7C104.897 26.204 104.797 25.772 104.597 25.404C104.397 25.036 104.125 24.756 103.781 24.564C103.445 24.364 103.073 24.264 102.665 24.264C102.257 24.264 101.885 24.36 101.549 24.552C101.213 24.744 100.945 25.024 100.745 25.392C100.545 25.76 100.445 26.192 100.445 26.688C100.445 27.192 100.545 27.632 100.745 28.008C100.945 28.376 101.213 28.66 101.549 28.86C101.885 29.052 102.257 29.148 102.665 29.148C103.073 29.148 103.445 29.052 103.781 28.86C104.125 28.66 104.397 28.376 104.597 28.008C104.797 27.632 104.897 27.196 104.897 26.7ZM109.938 21.12V30H108.846V21.12H109.938ZM113.363 22.356C113.155 22.356 112.979 22.284 112.835 22.14C112.691 21.996 112.619 21.82 112.619 21.612C112.619 21.404 112.691 21.228 112.835 21.084C112.979 20.94 113.155 20.868 113.363 20.868C113.563 20.868 113.731 20.94 113.867 21.084C114.011 21.228 114.083 21.404 114.083 21.612C114.083 21.82 114.011 21.996 113.867 22.14C113.731 22.284 113.563 22.356 113.363 22.356ZM113.891 23.424V30H112.799V23.424H113.891ZM116.344 26.688C116.344 26.016 116.48 25.428 116.752 24.924C117.024 24.412 117.396 24.016 117.868 23.736C118.348 23.456 118.88 23.316 119.464 23.316C120.04 23.316 120.54 23.44 120.964 23.688C121.388 23.936 121.704 24.248 121.912 24.624V23.424H123.016V30H121.912V28.776C121.696 29.16 121.372 29.48 120.94 29.736C120.516 29.984 120.02 30.108 119.452 30.108C118.868 30.108 118.34 29.964 117.868 29.676C117.396 29.388 117.024 28.984 116.752 28.464C116.48 27.944 116.344 27.352 116.344 26.688ZM121.912 26.7C121.912 26.204 121.812 25.772 121.612 25.404C121.412 25.036 121.14 24.756 120.796 24.564C120.46 24.364 120.088 24.264 119.68 24.264C119.272 24.264 118.9 24.36 118.564 24.552C118.228 24.744 117.96 25.024 117.76 25.392C117.56 25.76 117.46 26.192 117.46 26.688C117.46 27.192 117.56 27.632 117.76 28.008C117.96 28.376 118.228 28.66 118.564 28.86C118.9 29.052 119.272 29.148 119.68 29.148C120.088 29.148 120.46 29.052 120.796 28.86C121.14 28.66 121.412 28.376 121.612 28.008C121.812 27.632 121.912 27.196 121.912 26.7ZM126.954 24.648C127.178 24.256 127.506 23.936 127.938 23.688C128.37 23.44 128.862 23.316 129.414 23.316C130.006 23.316 130.538 23.456 131.01 23.736C131.482 24.016 131.854 24.412 132.126 24.924C132.398 25.428 132.534 26.016 132.534 26.688C132.534 27.352 132.398 27.944 132.126 28.464C131.854 28.984 131.477 29.388 130.997 29.676C130.526 29.964 129.998 30.108 129.414 30.108C128.846 30.108 128.346 29.984 127.914 29.736C127.49 29.488 127.17 29.172 126.954 28.788V30H125.862V21.12H126.954V24.648ZM131.418 26.688C131.418 26.192 131.318 25.76 131.118 25.392C130.918 25.024 130.646 24.744 130.302 24.552C129.966 24.36 129.594 24.264 129.186 24.264C128.786 24.264 128.414 24.364 128.07 24.564C127.734 24.756 127.462 25.04 127.254 25.416C127.054 25.784 126.954 26.212 126.954 26.7C126.954 27.196 127.054 27.632 127.254 28.008C127.462 28.376 127.734 28.66 128.07 28.86C128.414 29.052 128.786 29.148 129.186 29.148C129.594 29.148 129.966 29.052 130.302 28.86C130.646 28.66 130.918 28.376 131.118 28.008C131.318 27.632 131.418 27.192 131.418 26.688ZM136.063 21.12V30H134.971V21.12H136.063ZM144.924 26.46C144.924 26.668 144.912 26.888 144.888 27.12H139.632C139.672 27.768 139.892 28.276 140.292 28.644C140.7 29.004 141.192 29.184 141.768 29.184C142.24 29.184 142.632 29.076 142.944 28.86C143.264 28.636 143.488 28.34 143.616 27.972H144.792C144.616 28.604 144.264 29.12 143.736 29.52C143.208 29.912 142.552 30.108 141.768 30.108C141.144 30.108 140.584 29.968 140.088 29.688C139.6 29.408 139.216 29.012 138.936 28.5C138.656 27.98 138.516 27.38 138.516 26.7C138.516 26.02 138.652 25.424 138.924 24.912C139.196 24.4 139.576 24.008 140.064 23.736C140.56 23.456 141.128 23.316 141.768 23.316C142.392 23.316 142.944 23.452 143.424 23.724C143.904 23.996 144.272 24.372 144.528 24.852C144.792 25.324 144.924 25.86 144.924 26.46ZM143.796 26.232C143.796 25.816 143.704 25.46 143.52 25.164C143.336 24.86 143.084 24.632 142.764 24.48C142.452 24.32 142.104 24.24 141.72 24.24C141.168 24.24 140.696 24.416 140.304 24.768C139.92 25.12 139.7 25.608 139.644 26.232H143.796ZM154.433 30.108C153.817 30.108 153.257 29.968 152.753 29.688C152.257 29.408 151.865 29.012 151.577 28.5C151.297 27.98 151.157 27.38 151.157 26.7C151.157 26.028 151.301 25.436 151.589 24.924C151.885 24.404 152.285 24.008 152.789 23.736C153.293 23.456 153.857 23.316 154.481 23.316C155.105 23.316 155.669 23.456 156.173 23.736C156.677 24.008 157.073 24.4 157.361 24.912C157.657 25.424 157.805 26.02 157.805 26.7C157.805 27.38 157.653 27.98 157.349 28.5C157.053 29.012 156.649 29.408 156.137 29.688C155.625 29.968 155.057 30.108 154.433 30.108ZM154.433 29.148C154.825 29.148 155.193 29.056 155.537 28.872C155.881 28.688 156.157 28.412 156.365 28.044C156.581 27.676 156.689 27.228 156.689 26.7C156.689 26.172 156.585 25.724 156.377 25.356C156.169 24.988 155.897 24.716 155.561 24.54C155.225 24.356 154.861 24.264 154.469 24.264C154.069 24.264 153.701 24.356 153.365 24.54C153.037 24.716 152.773 24.988 152.573 25.356C152.373 25.724 152.273 26.172 152.273 26.7C152.273 27.236 152.369 27.688 152.561 28.056C152.761 28.424 153.025 28.7 153.353 28.884C153.681 29.06 154.041 29.148 154.433 29.148ZM163.444 23.304C164.244 23.304 164.892 23.548 165.388 24.036C165.884 24.516 166.132 25.212 166.132 26.124V30H165.052V26.28C165.052 25.624 164.888 25.124 164.56 24.78C164.232 24.428 163.784 24.252 163.216 24.252C162.64 24.252 162.18 24.432 161.836 24.792C161.5 25.152 161.332 25.676 161.332 26.364V30H160.24V23.424H161.332V24.36C161.548 24.024 161.84 23.764 162.208 23.58C162.584 23.396 162.996 23.304 163.444 23.304Z" fill="white"/>
<path d="M91.94 52.34H86.38L85.46 55H82.52L87.54 41.02H90.8L95.82 55H92.86L91.94 52.34ZM91.18 50.1L89.16 44.26L87.14 50.1H91.18ZM101.496 45.52C101.856 45.0133 102.35 44.5933 102.976 44.26C103.616 43.9133 104.343 43.74 105.156 43.74C106.103 43.74 106.956 43.9733 107.716 44.44C108.49 44.9067 109.096 45.5733 109.536 46.44C109.99 47.2933 110.216 48.2867 110.216 49.42C110.216 50.5533 109.99 51.56 109.536 52.44C109.096 53.3067 108.49 53.98 107.716 54.46C106.956 54.94 106.103 55.18 105.156 55.18C104.343 55.18 103.623 55.0133 102.996 54.68C102.383 54.3467 101.883 53.9267 101.496 53.42V60.28H98.6964V43.92H101.496V45.52ZM107.356 49.42C107.356 48.7533 107.216 48.18 106.936 47.7C106.67 47.2067 106.31 46.8333 105.856 46.58C105.416 46.3267 104.936 46.2 104.416 46.2C103.91 46.2 103.43 46.3333 102.976 46.6C102.536 46.8533 102.176 47.2267 101.896 47.72C101.63 48.2133 101.496 48.7933 101.496 49.46C101.496 50.1267 101.63 50.7067 101.896 51.2C102.176 51.6933 102.536 52.0733 102.976 52.34C103.43 52.5933 103.91 52.72 104.416 52.72C104.936 52.72 105.416 52.5867 105.856 52.32C106.31 52.0533 106.67 51.6733 106.936 51.18C107.216 50.6867 107.356 50.1 107.356 49.42ZM116.051 45.52C116.411 45.0133 116.904 44.5933 117.531 44.26C118.171 43.9133 118.898 43.74 119.711 43.74C120.658 43.74 121.511 43.9733 122.271 44.44C123.044 44.9067 123.651 45.5733 124.091 46.44C124.544 47.2933 124.771 48.2867 124.771 49.42C124.771 50.5533 124.544 51.56 124.091 52.44C123.651 53.3067 123.044 53.98 122.271 54.46C121.511 54.94 120.658 55.18 119.711 55.18C118.898 55.18 118.178 55.0133 117.551 54.68C116.938 54.3467 116.438 53.9267 116.051 53.42V60.28H113.251V43.92H116.051V45.52ZM121.911 49.42C121.911 48.7533 121.771 48.18 121.491 47.7C121.224 47.2067 120.864 46.8333 120.411 46.58C119.971 46.3267 119.491 46.2 118.971 46.2C118.464 46.2 117.984 46.3333 117.531 46.6C117.091 46.8533 116.731 47.2267 116.451 47.72C116.184 48.2133 116.051 48.7933 116.051 49.46C116.051 50.1267 116.184 50.7067 116.451 51.2C116.731 51.6933 117.091 52.0733 117.531 52.34C117.984 52.5933 118.464 52.72 118.971 52.72C119.491 52.72 119.971 52.5867 120.411 52.32C120.864 52.0533 121.224 51.6733 121.491 51.18C121.771 50.6867 121.911 50.1 121.911 49.42ZM138.391 55.14C137.418 55.14 136.538 54.9733 135.751 54.64C134.978 54.3067 134.365 53.8267 133.911 53.2C133.458 52.5733 133.225 51.8333 133.211 50.98H136.211C136.251 51.5533 136.451 52.0067 136.811 52.34C137.185 52.6733 137.691 52.84 138.331 52.84C138.985 52.84 139.498 52.6867 139.871 52.38C140.245 52.06 140.431 51.6467 140.431 51.14C140.431 50.7267 140.305 50.3867 140.051 50.12C139.798 49.8533 139.478 49.6467 139.091 49.5C138.718 49.34 138.198 49.1667 137.531 48.98C136.625 48.7133 135.885 48.4533 135.311 48.2C134.751 47.9333 134.265 47.54 133.851 47.02C133.451 46.4867 133.251 45.78 133.251 44.9C133.251 44.0733 133.458 43.3533 133.871 42.74C134.285 42.1267 134.865 41.66 135.611 41.34C136.358 41.0067 137.211 40.84 138.171 40.84C139.611 40.84 140.778 41.1933 141.671 41.9C142.578 42.5933 143.078 43.5667 143.171 44.82H140.091C140.065 44.34 139.858 43.9467 139.471 43.64C139.098 43.32 138.598 43.16 137.971 43.16C137.425 43.16 136.985 43.3 136.651 43.58C136.331 43.86 136.171 44.2667 136.171 44.8C136.171 45.1733 136.291 45.4867 136.531 45.74C136.785 45.98 137.091 46.18 137.451 46.34C137.825 46.4867 138.345 46.66 139.011 46.86C139.918 47.1267 140.658 47.3933 141.231 47.66C141.805 47.9267 142.298 48.3267 142.711 48.86C143.125 49.3933 143.331 50.0933 143.331 50.96C143.331 51.7067 143.138 52.4 142.751 53.04C142.365 53.68 141.798 54.1933 141.051 54.58C140.305 54.9533 139.418 55.14 138.391 55.14ZM150.019 46.22V51.58C150.019 51.9533 150.106 52.2267 150.279 52.4C150.466 52.56 150.772 52.64 151.199 52.64H152.499V55H150.739C148.379 55 147.199 53.8533 147.199 51.56V46.22H145.879V43.92H147.199V41.18H150.019V43.92H152.499V46.22H150.019ZM160.433 55.18C159.366 55.18 158.406 54.9467 157.553 54.48C156.699 54 156.026 53.3267 155.533 52.46C155.053 51.5933 154.813 50.5933 154.813 49.46C154.813 48.3267 155.059 47.3267 155.553 46.46C156.059 45.5933 156.746 44.9267 157.613 44.46C158.479 43.98 159.446 43.74 160.513 43.74C161.579 43.74 162.546 43.98 163.413 44.46C164.279 44.9267 164.959 45.5933 165.453 46.46C165.959 47.3267 166.213 48.3267 166.213 49.46C166.213 50.5933 165.953 51.5933 165.433 52.46C164.926 53.3267 164.233 54 163.353 54.48C162.486 54.9467 161.513 55.18 160.433 55.18ZM160.433 52.74C160.939 52.74 161.413 52.62 161.853 52.38C162.306 52.1267 162.666 51.7533 162.933 51.26C163.199 50.7667 163.333 50.1667 163.333 49.46C163.333 48.4067 163.053 47.6 162.493 47.04C161.946 46.4667 161.273 46.18 160.473 46.18C159.673 46.18 158.999 46.4667 158.453 47.04C157.919 47.6 157.653 48.4067 157.653 49.46C157.653 50.5133 157.913 51.3267 158.433 51.9C158.966 52.46 159.633 52.74 160.433 52.74ZM172.067 45.64C172.427 45.0533 172.893 44.5933 173.467 44.26C174.053 43.9267 174.72 43.76 175.467 43.76V46.7H174.727C173.847 46.7 173.18 46.9067 172.727 47.32C172.287 47.7333 172.067 48.4533 172.067 49.48V55H169.267V43.92H172.067V45.64ZM188.653 49.22C188.653 49.62 188.626 49.98 188.573 50.3H180.473C180.539 51.1 180.819 51.7267 181.313 52.18C181.806 52.6333 182.413 52.86 183.133 52.86C184.173 52.86 184.913 52.4133 185.353 51.52H188.373C188.053 52.5867 187.439 53.4667 186.533 54.16C185.626 54.84 184.513 55.18 183.193 55.18C182.126 55.18 181.166 54.9467 180.313 54.48C179.473 54 178.813 53.3267 178.333 52.46C177.866 51.5933 177.633 50.5933 177.633 49.46C177.633 48.3133 177.866 47.3067 178.333 46.44C178.799 45.5733 179.453 44.9067 180.293 44.44C181.133 43.9733 182.099 43.74 183.193 43.74C184.246 43.74 185.186 43.9667 186.013 44.42C186.853 44.8733 187.499 45.52 187.953 46.36C188.419 47.1867 188.653 48.14 188.653 49.22ZM185.753 48.42C185.739 47.7 185.479 47.1267 184.973 46.7C184.466 46.26 183.846 46.04 183.113 46.04C182.419 46.04 181.833 46.2533 181.353 46.68C180.886 47.0933 180.599 47.6733 180.493 48.42H185.753Z" fill="white"/>
</svg>
