<svg width="65" height="65" viewBox="0 0 80 80" fill="none" xmlns="http://www.w3.org/2000/svg">
<path d="M38.115 47.7179C38.0183 47.6238 37.605 47.2682 37.265 46.937C35.1267 44.9951 31.6267 39.9293 30.5583 37.2779C30.3867 36.8753 30.0233 35.8572 30 35.3133C30 34.7921 30.12 34.2953 30.3633 33.8212C30.7033 33.2302 31.2383 32.7561 31.87 32.4963C32.3083 32.3291 33.62 32.0693 33.6433 32.0693C35.0783 31.8095 37.41 31.6666 39.9867 31.6666C42.4417 31.6666 44.6783 31.8095 46.135 32.0222C46.1583 32.0466 47.7883 32.3063 48.3467 32.5905C49.3667 33.1117 50 34.1297 50 35.2192V35.3133C49.975 36.0229 49.3417 37.515 49.3183 37.515C48.2483 40.0235 44.92 44.9724 42.7083 46.9613C42.7083 46.9613 42.14 47.5215 41.785 47.765C41.275 48.145 40.6433 48.3333 40.0117 48.3333C39.3067 48.3333 38.65 48.1206 38.115 47.7179Z" fill="#13CAE6"/>
<circle opacity="0.1" cx="40" cy="40" r="40" fill="#13CAE6"/>
</svg>
