<svg width="20" height="18" viewBox="0 0 20 18" fill="none" xmlns="http://www.w3.org/2000/svg">
<path d="M8.115 16.7179C8.01833 16.6238 7.605 16.2682 7.265 15.937C5.12667 13.9951 1.62667 8.92933 0.558333 6.27793C0.386667 5.87526 0.0233333 4.85724 0 4.31332C0 3.79213 0.12 3.2953 0.363333 2.8212C0.703333 2.23019 1.23833 1.75609 1.87 1.49631C2.30833 1.32907 3.62 1.06929 3.64333 1.06929C5.07833 0.809506 7.41 0.666626 9.98667 0.666626C12.4417 0.666626 14.6783 0.809506 16.135 1.0222C16.1583 1.04656 17.7883 1.30634 18.3467 1.59048C19.3667 2.11167 20 3.12969 20 4.21915V4.31332C19.975 5.02285 19.3417 6.51498 19.3183 6.51498C18.2483 9.0235 14.92 13.9724 12.7083 15.9613C12.7083 15.9613 12.14 16.5215 11.785 16.765C11.275 17.145 10.6433 17.3333 10.0117 17.3333C9.30667 17.3333 8.65 17.1206 8.115 16.7179Z" fill="#13CAE6"/>
</svg>
