<svg width="411" height="890" viewBox="0 0 411 890" fill="none" xmlns="http://www.w3.org/2000/svg">
<g clip-path="url(#clip0)">
<rect width="411" height="889.952" rx="38.36" fill="#12152E"/>
<circle cx="41.6481" cy="294.824" r="2.192" fill="#FFAB36"/>
<path fill-rule="evenodd" clip-rule="evenodd" d="M58.0879 835.621C58.0879 830.478 58.6487 830.837 61.6672 828.037C62.9879 826.974 65.0429 824.923 66.8175 824.923C68.5912 824.923 70.6873 826.964 72.0199 828.037C75.0384 830.837 75.5983 830.478 75.5983 835.621C75.5983 843.189 73.8091 843.189 66.8431 843.189C59.8771 843.189 58.0879 843.189 58.0879 835.621Z" fill="white" stroke="white" stroke-width="1.644" stroke-linecap="round" stroke-linejoin="round"/>
<path d="M64.188 837.833H69.499" stroke="#061C41" stroke-width="1.644" stroke-linecap="round" stroke-linejoin="round"/>
<g opacity="0.5">
<path fill-rule="evenodd" clip-rule="evenodd" d="M342.906 842.881C339.534 842.881 336.655 842.356 336.655 840.254C336.655 838.153 339.516 836.213 342.906 836.213C346.278 836.213 349.157 838.134 349.157 840.236C349.157 842.336 346.296 842.881 342.906 842.881Z" fill="white" stroke="white" stroke-width="1.644" stroke-linecap="round" stroke-linejoin="round"/>
<path fill-rule="evenodd" clip-rule="evenodd" d="M342.9 833.301C345.112 833.301 346.906 831.508 346.906 829.295C346.906 827.082 345.112 825.288 342.9 825.288C340.687 825.288 338.893 827.082 338.893 829.295C338.885 831.5 340.666 833.294 342.871 833.301C342.881 833.301 342.891 833.301 342.9 833.301Z" fill="white" stroke="white" stroke-width="1.644" stroke-linecap="round" stroke-linejoin="round"/>
</g>
<g opacity="0.5">
<path d="M167.538 825.454C167.081 824.985 166.405 824.811 165.774 824.995L151.073 829.27C150.408 829.455 149.936 829.985 149.809 830.659C149.679 831.345 150.133 832.216 150.725 832.58L155.322 835.405C155.793 835.695 156.402 835.622 156.792 835.228L162.056 829.932C162.321 829.656 162.759 829.656 163.024 829.932C163.289 830.198 163.289 830.631 163.024 830.906L157.751 836.204C157.36 836.597 157.287 837.208 157.575 837.682L160.384 842.325C160.712 842.877 161.279 843.189 161.9 843.189C161.973 843.189 162.056 843.189 162.129 843.18C162.841 843.088 163.408 842.601 163.618 841.912L167.976 827.229C168.168 826.604 167.995 825.923 167.538 825.454Z" fill="white"/>
</g>
<g filter="url(#filter0_b)">
<rect x="39.4561" y="40.552" width="50.416" height="50.416" rx="15.344" fill="white" fill-opacity="0.1"/>
</g>
<path d="M164.539 72.224C164.297 72.224 164.113 72.1838 163.984 72.1034C163.871 72.007 163.791 71.8462 163.743 71.6212L159.933 56.4065C159.917 56.3583 159.909 56.286 159.909 56.1895C159.909 55.9484 160.062 55.8278 160.367 55.8278H162.32C162.561 55.8278 162.73 55.868 162.827 55.9484C162.923 56.0288 162.987 56.1574 163.019 56.3342L165.431 66.9435L168.324 57.588C168.388 57.3951 168.461 57.2665 168.541 57.2022C168.638 57.1218 168.79 57.0817 168.999 57.0817H170.108C170.317 57.0817 170.462 57.1218 170.542 57.2022C170.639 57.2665 170.719 57.3951 170.784 57.588L173.701 66.9435L176.088 56.3342C176.12 56.1574 176.185 56.0288 176.281 55.9484C176.394 55.868 176.562 55.8278 176.787 55.8278H178.765C179.07 55.8278 179.223 55.9484 179.223 56.1895C179.223 56.286 179.215 56.3583 179.199 56.4065L175.365 71.6212C175.301 71.8462 175.204 72.007 175.075 72.1034C174.963 72.1838 174.794 72.224 174.569 72.224H173.267C173.042 72.224 172.865 72.1838 172.737 72.1034C172.624 72.007 172.536 71.8462 172.471 71.6212L169.554 61.9764L166.66 71.6212C166.596 71.8462 166.5 72.007 166.371 72.1034C166.259 72.1838 166.09 72.224 165.865 72.224H164.539ZM185.567 72.5857C183.992 72.5857 182.738 72.1115 181.806 71.1631C180.873 70.1986 180.407 68.8483 180.407 67.1123C180.407 65.762 180.704 64.5725 181.299 63.5437C181.894 62.4988 182.738 61.6951 183.831 61.1325C184.94 60.5699 186.226 60.2886 187.689 60.2886C189.73 60.2886 191.458 60.7708 192.873 61.7353V71.573C192.873 71.8141 192.817 71.9829 192.704 72.0793C192.608 72.1758 192.431 72.224 192.174 72.224H190.848C190.671 72.224 190.534 72.1918 190.438 72.1276C190.357 72.0472 190.301 71.9266 190.269 71.7659L190.076 70.8255C189.578 71.4363 188.959 71.8864 188.219 72.1758C187.496 72.449 186.612 72.5857 185.567 72.5857ZM186.724 70.3915C187.576 70.3915 188.324 70.1423 188.967 69.644C189.626 69.1457 189.955 68.4866 189.955 67.6668V62.965C189.618 62.7882 189.272 62.6676 188.919 62.6033C188.581 62.5229 188.163 62.4828 187.665 62.4828C186.395 62.4828 185.374 62.8846 184.603 63.6884C183.831 64.4921 183.445 65.6012 183.445 67.0158C183.445 68.1732 183.71 69.0251 184.241 69.5717C184.787 70.1182 185.615 70.3915 186.724 70.3915ZM197.712 72.224C197.391 72.224 197.157 72.1517 197.013 72.007C196.884 71.8623 196.82 71.6453 196.82 71.356V56.72C196.82 56.4146 196.884 56.1895 197.013 56.0448C197.157 55.9002 197.391 55.8278 197.712 55.8278H198.99C199.311 55.8278 199.545 55.9002 199.689 56.0448C199.834 56.1895 199.906 56.4146 199.906 56.72V71.356C199.906 71.6453 199.834 71.8623 199.689 72.007C199.561 72.1517 199.327 72.224 198.99 72.224H197.712ZM204.742 72.224C204.42 72.224 204.187 72.1517 204.043 72.007C203.914 71.8623 203.85 71.6453 203.85 71.356V56.72C203.85 56.4146 203.914 56.1895 204.043 56.0448C204.187 55.9002 204.42 55.8278 204.742 55.8278H206.02C206.341 55.8278 206.574 55.9002 206.719 56.0448C206.864 56.1895 206.936 56.4146 206.936 56.72V71.356C206.936 71.6453 206.864 71.8623 206.719 72.007C206.59 72.1517 206.357 72.224 206.02 72.224H204.742ZM216.932 72.5857C214.842 72.5857 213.226 72.0391 212.085 70.9461C210.96 69.8369 210.397 68.3339 210.397 66.4371C210.397 64.5403 210.96 63.0454 212.085 61.9523C213.226 60.8431 214.842 60.2886 216.932 60.2886C219.021 60.2886 220.637 60.8431 221.778 61.9523C222.919 63.0454 223.49 64.5403 223.49 66.4371C223.49 68.3339 222.919 69.8369 221.778 70.9461C220.637 72.0391 219.021 72.5857 216.932 72.5857ZM216.932 70.3192C218.073 70.3192 218.941 69.9896 219.536 69.3306C220.13 68.6715 220.428 67.707 220.428 66.4371C220.428 65.1833 220.13 64.2349 219.536 63.5919C218.941 62.9328 218.073 62.6033 216.932 62.6033C215.806 62.6033 214.938 62.9328 214.327 63.5919C213.733 64.2349 213.435 65.1833 213.435 66.4371C213.435 67.6909 213.733 68.6554 214.327 69.3306C214.938 69.9896 215.806 70.3192 216.932 70.3192ZM233.196 72.5857C231.942 72.5857 230.809 72.3767 229.797 71.9588C228.784 71.5248 227.972 70.8657 227.361 69.9816C226.766 69.0814 226.469 67.9642 226.469 66.63C226.469 64.5564 227.024 62.9811 228.133 61.9041C229.242 60.8271 230.817 60.2886 232.859 60.2886C234.884 60.2886 236.411 60.811 237.44 61.8558C238.485 62.9007 239.007 64.4117 239.007 66.3889C239.007 66.9515 238.75 67.2328 238.236 67.2328H229.387C229.387 68.2937 229.756 69.1136 230.496 69.6922C231.235 70.2549 232.264 70.5362 233.582 70.5362C234.852 70.5362 235.993 70.2468 237.006 69.6681C237.119 69.6038 237.207 69.5717 237.271 69.5717C237.384 69.5717 237.472 69.644 237.536 69.7887L238.115 70.8255C238.163 70.922 238.187 71.0104 238.187 71.0907C238.187 71.2033 238.115 71.3077 237.97 71.4042C237.311 71.8061 236.596 72.1034 235.825 72.2963C235.069 72.4892 234.193 72.5857 233.196 72.5857ZM236.21 65.4485C236.21 64.4519 235.929 63.6723 235.366 63.1097C234.82 62.547 233.992 62.2657 232.883 62.2657C231.758 62.2657 230.89 62.5551 230.279 63.1338C229.684 63.7125 229.387 64.484 229.387 65.4485H236.21ZM247.787 72.5857C246.42 72.5857 245.392 72.2079 244.7 71.4524C244.009 70.6969 243.664 69.6521 243.664 68.3179V62.9168H242.289C241.968 62.9168 241.751 62.8605 241.638 62.748C241.542 62.6355 241.493 62.4265 241.493 62.1211V61.47C241.493 61.1646 241.542 60.9557 241.638 60.8431C241.751 60.7145 241.968 60.6502 242.289 60.6502H243.664V59.3241C243.664 58.9865 243.72 58.6731 243.832 58.3837C243.961 58.0783 244.154 57.7005 244.411 57.2504C244.507 57.0576 244.596 56.937 244.676 56.8888C244.773 56.8245 244.933 56.7923 245.159 56.7923H245.954C246.244 56.7923 246.444 56.8647 246.557 57.0093C246.686 57.1379 246.75 57.3389 246.75 57.6121V60.6502H249.595C249.917 60.6502 250.126 60.7145 250.222 60.8431C250.335 60.9557 250.391 61.1646 250.391 61.47V62.1211C250.391 62.4265 250.335 62.6355 250.222 62.748C250.126 62.8605 249.917 62.9168 249.595 62.9168H246.75V68.2214C246.75 68.9608 246.879 69.4993 247.136 69.8369C247.393 70.1584 247.835 70.3192 248.462 70.3192C248.832 70.3192 249.145 70.279 249.402 70.1986C249.659 70.1021 249.941 69.9494 250.246 69.7405C250.327 69.6762 250.415 69.644 250.511 69.644C250.608 69.644 250.704 69.7164 250.801 69.861L251.5 71.0184C251.564 71.0988 251.596 71.1872 251.596 71.2836C251.596 71.3962 251.516 71.5087 251.355 71.6212C250.359 72.2642 249.169 72.5857 247.787 72.5857Z" fill="white"/>
<circle cx="66.8561" cy="852.688" r="2.192" fill="white"/>
<path fill-rule="evenodd" clip-rule="evenodd" d="M368.418 62.5414C368.418 63.8032 368.752 64.5469 369.486 65.404C370.042 66.0354 370.219 66.8459 370.219 67.7252C370.219 68.6035 369.931 69.4373 369.353 70.1142C368.596 70.9257 367.529 71.4438 366.439 71.5338C364.861 71.6684 363.281 71.7818 361.68 71.7818C360.079 71.7818 358.5 71.714 356.921 71.5338C355.831 71.4438 354.764 70.9257 354.008 70.1142C353.43 69.4373 353.14 68.6035 353.14 67.7252C353.14 66.8459 353.319 66.0354 353.874 65.404C354.631 64.5469 354.942 63.8032 354.942 62.5414V62.1134C354.942 60.4236 355.364 59.3186 356.231 58.237C357.522 56.6595 359.589 55.7134 361.635 55.7134H361.725C363.815 55.7134 365.95 56.705 367.218 58.3503C368.041 59.4097 368.418 60.4681 368.418 62.1134V62.5414ZM358.74 73.8584C358.74 73.3525 359.204 73.1208 359.634 73.0216C360.136 72.9154 363.196 72.9154 363.698 73.0216C364.128 73.1208 364.592 73.3525 364.592 73.8584C364.567 74.3401 364.285 74.7671 363.894 75.0383C363.388 75.4329 362.794 75.6828 362.173 75.7729C361.829 75.8174 361.492 75.8184 361.16 75.7729C360.538 75.6828 359.944 75.4329 359.439 75.0372C359.047 74.7671 358.765 74.3401 358.74 73.8584Z" fill="white"/>
<circle cx="365.973" cy="59.0926" r="3.288" fill="white" stroke="#FFAB36" stroke-width="2.192"/>
<path d="M55.896 72.336H63.568M55.896 59.184H73.432H55.896ZM55.896 65.76H73.432H55.896Z" stroke="white" stroke-width="2.192" stroke-linecap="round" stroke-linejoin="round"/>
<rect x="39.4561" y="128.232" width="332.088" height="86.584" rx="15.344" fill="#13CAE6"/>
<path opacity="0.8" d="M67.8292 158.768V149.562H71.0646C71.7134 149.562 72.2483 149.667 72.6691 149.877C73.0988 150.079 73.4188 150.359 73.6292 150.719C73.8397 151.07 73.9449 151.464 73.9449 151.903C73.9449 152.499 73.7827 152.968 73.4583 153.31C73.1426 153.652 72.7612 153.889 72.314 154.02C72.656 154.082 72.9673 154.217 73.2478 154.428C73.5284 154.638 73.7476 154.901 73.9054 155.217C74.072 155.533 74.1553 155.879 74.1553 156.256C74.1553 156.721 74.0413 157.146 73.8134 157.532C73.5854 157.909 73.2478 158.211 72.8007 158.439C72.3535 158.658 71.8099 158.768 71.1698 158.768H67.8292ZM68.934 153.586H70.9857C71.5731 153.586 72.0247 153.45 72.3403 153.178C72.656 152.898 72.8138 152.512 72.8138 152.021C72.8138 151.556 72.656 151.184 72.3403 150.903C72.0335 150.623 71.5688 150.482 70.9462 150.482H68.934V153.586ZM68.934 157.847H71.0514C71.6827 157.847 72.1694 157.703 72.5113 157.413C72.8533 157.115 73.0242 156.703 73.0242 156.177C73.0242 155.66 72.8445 155.248 72.485 154.941C72.1255 154.625 71.6389 154.467 71.0251 154.467H68.934V157.847ZM79.0465 158.926C78.424 158.926 77.8716 158.786 77.3893 158.505C76.9071 158.216 76.5257 157.817 76.2451 157.308C75.9733 156.8 75.8374 156.199 75.8374 155.506C75.8374 154.822 75.9733 154.226 76.2451 153.718C76.5169 153.2 76.8939 152.801 77.3762 152.521C77.8672 152.231 78.4327 152.087 79.0728 152.087C79.7041 152.087 80.2477 152.231 80.7036 152.521C81.1683 152.801 81.5235 153.174 81.769 153.639C82.0145 154.103 82.1372 154.603 82.1372 155.138C82.1372 155.235 82.1328 155.331 82.1241 155.427C82.1241 155.524 82.1241 155.633 82.1241 155.756H76.929C76.9553 156.256 77.0693 156.672 77.271 157.006C77.4814 157.33 77.7401 157.576 78.0469 157.742C78.3626 157.909 78.6958 157.992 79.0465 157.992C79.5024 157.992 79.8838 157.887 80.1907 157.676C80.4976 157.466 80.7212 157.181 80.8615 156.822H81.9531C81.7777 157.427 81.4402 157.931 80.9404 158.334C80.4494 158.729 79.8181 158.926 79.0465 158.926ZM79.0465 153.021C78.5204 153.021 78.0513 153.183 77.6392 153.507C77.2359 153.823 77.0035 154.288 76.9422 154.901H81.0456C81.0193 154.314 80.8176 153.854 80.4406 153.52C80.0636 153.187 79.5989 153.021 79.0465 153.021ZM84.0399 158.768V149.299H85.1447V158.768H84.0399ZM89.5639 158.926C89.0203 158.926 88.5687 158.834 88.2093 158.65C87.8498 158.466 87.5823 158.22 87.407 157.913C87.2316 157.606 87.1439 157.273 87.1439 156.914C87.1439 156.247 87.3982 155.734 87.9068 155.375C88.4153 155.015 89.108 154.836 89.9848 154.836H91.7471V154.757C91.7471 154.187 91.5981 153.757 91.3 153.468C91.0019 153.17 90.6029 153.021 90.1031 153.021C89.6735 153.021 89.3009 153.13 88.9852 153.349C88.6783 153.56 88.4854 153.871 88.4065 154.283H87.2755C87.3193 153.81 87.4771 153.411 87.7489 153.086C88.0295 152.762 88.3758 152.516 88.7879 152.35C89.2 152.174 89.6384 152.087 90.1031 152.087C91.015 152.087 91.6989 152.332 92.1549 152.823C92.6196 153.306 92.8519 153.95 92.8519 154.757V158.768H91.8655L91.7998 157.597C91.6156 157.966 91.3438 158.281 90.9843 158.544C90.6336 158.799 90.1601 158.926 89.5639 158.926ZM89.7349 157.992C90.1558 157.992 90.5152 157.882 90.8134 157.663C91.1202 157.444 91.3526 157.159 91.5104 156.808C91.6682 156.458 91.7471 156.089 91.7471 155.704V155.69H90.0768C89.428 155.69 88.9677 155.804 88.6959 156.032C88.4328 156.252 88.3013 156.528 88.3013 156.861C88.3013 157.203 88.4241 157.479 88.6696 157.69C88.9238 157.891 89.279 157.992 89.7349 157.992ZM94.9477 158.768V152.245H95.9472L96.013 153.415C96.2234 153.003 96.5259 152.679 96.9205 152.442C97.315 152.205 97.7622 152.087 98.262 152.087C99.0336 152.087 99.6473 152.324 100.103 152.797C100.568 153.262 100.8 153.981 100.8 154.954V158.768H99.6955V155.072C99.6955 153.713 99.1344 153.034 98.0121 153.034C97.4509 153.034 96.9818 153.24 96.6048 153.652C96.2366 154.055 96.0524 154.634 96.0524 155.388V158.768H94.9477ZM105.911 158.926C105.289 158.926 104.727 158.786 104.228 158.505C103.737 158.216 103.347 157.817 103.057 157.308C102.777 156.791 102.636 156.19 102.636 155.506C102.636 154.822 102.777 154.226 103.057 153.718C103.347 153.2 103.737 152.801 104.228 152.521C104.727 152.231 105.289 152.087 105.911 152.087C106.683 152.087 107.332 152.288 107.858 152.692C108.393 153.095 108.73 153.634 108.87 154.309H107.739C107.652 153.906 107.437 153.595 107.095 153.376C106.753 153.148 106.354 153.034 105.898 153.034C105.53 153.034 105.183 153.126 104.859 153.31C104.535 153.494 104.272 153.77 104.07 154.139C103.868 154.507 103.767 154.963 103.767 155.506C103.767 156.05 103.868 156.506 104.07 156.874C104.272 157.242 104.535 157.523 104.859 157.716C105.183 157.9 105.53 157.992 105.898 157.992C106.354 157.992 106.753 157.882 107.095 157.663C107.437 157.435 107.652 157.115 107.739 156.703H108.87C108.739 157.361 108.406 157.896 107.871 158.308C107.336 158.72 106.683 158.926 105.911 158.926ZM113.785 158.926C113.162 158.926 112.61 158.786 112.127 158.505C111.645 158.216 111.264 157.817 110.983 157.308C110.711 156.8 110.575 156.199 110.575 155.506C110.575 154.822 110.711 154.226 110.983 153.718C111.255 153.2 111.632 152.801 112.114 152.521C112.605 152.231 113.171 152.087 113.811 152.087C114.442 152.087 114.986 152.231 115.442 152.521C115.906 152.801 116.262 153.174 116.507 153.639C116.753 154.103 116.875 154.603 116.875 155.138C116.875 155.235 116.871 155.331 116.862 155.427C116.862 155.524 116.862 155.633 116.862 155.756H111.667C111.693 156.256 111.807 156.672 112.009 157.006C112.219 157.33 112.478 157.576 112.785 157.742C113.101 157.909 113.434 157.992 113.785 157.992C114.24 157.992 114.622 157.887 114.929 157.676C115.236 157.466 115.459 157.181 115.6 156.822H116.691C116.516 157.427 116.178 157.931 115.678 158.334C115.187 158.729 114.556 158.926 113.785 158.926ZM113.785 153.021C113.258 153.021 112.789 153.183 112.377 153.507C111.974 153.823 111.742 154.288 111.68 154.901H115.784C115.757 154.314 115.556 153.854 115.179 153.52C114.802 153.187 114.337 153.021 113.785 153.021Z" fill="white"/>
<path d="M73.2215 193.786V191.929C71.6623 191.752 70.3924 191.206 69.4118 190.289C68.4313 189.373 67.9249 188.144 67.8928 186.6H71.1479C71.18 187.243 71.3729 187.806 71.7266 188.288C72.0963 188.77 72.5946 189.1 73.2215 189.277V184.189C73.0769 184.141 72.9241 184.093 72.7634 184.044C72.6187 183.996 72.466 183.948 72.3053 183.9C71.0032 183.45 70.0066 182.871 69.3154 182.164C68.6402 181.456 68.3027 180.516 68.3027 179.343C68.2866 177.96 68.7367 176.851 69.6529 176.015C70.5692 175.163 71.7587 174.673 73.2215 174.544V172.591H74.837V174.568C76.2837 174.713 77.4492 175.219 78.3333 176.088C79.2335 176.939 79.7077 178.041 79.7559 179.391H76.4525C76.4365 178.925 76.2837 178.499 75.9944 178.113C75.7211 177.711 75.3353 177.43 74.837 177.269V181.754C74.9656 181.802 75.0942 181.85 75.2228 181.899C75.3514 181.931 75.48 181.971 75.6086 182.019C76.4445 182.308 77.208 182.646 77.8993 183.032C78.5905 183.418 79.145 183.932 79.563 184.575C79.9809 185.202 80.1899 186.014 80.1899 187.01C80.1899 187.846 79.9809 188.626 79.563 189.349C79.1611 190.072 78.5583 190.675 77.7546 191.158C76.9669 191.624 75.9944 191.889 74.837 191.953V193.786H73.2215ZM71.5337 179.126C71.5337 179.64 71.6864 180.058 71.9918 180.379C72.2972 180.685 72.7071 180.95 73.2215 181.175V177.173C72.7232 177.269 72.3133 177.486 71.9918 177.824C71.6864 178.161 71.5337 178.595 71.5337 179.126ZM76.9107 187.227C76.9107 186.584 76.7178 186.078 76.332 185.708C75.9462 185.338 75.4479 185.025 74.837 184.768V189.349C75.48 189.253 75.9864 189.02 76.3561 188.65C76.7258 188.28 76.9107 187.806 76.9107 187.227ZM91.037 191.688V188.553H82.7183V186.094L90.627 174.81H94.1233V185.877H96.3416V188.553H94.1233V191.688H91.037ZM86.0217 185.877H91.2299V178.209L86.0217 185.877ZM106.126 191.977C104.567 191.977 103.233 191.616 102.124 190.892C101.015 190.153 100.155 189.132 99.5438 187.83C98.9491 186.512 98.6517 184.985 98.6517 183.249C98.6517 181.529 98.9491 180.01 99.5438 178.692C100.155 177.373 101.015 176.353 102.124 175.629C103.233 174.89 104.567 174.52 106.126 174.52C107.686 174.52 109.02 174.89 110.129 175.629C111.238 176.353 112.09 177.373 112.685 178.692C113.296 180.01 113.601 181.529 113.601 183.249C113.601 184.985 113.296 186.512 112.685 187.83C112.09 189.132 111.238 190.153 110.129 190.892C109.02 191.616 107.686 191.977 106.126 191.977ZM106.126 189.204C107.396 189.204 108.433 188.674 109.237 187.613C110.041 186.552 110.442 185.097 110.442 183.249C110.442 181.4 110.041 179.945 109.237 178.885C108.433 177.824 107.396 177.293 106.126 177.293C104.84 177.293 103.796 177.824 102.992 178.885C102.204 179.945 101.81 181.4 101.81 183.249C101.81 185.097 102.204 186.552 102.992 187.613C103.796 188.674 104.84 189.204 106.126 189.204ZM117.052 191.857C116.489 191.857 116.023 191.68 115.653 191.326C115.3 190.973 115.123 190.547 115.123 190.048C115.123 189.534 115.3 189.1 115.653 188.746C116.023 188.393 116.489 188.216 117.052 188.216C117.614 188.216 118.072 188.393 118.426 188.746C118.796 189.1 118.981 189.534 118.981 190.048C118.981 190.547 118.796 190.973 118.426 191.326C118.072 191.68 117.614 191.857 117.052 191.857ZM127.983 191.977C126.424 191.977 125.09 191.616 123.981 190.892C122.872 190.153 122.012 189.132 121.401 187.83C120.806 186.512 120.509 184.985 120.509 183.249C120.509 181.529 120.806 180.01 121.401 178.692C122.012 177.373 122.872 176.353 123.981 175.629C125.09 174.89 126.424 174.52 127.983 174.52C129.543 174.52 130.877 174.89 131.986 175.629C133.095 176.353 133.947 177.373 134.542 178.692C135.153 180.01 135.458 181.529 135.458 183.249C135.458 184.985 135.153 186.512 134.542 187.83C133.947 189.132 133.095 190.153 131.986 190.892C130.877 191.616 129.543 191.977 127.983 191.977ZM127.983 189.204C129.253 189.204 130.29 188.674 131.094 187.613C131.898 186.552 132.3 185.097 132.3 183.249C132.3 181.4 131.898 179.945 131.094 178.885C130.29 177.824 129.253 177.293 127.983 177.293C126.698 177.293 125.653 177.824 124.849 178.885C124.061 179.945 123.667 181.4 123.667 183.249C123.667 185.097 124.061 186.552 124.849 187.613C125.653 188.674 126.698 189.204 127.983 189.204ZM145.54 191.977C143.981 191.977 142.647 191.616 141.538 190.892C140.429 190.153 139.569 189.132 138.958 187.83C138.363 186.512 138.066 184.985 138.066 183.249C138.066 181.529 138.363 180.01 138.958 178.692C139.569 177.373 140.429 176.353 141.538 175.629C142.647 174.89 143.981 174.52 145.54 174.52C147.1 174.52 148.434 174.89 149.543 175.629C150.652 176.353 151.504 177.373 152.099 178.692C152.71 180.01 153.015 181.529 153.015 183.249C153.015 184.985 152.71 186.512 152.099 187.83C151.504 189.132 150.652 190.153 149.543 190.892C148.434 191.616 147.1 191.977 145.54 191.977ZM145.54 189.204C146.81 189.204 147.847 188.674 148.651 187.613C149.455 186.552 149.856 185.097 149.856 183.249C149.856 181.4 149.455 179.945 148.651 178.885C147.847 177.824 146.81 177.293 145.54 177.293C144.254 177.293 143.21 177.824 142.406 178.885C141.618 179.945 141.224 181.4 141.224 183.249C141.224 185.097 141.618 186.552 142.406 187.613C143.21 188.674 144.254 189.204 145.54 189.204ZM163.097 191.977C161.538 191.977 160.204 191.616 159.095 190.892C157.986 190.153 157.126 189.132 156.515 187.83C155.92 186.512 155.623 184.985 155.623 183.249C155.623 181.529 155.92 180.01 156.515 178.692C157.126 177.373 157.986 176.353 159.095 175.629C160.204 174.89 161.538 174.52 163.097 174.52C164.657 174.52 165.991 174.89 167.1 175.629C168.209 176.353 169.061 177.373 169.656 178.692C170.267 180.01 170.572 181.529 170.572 183.249C170.572 184.985 170.267 186.512 169.656 187.83C169.061 189.132 168.209 190.153 167.1 190.892C165.991 191.616 164.657 191.977 163.097 191.977ZM163.097 189.204C164.367 189.204 165.404 188.674 166.208 187.613C167.012 186.552 167.413 185.097 167.413 183.249C167.413 181.4 167.012 179.945 166.208 178.885C165.404 177.824 164.367 177.293 163.097 177.293C161.811 177.293 160.767 177.824 159.963 178.885C159.175 179.945 158.781 181.4 158.781 183.249C158.781 185.097 159.175 186.552 159.963 187.613C160.767 188.674 161.811 189.204 163.097 189.204Z" fill="white"/>
<path d="M44.3683 277.56V272.648L39.7322 263.75H42.5928L45.6506 270.123L48.6888 263.75H51.5099L46.8935 272.648V277.56H44.3683ZM56.4489 277.797C55.5019 277.797 54.647 277.58 53.8842 277.146C53.1346 276.712 52.5361 276.113 52.089 275.35C51.655 274.574 51.438 273.68 51.438 272.667C51.438 271.655 51.6615 270.767 52.1087 270.004C52.5559 269.228 53.1543 268.623 53.904 268.189C54.6668 267.755 55.5216 267.538 56.4686 267.538C57.4024 267.538 58.2441 267.755 58.9938 268.189C59.7566 268.623 60.355 269.228 60.789 270.004C61.2362 270.767 61.4598 271.655 61.4598 272.667C61.4598 273.68 61.2362 274.574 60.789 275.35C60.355 276.113 59.7566 276.712 58.9938 277.146C58.231 277.58 57.3827 277.797 56.4489 277.797ZM56.4489 275.607C57.1065 275.607 57.6786 275.364 58.1652 274.877C58.6518 274.377 58.8951 273.641 58.8951 272.667C58.8951 271.694 58.6518 270.964 58.1652 270.478C57.6786 269.978 57.113 269.728 56.4686 269.728C55.7978 269.728 55.2192 269.978 54.7325 270.478C54.2591 270.964 54.0223 271.694 54.0223 272.667C54.0223 273.641 54.2591 274.377 54.7325 274.877C55.2192 275.364 55.7913 275.607 56.4489 275.607ZM67.8254 277.797C66.6022 277.797 65.6553 277.415 64.9845 276.653C64.3269 275.89 63.9981 274.772 63.9981 273.299V267.775H66.5036V273.062C66.5036 273.904 66.6746 274.548 67.0165 274.995C67.3585 275.443 67.8977 275.666 68.6342 275.666C69.3313 275.666 69.9034 275.416 70.3505 274.916C70.8109 274.417 71.041 273.72 71.041 272.825V267.775H73.5662V277.56H71.3369L71.1397 275.903C70.8372 276.482 70.3966 276.942 69.8179 277.284C69.2524 277.626 68.5882 277.797 67.8254 277.797ZM76.5968 277.56V267.775H78.8458L79.0826 269.61C79.4377 268.978 79.9177 268.479 80.5227 268.11C81.1409 267.729 81.8642 267.538 82.6928 267.538V270.201H81.9826C81.4302 270.201 80.937 270.287 80.503 270.458C80.069 270.629 79.727 270.925 79.4771 271.346C79.2404 271.767 79.122 272.352 79.122 273.101V277.56H76.5968ZM89.1677 277.56L94.2181 263.75H97.0589L102.109 277.56H99.4263L98.3215 274.364H92.9358L91.8113 277.56H89.1677ZM93.6262 272.391H97.631L95.6188 266.65L93.6262 272.391ZM108.599 277.797C107.599 277.797 106.718 277.58 105.955 277.146C105.193 276.712 104.588 276.107 104.14 275.331C103.706 274.555 103.489 273.667 103.489 272.667C103.489 271.668 103.706 270.78 104.14 270.004C104.588 269.228 105.193 268.623 105.955 268.189C106.718 267.755 107.599 267.538 108.599 267.538C109.848 267.538 110.901 267.867 111.755 268.525C112.61 269.169 113.156 270.063 113.393 271.208H110.73C110.598 270.734 110.335 270.366 109.94 270.103C109.559 269.827 109.105 269.689 108.579 269.689C107.882 269.689 107.29 269.952 106.804 270.478C106.317 271.004 106.074 271.734 106.074 272.667C106.074 273.601 106.317 274.331 106.804 274.857C107.29 275.383 107.882 275.646 108.579 275.646C109.105 275.646 109.559 275.515 109.94 275.252C110.335 274.989 110.598 274.614 110.73 274.127H113.393C113.156 275.232 112.61 276.12 111.755 276.791C110.901 277.461 109.848 277.797 108.599 277.797ZM120.298 277.56C119.272 277.56 118.45 277.31 117.832 276.81C117.213 276.311 116.904 275.423 116.904 274.147V269.886H115.227V267.775H116.904L117.2 265.151H119.43V267.775H122.073V269.886H119.43V274.167C119.43 274.64 119.528 274.969 119.725 275.153C119.936 275.324 120.291 275.41 120.791 275.41H122.014V277.56H120.298ZM126.041 266.256C125.58 266.256 125.199 266.118 124.897 265.842C124.607 265.565 124.463 265.217 124.463 264.796C124.463 264.375 124.607 264.033 124.897 263.77C125.199 263.494 125.58 263.356 126.041 263.356C126.501 263.356 126.876 263.494 127.165 263.77C127.468 264.033 127.619 264.375 127.619 264.796C127.619 265.217 127.468 265.565 127.165 265.842C126.876 266.118 126.501 266.256 126.041 266.256ZM124.778 277.56V267.775H127.303V277.56H124.778ZM133.021 277.56L129.431 267.775H132.074L134.56 275.173L137.046 267.775H139.689L136.079 277.56H133.021ZM143.081 266.256C142.621 266.256 142.24 266.118 141.937 265.842C141.648 265.565 141.503 265.217 141.503 264.796C141.503 264.375 141.648 264.033 141.937 263.77C142.24 263.494 142.621 263.356 143.081 263.356C143.542 263.356 143.917 263.494 144.206 263.77C144.508 264.033 144.66 264.375 144.66 264.796C144.66 265.217 144.508 265.565 144.206 265.842C143.917 266.118 143.542 266.256 143.081 266.256ZM141.819 277.56V267.775H144.344V277.56H141.819ZM151.778 277.56C150.752 277.56 149.93 277.31 149.312 276.81C148.694 276.311 148.385 275.423 148.385 274.147V269.886H146.708V267.775H148.385L148.681 265.151H150.91V267.775H153.554V269.886H150.91V274.167C150.91 274.64 151.009 274.969 151.206 275.153C151.416 275.324 151.771 275.41 152.271 275.41H153.494V277.56H151.778ZM157.383 281.9L159.652 276.909H159.06L155.253 267.775H157.995L160.737 274.66L163.597 267.775H166.28L160.066 281.9H157.383Z" fill="white"/>
<path d="M40.7976 630.472V616.662H43.7962L48.1956 625.422L52.5357 616.662H55.5344V630.472H53.0092V620.943L49.1622 628.499H47.1697L43.3227 620.943V630.472H40.7976ZM63.2882 630.709C62.3412 630.709 61.4863 630.492 60.7235 630.058C59.9739 629.624 59.3754 629.025 58.9283 628.262C58.4943 627.486 58.2773 626.592 58.2773 625.579C58.2773 624.567 58.5008 623.679 58.948 622.916C59.3952 622.14 59.9936 621.535 60.7433 621.101C61.5061 620.667 62.3609 620.45 63.3079 620.45C64.2417 620.45 65.0834 620.667 65.8331 621.101C66.5959 621.535 67.1943 622.14 67.6283 622.916C68.0755 623.679 68.2991 624.567 68.2991 625.579C68.2991 626.592 68.0755 627.486 67.6283 628.262C67.1943 629.025 66.5959 629.624 65.8331 630.058C65.0703 630.492 64.222 630.709 63.2882 630.709ZM63.2882 628.519C63.9458 628.519 64.5179 628.276 65.0045 627.789C65.4911 627.289 65.7344 626.553 65.7344 625.579C65.7344 624.606 65.4911 623.876 65.0045 623.39C64.5179 622.89 63.9523 622.64 63.3079 622.64C62.6371 622.64 62.0585 622.89 61.5718 623.39C61.0984 623.876 60.8616 624.606 60.8616 625.579C60.8616 626.553 61.0984 627.289 61.5718 627.789C62.0585 628.276 62.6306 628.519 63.2882 628.519ZM70.9953 630.472V620.687H73.2245L73.4218 622.344C73.7243 621.765 74.1583 621.305 74.7238 620.963C75.3025 620.621 75.9799 620.45 76.7558 620.45C77.9658 620.45 78.9062 620.832 79.5769 621.594C80.2477 622.357 80.5831 623.475 80.5831 624.948V630.472H78.0579V625.185C78.0579 624.343 77.8869 623.699 77.5449 623.252C77.203 622.804 76.6703 622.581 75.947 622.581C75.2368 622.581 74.6515 622.831 74.1912 623.33C73.744 623.83 73.5204 624.527 73.5204 625.422V630.472H70.9953ZM87.796 630.472C86.7702 630.472 85.9482 630.222 85.33 629.722C84.7119 629.223 84.4028 628.335 84.4028 627.059V622.798H82.7259V620.687H84.4028L84.6987 618.063H86.928V620.687H89.5715V622.798H86.928V627.079C86.928 627.552 87.0266 627.881 87.2239 628.065C87.4343 628.236 87.7894 628.322 88.2892 628.322H89.5124V630.472H87.796ZM92.178 630.472V616.268H94.7032V622.186C95.032 621.647 95.4726 621.226 96.025 620.924C96.5905 620.608 97.235 620.45 97.9583 620.45C99.1683 620.45 100.102 620.832 100.76 621.594C101.43 622.357 101.766 623.475 101.766 624.948V630.472H99.2604V625.185C99.2604 624.343 99.0894 623.699 98.7474 623.252C98.4186 622.804 97.8926 622.581 97.1692 622.581C96.459 622.581 95.8672 622.831 95.3937 623.33C94.9334 623.83 94.7032 624.527 94.7032 625.422V630.472H92.178ZM104.619 630.472V616.268H107.144V630.472H104.619ZM111.386 634.812L113.655 629.821H113.063L109.255 620.687H111.997L114.74 627.572L117.6 620.687H120.283L114.069 634.812H111.386ZM127.571 630.472V616.662H132.68C133.785 616.662 134.699 616.847 135.423 617.215C136.146 617.583 136.685 618.089 137.04 618.734C137.395 619.378 137.573 620.102 137.573 620.904C137.573 621.667 137.402 622.37 137.06 623.015C136.718 623.646 136.185 624.159 135.462 624.554C134.739 624.935 133.811 625.126 132.68 625.126H130.096V630.472H127.571ZM130.096 623.074H132.523C133.404 623.074 134.035 622.883 134.416 622.502C134.811 622.107 135.008 621.575 135.008 620.904C135.008 620.22 134.811 619.687 134.416 619.306C134.035 618.911 133.404 618.714 132.523 618.714H130.096V623.074ZM142.69 630.709C141.848 630.709 141.158 630.577 140.619 630.314C140.08 630.038 139.678 629.676 139.415 629.229C139.152 628.782 139.021 628.289 139.021 627.75C139.021 626.842 139.376 626.106 140.086 625.54C140.796 624.974 141.862 624.692 143.282 624.692H145.768V624.455C145.768 623.784 145.577 623.291 145.196 622.975C144.814 622.66 144.341 622.502 143.775 622.502C143.262 622.502 142.815 622.627 142.434 622.877C142.052 623.113 141.816 623.469 141.724 623.942H139.258C139.323 623.232 139.56 622.614 139.968 622.088C140.389 621.562 140.928 621.16 141.585 620.884C142.243 620.595 142.98 620.45 143.795 620.45C145.189 620.45 146.287 620.799 147.09 621.496C147.892 622.193 148.293 623.179 148.293 624.455V630.472H146.143L145.906 628.894C145.617 629.42 145.209 629.854 144.683 630.196C144.17 630.538 143.506 630.709 142.69 630.709ZM143.262 628.736C143.986 628.736 144.545 628.499 144.939 628.026C145.347 627.552 145.603 626.967 145.709 626.27H143.558C142.887 626.27 142.407 626.395 142.118 626.645C141.829 626.881 141.684 627.177 141.684 627.533C141.684 627.914 141.829 628.21 142.118 628.42C142.407 628.631 142.789 628.736 143.262 628.736ZM152.037 634.812L154.305 629.821H153.714L149.906 620.687H152.648L155.39 627.572L158.251 620.687H160.934L154.72 634.812H152.037ZM163.023 630.472V620.687H165.253L165.47 622.009C165.785 621.535 166.199 621.16 166.712 620.884C167.239 620.595 167.843 620.45 168.527 620.45C170.04 620.45 171.112 621.035 171.743 622.206C172.098 621.667 172.572 621.239 173.163 620.924C173.768 620.608 174.426 620.45 175.136 620.45C176.412 620.45 177.392 620.832 178.076 621.594C178.76 622.357 179.102 623.475 179.102 624.948V630.472H176.576V625.185C176.576 624.343 176.412 623.699 176.083 623.252C175.768 622.804 175.274 622.581 174.604 622.581C173.92 622.581 173.367 622.831 172.946 623.33C172.539 623.83 172.335 624.527 172.335 625.422V630.472H169.81V625.185C169.81 624.343 169.645 623.699 169.317 623.252C168.988 622.804 168.481 622.581 167.797 622.581C167.127 622.581 166.581 622.831 166.16 623.33C165.752 623.83 165.548 624.527 165.548 625.422V630.472H163.023ZM186.692 630.709C185.705 630.709 184.831 630.498 184.068 630.077C183.305 629.657 182.707 629.065 182.273 628.302C181.839 627.539 181.622 626.658 181.622 625.658C181.622 624.646 181.832 623.745 182.253 622.956C182.687 622.166 183.279 621.555 184.029 621.121C184.791 620.674 185.686 620.45 186.712 620.45C187.672 620.45 188.52 620.661 189.256 621.081C189.993 621.502 190.565 622.081 190.973 622.818C191.394 623.541 191.604 624.35 191.604 625.244C191.604 625.389 191.598 625.54 191.584 625.698C191.584 625.856 191.578 626.02 191.565 626.191H184.127C184.18 626.954 184.443 627.552 184.916 627.986C185.403 628.42 185.988 628.637 186.672 628.637C187.185 628.637 187.612 628.525 187.954 628.302C188.31 628.065 188.573 627.763 188.744 627.394H191.308C191.124 628.013 190.815 628.578 190.381 629.091C189.96 629.591 189.434 629.985 188.803 630.275C188.185 630.564 187.481 630.709 186.692 630.709ZM186.712 622.502C186.093 622.502 185.548 622.679 185.074 623.035C184.601 623.376 184.298 623.903 184.167 624.613H189.039C189 623.968 188.763 623.455 188.329 623.074C187.895 622.693 187.356 622.502 186.712 622.502ZM194.166 630.472V620.687H196.396L196.593 622.344C196.895 621.765 197.329 621.305 197.895 620.963C198.474 620.621 199.151 620.45 199.927 620.45C201.137 620.45 202.077 620.832 202.748 621.594C203.419 622.357 203.754 623.475 203.754 624.948V630.472H201.229V625.185C201.229 624.343 201.058 623.699 200.716 623.252C200.374 622.804 199.841 622.581 199.118 622.581C198.408 622.581 197.823 622.831 197.362 623.33C196.915 623.83 196.692 624.527 196.692 625.422V630.472H194.166ZM210.967 630.472C209.941 630.472 209.119 630.222 208.501 629.722C207.883 629.223 207.574 628.335 207.574 627.059V622.798H205.897V620.687H207.574L207.87 618.063H210.099V620.687H212.743V622.798H210.099V627.079C210.099 627.552 210.198 627.881 210.395 628.065C210.605 628.236 210.961 628.322 211.46 628.322H212.683V630.472H210.967Z" fill="white"/>
<circle cx="329.896" cy="170.976" r="16.44" fill="white"/>
<circle cx="329.896" cy="170.976" r="16.44" fill="url(#paint0_radial)"/>
<path d="M329.896 165.861V176.091" stroke="#FFAB36" stroke-width="1.7536" stroke-linecap="round" stroke-linejoin="round"/>
<path d="M324.781 170.976H335.011" stroke="#FFAB36" stroke-width="1.7536" stroke-linecap="round" stroke-linejoin="round"/>
<path d="M68.5001 442.784C48.7721 444.428 39.4561 472.924 39.4561 472.924V578.14C39.4561 584.193 44.363 589.1 50.416 589.1H360.584C366.637 589.1 371.544 584.193 371.544 578.14V407.712C371.544 407.712 350.172 446.072 329.348 449.908C308.524 453.744 314.004 477.856 294.824 477.856C275.644 477.856 274 424.152 260.3 421.412C246.6 418.672 250.436 385.244 236.188 386.34C221.94 387.436 212.076 415.932 200.568 415.932C189.06 415.932 169.88 407.712 153.988 415.932C138.096 424.152 130.972 472.924 116.176 477.856C101.38 482.788 88.2281 441.14 68.5001 442.784Z" fill="url(#paint1_linear)" stroke="white" stroke-opacity="0.15" stroke-width="0.4384" stroke-linecap="round"/>
<path d="M49.1163 299.152V290.713H50.2978L53.3359 296.596L56.3499 290.713H57.5434V299.152H56.5307V292.521L53.7096 297.946H52.9501L50.129 292.533V299.152H49.1163ZM62.3904 299.297C61.8198 299.297 61.3134 299.168 60.8714 298.911C60.4293 298.646 60.0797 298.28 59.8225 297.814C59.5734 297.348 59.4488 296.797 59.4488 296.162C59.4488 295.535 59.5734 294.989 59.8225 294.522C60.0717 294.048 60.4173 293.683 60.8593 293.425C61.3094 293.16 61.8278 293.028 62.4146 293.028C62.9932 293.028 63.4916 293.16 63.9095 293.425C64.3355 293.683 64.661 294.024 64.886 294.45C65.1111 294.876 65.2236 295.334 65.2236 295.825C65.2236 295.913 65.2196 296.001 65.2115 296.09C65.2115 296.178 65.2115 296.279 65.2115 296.391H60.4494C60.4735 296.849 60.578 297.231 60.7629 297.536C60.9558 297.834 61.1929 298.059 61.4742 298.212C61.7635 298.364 62.069 298.441 62.3904 298.441C62.8084 298.441 63.158 298.344 63.4393 298.151C63.7206 297.958 63.9256 297.697 64.0542 297.368H65.0548C64.8941 297.922 64.5846 298.384 64.1265 298.754C63.6764 299.116 63.0977 299.297 62.3904 299.297ZM62.3904 293.884C61.9082 293.884 61.4782 294.032 61.1005 294.33C60.7307 294.619 60.5177 295.045 60.4615 295.608H64.223C64.1988 295.069 64.014 294.647 63.6684 294.342C63.3228 294.036 62.8968 293.884 62.3904 293.884ZM67.6191 291.846C67.4182 291.846 67.2494 291.782 67.1128 291.653C66.9842 291.517 66.9199 291.348 66.9199 291.147C66.9199 290.954 66.9842 290.793 67.1128 290.665C67.2494 290.536 67.4182 290.472 67.6191 290.472C67.812 290.472 67.9768 290.536 68.1134 290.665C68.2501 290.793 68.3184 290.954 68.3184 291.147C68.3184 291.348 68.2501 291.517 68.1134 291.653C67.9768 291.782 67.812 291.846 67.6191 291.846ZM67.1128 299.152V293.172H68.1255V299.152H67.1128ZM73.8838 299.152V298.441C74.4545 297.991 74.993 297.536 75.4993 297.078C76.0137 296.612 76.4678 296.154 76.8617 295.704C77.2635 295.254 77.577 294.812 77.802 294.378C78.0351 293.944 78.1517 293.526 78.1517 293.124C78.1517 292.827 78.0994 292.549 77.9949 292.292C77.8985 292.035 77.7377 291.83 77.5127 291.677C77.2876 291.517 76.9822 291.436 76.5964 291.436C76.2267 291.436 75.9173 291.521 75.6681 291.689C75.419 291.85 75.2301 292.067 75.1015 292.34C74.9809 292.614 74.9206 292.907 74.9206 293.22H73.9441C73.9441 292.666 74.0606 292.192 74.2937 291.798C74.5268 291.396 74.8443 291.091 75.2462 290.882C75.648 290.673 76.1021 290.568 76.6085 290.568C77.356 290.568 77.9668 290.781 78.441 291.207C78.9232 291.625 79.1644 292.252 79.1644 293.088C79.1644 293.586 79.0398 294.08 78.7906 294.571C78.5415 295.053 78.224 295.523 77.8382 295.981C77.4524 296.431 77.0385 296.853 76.5964 297.247C76.1624 297.641 75.7565 297.995 75.3788 298.308H79.4537V299.152H73.8838ZM84.5276 299.297C83.7802 299.297 83.1332 299.116 82.5866 298.754C82.0481 298.384 81.6342 297.874 81.3448 297.223C81.0555 296.564 80.9108 295.8 80.9108 294.932C80.9108 294.064 81.0555 293.305 81.3448 292.654C81.6342 291.995 82.0481 291.484 82.5866 291.123C83.1332 290.753 83.7802 290.568 84.5276 290.568C85.2751 290.568 85.9181 290.753 86.4566 291.123C86.9951 291.484 87.409 291.995 87.6984 292.654C87.9877 293.305 88.1324 294.064 88.1324 294.932C88.1324 295.8 87.9877 296.564 87.6984 297.223C87.409 297.874 86.9951 298.384 86.4566 298.754C85.9181 299.116 85.2751 299.297 84.5276 299.297ZM84.5276 298.405C85.0179 298.405 85.4559 298.268 85.8417 297.995C86.2356 297.713 86.541 297.315 86.758 296.801C86.983 296.279 87.0956 295.656 87.0956 294.932C87.0956 294.209 86.983 293.59 86.758 293.076C86.541 292.561 86.2356 292.168 85.8417 291.894C85.4559 291.613 85.0179 291.472 84.5276 291.472C84.0293 291.472 83.5873 291.613 83.2015 291.894C82.8157 292.168 82.5103 292.561 82.2852 293.076C82.0602 293.59 81.9476 294.209 81.9476 294.932C81.9476 295.656 82.0602 296.279 82.2852 296.801C82.5103 297.315 82.8157 297.713 83.2015 297.995C83.5873 298.268 84.0293 298.405 84.5276 298.405ZM89.7835 299.152V298.441C90.3542 297.991 90.8927 297.536 91.399 297.078C91.9134 296.612 92.3675 296.154 92.7614 295.704C93.1632 295.254 93.4767 294.812 93.7017 294.378C93.9348 293.944 94.0514 293.526 94.0514 293.124C94.0514 292.827 93.9991 292.549 93.8946 292.292C93.7982 292.035 93.6374 291.83 93.4124 291.677C93.1873 291.517 92.8819 291.436 92.4961 291.436C92.1264 291.436 91.817 291.521 91.5678 291.689C91.3187 291.85 91.1298 292.067 91.0012 292.34C90.8806 292.614 90.8203 292.907 90.8203 293.22H89.8438C89.8438 292.666 89.9604 292.192 90.1934 291.798C90.4265 291.396 90.744 291.091 91.1459 290.882C91.5477 290.673 92.0018 290.568 92.5082 290.568C93.2557 290.568 93.8665 290.781 94.3407 291.207C94.8229 291.625 95.0641 292.252 95.0641 293.088C95.0641 293.586 94.9395 294.08 94.6903 294.571C94.4412 295.053 94.1237 295.523 93.7379 295.981C93.3521 296.431 92.9382 296.853 92.4961 297.247C92.0621 297.641 91.6562 297.995 91.2785 298.308H95.3534V299.152H89.7835ZM98.0856 299.152V291.846L96.7233 292.147V291.448L98.4232 290.713H99.1104V299.152H98.0856Z" fill="#FFAB36"/>
<path d="M39.4561 472.924C39.4561 472.924 48.7721 444.428 68.5001 442.784C88.2281 441.14 101.38 482.788 116.176 477.856C130.972 472.924 138.096 424.152 153.988 415.932C169.88 407.712 189.06 415.932 200.568 415.932C212.076 415.932 221.94 387.436 236.188 386.34C250.436 385.244 246.6 418.672 260.3 421.412C274 424.152 275.644 477.856 294.824 477.856C314.004 477.856 308.524 453.744 329.348 449.908C350.172 446.072 371.544 407.712 371.544 407.712" stroke="url(#paint2_linear)" stroke-width="3.288" stroke-linecap="round"/>
<rect x="185.224" y="346.336" width="52.608" height="226.872" rx="8.768" fill="url(#paint3_linear)"/>
<path opacity="0.4" d="M63.8607 563.433C63.2418 563.433 62.7033 563.32 62.2452 563.095C61.787 562.87 61.4334 562.557 61.1842 562.155C60.9351 561.753 60.8105 561.287 60.8105 560.756H61.8714C61.8714 561.086 61.9478 561.391 62.1005 561.673C62.2532 561.946 62.4742 562.167 62.7636 562.336C63.0609 562.496 63.4266 562.577 63.8607 562.577C64.4313 562.577 64.8734 562.44 65.1868 562.167C65.5003 561.894 65.657 561.552 65.657 561.142C65.657 560.804 65.5847 560.535 65.44 560.334C65.2953 560.125 65.0984 559.957 64.8493 559.828C64.6081 559.699 64.3268 559.587 64.0053 559.49C63.6919 559.394 63.3623 559.285 63.0167 559.165C62.3657 558.94 61.8835 558.663 61.57 558.333C61.2566 557.995 61.0998 557.557 61.0998 557.019C61.0918 556.569 61.1963 556.171 61.4133 555.825C61.6303 555.472 61.9357 555.198 62.3295 555.006C62.7314 554.805 63.2056 554.704 63.7522 554.704C64.2907 554.704 64.7568 554.805 65.1507 555.006C65.5525 555.206 65.862 555.484 66.079 555.837C66.304 556.191 66.4206 556.593 66.4286 557.043H65.3677C65.3677 556.81 65.3074 556.581 65.1868 556.356C65.0663 556.123 64.8814 555.934 64.6322 555.789C64.3911 555.645 64.0857 555.572 63.716 555.572C63.2579 555.564 62.8801 555.681 62.5827 555.922C62.2934 556.163 62.1487 556.496 62.1487 556.922C62.1487 557.284 62.2492 557.561 62.4501 557.754C62.6591 557.947 62.9484 558.108 63.3181 558.237C63.6879 558.357 64.1138 558.498 64.5961 558.659C64.9979 558.803 65.3596 558.972 65.6811 559.165C66.0026 559.358 66.2518 559.607 66.4286 559.912C66.6134 560.218 66.7059 560.608 66.7059 561.082C66.7059 561.484 66.6014 561.865 66.3924 562.227C66.1835 562.581 65.866 562.87 65.44 563.095C65.0221 563.32 64.4956 563.433 63.8607 563.433ZM70.7023 563.433C69.995 563.433 69.4324 563.22 69.0145 562.794C68.5965 562.36 68.3876 561.697 68.3876 560.804V557.308H69.4003V560.696C69.4003 561.942 69.9106 562.565 70.9314 562.565C71.4538 562.565 71.8838 562.38 72.2214 562.01C72.567 561.632 72.7398 561.098 72.7398 560.407V557.308H73.7525V563.288H72.8362L72.7639 562.215C72.579 562.593 72.3017 562.89 71.932 563.107C71.5703 563.324 71.1604 563.433 70.7023 563.433ZM75.8578 563.288V557.308H76.7741L76.8343 558.381C77.0272 558.003 77.3045 557.706 77.6662 557.489C78.0279 557.272 78.4378 557.164 78.8959 557.164C79.6032 557.164 80.1658 557.381 80.5838 557.815C81.0097 558.241 81.2227 558.9 81.2227 559.792V563.288H80.21V559.9C80.21 558.655 79.6956 558.032 78.6669 558.032C78.1525 558.032 77.7225 558.22 77.3769 558.598C77.0393 558.968 76.8705 559.498 76.8705 560.19V563.288H75.8578Z" fill="white"/>
<path opacity="0.4" d="M106.108 563.288V554.849H107.29L110.328 560.732L113.342 554.849H114.535V563.288H113.523V556.657L110.702 562.082H109.942L107.121 556.669V563.288H106.108ZM119.419 563.433C118.856 563.433 118.35 563.304 117.899 563.047C117.449 562.79 117.092 562.428 116.827 561.962C116.569 561.488 116.441 560.933 116.441 560.298C116.441 559.663 116.573 559.113 116.839 558.646C117.104 558.172 117.461 557.807 117.912 557.549C118.37 557.292 118.88 557.164 119.443 557.164C120.005 557.164 120.512 557.292 120.962 557.549C121.412 557.807 121.765 558.172 122.023 558.646C122.288 559.113 122.42 559.663 122.42 560.298C122.42 560.933 122.288 561.488 122.023 561.962C121.757 562.428 121.396 562.79 120.938 563.047C120.488 563.304 119.981 563.433 119.419 563.433ZM119.419 562.565C119.764 562.565 120.086 562.48 120.383 562.311C120.68 562.143 120.922 561.89 121.106 561.552C121.291 561.214 121.384 560.796 121.384 560.298C121.384 559.8 121.291 559.382 121.106 559.044C120.93 558.707 120.692 558.454 120.395 558.285C120.098 558.116 119.78 558.032 119.443 558.032C119.097 558.032 118.776 558.116 118.478 558.285C118.181 558.454 117.94 558.707 117.755 559.044C117.57 559.382 117.478 559.8 117.478 560.298C117.478 560.796 117.57 561.214 117.755 561.552C117.94 561.89 118.177 562.143 118.466 562.311C118.764 562.48 119.081 562.565 119.419 562.565ZM124.267 563.288V557.308H125.183L125.244 558.381C125.436 558.003 125.714 557.706 126.075 557.489C126.437 557.272 126.847 557.164 127.305 557.164C128.012 557.164 128.575 557.381 128.993 557.815C129.419 558.241 129.632 558.9 129.632 559.792V563.288H128.619V559.9C128.619 558.655 128.105 558.032 127.076 558.032C126.562 558.032 126.132 558.22 125.786 558.598C125.448 558.968 125.28 559.498 125.28 560.19V563.288H124.267Z" fill="white"/>
<path opacity="0.4" d="M156.309 563.288V555.681H153.79V554.849H159.842V555.681H157.322V563.288H156.309ZM163.038 563.433C162.331 563.433 161.768 563.22 161.35 562.794C160.932 562.36 160.723 561.697 160.723 560.804V557.308H161.736V560.696C161.736 561.942 162.246 562.565 163.267 562.565C163.79 562.565 164.22 562.38 164.557 562.01C164.903 561.632 165.076 561.098 165.076 560.407V557.308H166.088V563.288H165.172L165.1 562.215C164.915 562.593 164.638 562.89 164.268 563.107C163.906 563.324 163.496 563.433 163.038 563.433ZM170.882 563.433C170.311 563.433 169.805 563.304 169.363 563.047C168.921 562.782 168.571 562.416 168.314 561.95C168.065 561.484 167.94 560.933 167.94 560.298C167.94 559.671 168.065 559.125 168.314 558.659C168.563 558.184 168.909 557.819 169.351 557.561C169.801 557.296 170.319 557.164 170.906 557.164C171.485 557.164 171.983 557.296 172.401 557.561C172.827 557.819 173.153 558.16 173.378 558.586C173.603 559.012 173.715 559.47 173.715 559.961C173.715 560.049 173.711 560.137 173.703 560.226C173.703 560.314 173.703 560.415 173.703 560.527H168.941C168.965 560.985 169.07 561.367 169.255 561.673C169.447 561.97 169.684 562.195 169.966 562.348C170.255 562.5 170.561 562.577 170.882 562.577C171.3 562.577 171.65 562.48 171.931 562.287C172.212 562.094 172.417 561.833 172.546 561.504H173.546C173.386 562.058 173.076 562.52 172.618 562.89C172.168 563.252 171.589 563.433 170.882 563.433ZM170.882 558.02C170.4 558.02 169.97 558.168 169.592 558.466C169.222 558.755 169.009 559.181 168.953 559.744H172.715C172.69 559.205 172.506 558.783 172.16 558.478C171.814 558.172 171.388 558.02 170.882 558.02Z" fill="white"/>
<path d="M199.908 563.3L197.593 554.849H198.679L200.499 562.094L202.573 554.849H203.694L205.707 562.094L207.552 554.849H208.637L206.274 563.288H205.116L203.103 556.32L201.042 563.288L199.908 563.3ZM212.282 563.433C211.712 563.433 211.205 563.304 210.763 563.047C210.321 562.782 209.972 562.416 209.714 561.95C209.465 561.484 209.341 560.933 209.341 560.298C209.341 559.671 209.465 559.125 209.714 558.659C209.963 558.184 210.309 557.819 210.751 557.561C211.201 557.296 211.72 557.164 212.306 557.164C212.885 557.164 213.383 557.296 213.801 557.561C214.227 557.819 214.553 558.16 214.778 558.586C215.003 559.012 215.115 559.47 215.115 559.961C215.115 560.049 215.111 560.137 215.103 560.226C215.103 560.314 215.103 560.415 215.103 560.527H210.341C210.365 560.985 210.47 561.367 210.655 561.673C210.848 561.97 211.085 562.195 211.366 562.348C211.655 562.5 211.961 562.577 212.282 562.577C212.7 562.577 213.05 562.48 213.331 562.287C213.612 562.094 213.817 561.833 213.946 561.504H214.947C214.786 562.058 214.476 562.52 214.018 562.89C213.568 563.252 212.99 563.433 212.282 563.433ZM212.282 558.02C211.8 558.02 211.37 558.168 210.992 558.466C210.623 558.755 210.41 559.181 210.353 559.744H214.115C214.091 559.205 213.906 558.783 213.56 558.478C213.215 558.172 212.789 558.02 212.282 558.02ZM219.609 563.433C219.014 563.433 218.492 563.296 218.041 563.023C217.599 562.75 217.254 562.376 217.005 561.902C216.763 561.427 216.643 560.889 216.643 560.286C216.643 559.683 216.767 559.149 217.017 558.683C217.266 558.208 217.611 557.839 218.053 557.573C218.496 557.3 219.018 557.164 219.621 557.164C220.111 557.164 220.545 557.264 220.923 557.465C221.301 557.666 221.594 557.947 221.803 558.309V554.608H222.816V563.288H221.899L221.803 562.299C221.61 562.589 221.333 562.85 220.971 563.083C220.609 563.316 220.155 563.433 219.609 563.433ZM219.717 562.553C220.119 562.553 220.473 562.46 220.778 562.275C221.092 562.082 221.333 561.817 221.501 561.48C221.678 561.142 221.767 560.748 221.767 560.298C221.767 559.848 221.678 559.454 221.501 559.117C221.333 558.779 221.092 558.518 220.778 558.333C220.473 558.14 220.119 558.044 219.717 558.044C219.323 558.044 218.97 558.14 218.656 558.333C218.351 558.518 218.11 558.779 217.933 559.117C217.764 559.454 217.68 559.848 217.68 560.298C217.68 560.748 217.764 561.142 217.933 561.48C218.11 561.817 218.351 562.082 218.656 562.275C218.97 562.46 219.323 562.553 219.717 562.553Z" fill="white"/>
<path opacity="0.4" d="M250.565 563.288V555.681H248.046V554.849H254.098V555.681H251.578V563.288H250.565ZM255.712 563.288V554.608H256.725V558.333C256.926 557.963 257.211 557.678 257.581 557.477C257.951 557.268 258.353 557.164 258.787 557.164C259.478 557.164 260.033 557.381 260.45 557.815C260.868 558.241 261.077 558.9 261.077 559.792V563.288H260.077V559.9C260.077 558.655 259.574 558.032 258.57 558.032C258.047 558.032 257.609 558.22 257.256 558.598C256.902 558.968 256.725 559.498 256.725 560.19V563.288H255.712ZM265.232 563.433C264.525 563.433 263.962 563.22 263.544 562.794C263.126 562.36 262.918 561.697 262.918 560.804V557.308H263.93V560.696C263.93 561.942 264.441 562.565 265.461 562.565C265.984 562.565 266.414 562.38 266.751 562.01C267.097 561.632 267.27 561.098 267.27 560.407V557.308H268.282V563.288H267.366L267.294 562.215C267.109 562.593 266.832 562.89 266.462 563.107C266.1 563.324 265.69 563.433 265.232 563.433Z" fill="white"/>
<path opacity="0.4" d="M293.524 563.288V554.849H298.66V555.681H294.537V558.646H298.045V559.466H294.537V563.288H293.524ZM300.342 563.288V557.308H301.259L301.343 558.454C301.528 558.06 301.809 557.746 302.187 557.513C302.565 557.28 303.031 557.164 303.585 557.164V558.225H303.308C302.955 558.225 302.629 558.289 302.332 558.417C302.034 558.538 301.797 558.747 301.62 559.044C301.444 559.342 301.355 559.752 301.355 560.274V563.288H300.342ZM305.775 555.982C305.574 555.982 305.406 555.918 305.269 555.789C305.14 555.653 305.076 555.484 305.076 555.283C305.076 555.09 305.14 554.929 305.269 554.801C305.406 554.672 305.574 554.608 305.775 554.608C305.968 554.608 306.133 554.672 306.27 554.801C306.406 554.929 306.475 555.09 306.475 555.283C306.475 555.484 306.406 555.653 306.27 555.789C306.133 555.918 305.968 555.982 305.775 555.982ZM305.269 563.288V557.308H306.282V563.288H305.269Z" fill="white"/>
<path opacity="0.4" d="M334.573 563.433C333.954 563.433 333.415 563.32 332.957 563.095C332.499 562.87 332.145 562.557 331.896 562.155C331.647 561.753 331.522 561.287 331.522 560.756H332.583C332.583 561.086 332.66 561.391 332.812 561.673C332.965 561.946 333.186 562.167 333.475 562.336C333.773 562.496 334.139 562.577 334.573 562.577C335.143 562.577 335.585 562.44 335.899 562.167C336.212 561.894 336.369 561.552 336.369 561.142C336.369 560.804 336.297 560.535 336.152 560.334C336.007 560.125 335.81 559.957 335.561 559.828C335.32 559.699 335.039 559.587 334.717 559.49C334.404 559.394 334.074 559.285 333.729 559.165C333.078 558.94 332.595 558.663 332.282 558.333C331.968 557.995 331.812 557.557 331.812 557.019C331.804 556.569 331.908 556.171 332.125 555.825C332.342 555.472 332.648 555.198 333.041 555.006C333.443 554.805 333.918 554.704 334.464 554.704C335.003 554.704 335.469 554.805 335.863 555.006C336.264 555.206 336.574 555.484 336.791 555.837C337.016 556.191 337.132 556.593 337.141 557.043H336.08C336.08 556.81 336.019 556.581 335.899 556.356C335.778 556.123 335.593 555.934 335.344 555.789C335.103 555.645 334.798 555.572 334.428 555.572C333.97 555.564 333.592 555.681 333.295 555.922C333.005 556.163 332.861 556.496 332.861 556.922C332.861 557.284 332.961 557.561 333.162 557.754C333.371 557.947 333.66 558.108 334.03 558.237C334.4 558.357 334.826 558.498 335.308 558.659C335.71 558.803 336.072 558.972 336.393 559.165C336.715 559.358 336.964 559.607 337.141 559.912C337.325 560.218 337.418 560.608 337.418 561.082C337.418 561.484 337.313 561.865 337.104 562.227C336.895 562.581 336.578 562.87 336.152 563.095C335.734 563.32 335.208 563.433 334.573 563.433ZM341.221 563.433C340.723 563.433 340.309 563.348 339.98 563.18C339.65 563.011 339.405 562.786 339.244 562.504C339.083 562.223 339.003 561.918 339.003 561.588C339.003 560.977 339.236 560.507 339.702 560.178C340.168 559.848 340.803 559.683 341.607 559.683H343.223V559.611C343.223 559.089 343.086 558.695 342.813 558.429C342.539 558.156 342.174 558.02 341.716 558.02C341.322 558.02 340.98 558.12 340.691 558.321C340.41 558.514 340.233 558.799 340.16 559.177H339.124C339.164 558.743 339.308 558.377 339.558 558.08C339.815 557.782 340.132 557.557 340.51 557.405C340.888 557.244 341.29 557.164 341.716 557.164C342.552 557.164 343.178 557.389 343.596 557.839C344.022 558.281 344.235 558.872 344.235 559.611V563.288H343.331L343.271 562.215C343.102 562.553 342.853 562.842 342.523 563.083C342.202 563.316 341.768 563.433 341.221 563.433ZM341.378 562.577C341.764 562.577 342.093 562.476 342.367 562.275C342.648 562.074 342.861 561.813 343.006 561.492C343.15 561.17 343.223 560.833 343.223 560.479V560.467H341.692C341.097 560.467 340.675 560.571 340.426 560.78C340.185 560.981 340.064 561.234 340.064 561.54C340.064 561.853 340.176 562.107 340.402 562.299C340.635 562.484 340.96 562.577 341.378 562.577ZM348.391 563.288C347.845 563.288 347.415 563.155 347.101 562.89C346.788 562.625 346.631 562.147 346.631 561.456V558.164H345.594V557.308H346.631L346.764 555.874H347.644V557.308H349.404V558.164H347.644V561.456C347.644 561.833 347.72 562.09 347.873 562.227C348.025 562.356 348.295 562.42 348.68 562.42H349.307V563.288H348.391Z" fill="white"/>
<rect x="277.288" y="264.136" width="94.256" height="37.264" rx="8.768" fill="white"/>
<path d="M297.404 287.108L295.125 278.657H296.5L298.176 285.649L300.105 278.657H301.515L303.384 285.649L305.06 278.657H306.434L304.119 287.096H302.624L300.78 280.477L298.875 287.096L297.404 287.108ZM310.17 287.241C309.583 287.241 309.06 287.112 308.602 286.855C308.152 286.59 307.799 286.224 307.541 285.758C307.284 285.292 307.156 284.749 307.156 284.13C307.156 283.503 307.28 282.953 307.529 282.479C307.787 282.004 308.14 281.635 308.59 281.369C309.048 281.104 309.579 280.972 310.182 280.972C310.768 280.972 311.279 281.104 311.713 281.369C312.147 281.627 312.484 281.972 312.725 282.406C312.967 282.84 313.087 283.318 313.087 283.841C313.087 283.921 313.083 284.01 313.075 284.106C313.075 284.195 313.071 284.295 313.063 284.408H308.409C308.45 284.986 308.639 285.428 308.976 285.734C309.322 286.031 309.72 286.18 310.17 286.18C310.531 286.18 310.833 286.099 311.074 285.939C311.323 285.77 311.508 285.545 311.628 285.263H312.906C312.746 285.826 312.424 286.296 311.942 286.674C311.468 287.052 310.877 287.241 310.17 287.241ZM310.17 282.02C309.744 282.02 309.366 282.149 309.036 282.406C308.707 282.655 308.506 283.033 308.434 283.539H311.809C311.785 283.073 311.62 282.704 311.315 282.43C311.01 282.157 310.628 282.02 310.17 282.02ZM317.649 287.241C317.062 287.241 316.539 287.112 316.081 286.855C315.631 286.59 315.278 286.224 315.02 285.758C314.763 285.292 314.635 284.749 314.635 284.13C314.635 283.503 314.759 282.953 315.008 282.479C315.265 282.004 315.619 281.635 316.069 281.369C316.527 281.104 317.058 280.972 317.661 280.972C318.247 280.972 318.758 281.104 319.192 281.369C319.626 281.627 319.963 281.972 320.204 282.406C320.446 282.84 320.566 283.318 320.566 283.841C320.566 283.921 320.562 284.01 320.554 284.106C320.554 284.195 320.55 284.295 320.542 284.408H315.888C315.929 284.986 316.117 285.428 316.455 285.734C316.801 286.031 317.198 286.18 317.649 286.18C318.01 286.18 318.312 286.099 318.553 285.939C318.802 285.77 318.987 285.545 319.107 285.263H320.385C320.224 285.826 319.903 286.296 319.421 286.674C318.947 287.052 318.356 287.241 317.649 287.241ZM317.649 282.02C317.223 282.02 316.845 282.149 316.515 282.406C316.186 282.655 315.985 283.033 315.912 283.539H319.288C319.264 283.073 319.099 282.704 318.794 282.43C318.488 282.157 318.107 282.02 317.649 282.02ZM322.33 287.096V278.416H323.608V283.588L325.899 281.116H327.43L324.886 283.829L327.804 287.096H326.188L323.608 284.034V287.096H322.33ZM329.232 287.096V278.416H330.51V287.096H329.232ZM333.266 289.748L334.701 286.602H334.351L331.988 281.116H333.375L335.207 285.541L337.124 281.116H338.475L334.617 289.748H333.266Z" fill="black"/>
<path d="M345.788 281.946L349.624 285.782L353.46 281.946" stroke="black" stroke-width="1.096" stroke-linecap="round" stroke-linejoin="round"/>
<g filter="url(#filter1_d)">
<path fill-rule="evenodd" clip-rule="evenodd" d="M162.13 336.394C158.92 339.604 158.92 344.771 158.92 355.104V368.256C158.92 378.589 158.92 383.756 162.13 386.966C165.34 390.176 170.507 390.176 180.84 390.176H204.025C204.388 390.921 204.904 391.815 205.539 392.916C207.227 395.839 208.07 397.3 209.336 397.3C210.602 397.3 211.445 395.839 213.133 392.916C213.768 391.815 214.284 390.921 214.647 390.176H236.736C247.069 390.176 252.236 390.176 255.446 386.966C258.656 383.756 258.656 378.589 258.656 368.256V355.104C258.656 344.771 258.656 339.604 255.446 336.394C252.236 333.184 247.069 333.184 236.736 333.184H180.84C170.507 333.184 165.34 333.184 162.13 336.394Z" fill="white"/>
</g>
<path d="M229.909 366.583C230.533 365.834 230.845 365.46 231.256 365.46C231.666 365.46 231.978 365.834 232.603 366.583L233.603 367.782C234.64 369.026 235.159 369.649 234.923 370.154C234.686 370.659 233.876 370.659 232.256 370.659H230.256C228.635 370.659 227.825 370.659 227.589 370.154C227.352 369.649 227.871 369.026 228.909 367.782L229.909 366.583Z" fill="#FFAB36"/>
<path d="M185.987 374.727V373.545C184.995 373.433 184.186 373.085 183.562 372.502C182.939 371.919 182.616 371.136 182.596 370.154H184.667C184.688 370.564 184.81 370.922 185.036 371.228C185.271 371.535 185.588 371.745 185.987 371.858V368.62C185.895 368.589 185.798 368.559 185.695 368.528C185.603 368.497 185.506 368.467 185.404 368.436C184.575 368.149 183.941 367.781 183.501 367.331C183.071 366.881 182.857 366.283 182.857 365.536C182.846 364.656 183.133 363.95 183.716 363.418C184.299 362.876 185.056 362.564 185.987 362.482V361.24H187.015V362.498C187.936 362.59 188.677 362.912 189.24 363.464C189.813 364.007 190.114 364.707 190.145 365.567H188.043C188.033 365.27 187.936 364.999 187.751 364.753C187.578 364.498 187.332 364.319 187.015 364.216V367.07C187.097 367.101 187.179 367.132 187.26 367.162C187.342 367.183 187.424 367.208 187.506 367.239C188.038 367.423 188.524 367.638 188.964 367.883C189.403 368.129 189.756 368.456 190.022 368.865C190.288 369.264 190.421 369.781 190.421 370.415C190.421 370.947 190.288 371.443 190.022 371.904C189.767 372.364 189.383 372.748 188.872 373.054C188.37 373.351 187.751 373.52 187.015 373.561V374.727H185.987ZM184.913 365.398C184.913 365.725 185.01 365.991 185.204 366.196C185.399 366.39 185.66 366.559 185.987 366.702V364.155C185.67 364.216 185.409 364.354 185.204 364.569C185.01 364.784 184.913 365.06 184.913 365.398ZM188.334 370.553C188.334 370.144 188.212 369.822 187.966 369.587C187.721 369.351 187.404 369.152 187.015 368.988V371.904C187.424 371.842 187.746 371.694 187.982 371.459C188.217 371.223 188.334 370.922 188.334 370.553ZM196.425 373.576C195.637 373.576 194.957 373.438 194.384 373.162C193.821 372.886 193.376 372.507 193.049 372.026C192.732 371.535 192.548 370.983 192.497 370.369H194.415C194.507 370.809 194.732 371.177 195.09 371.474C195.448 371.76 195.893 371.904 196.425 371.904C196.997 371.904 197.463 371.694 197.821 371.274C198.189 370.855 198.373 370.333 198.373 369.709C198.373 369.065 198.189 368.553 197.821 368.175C197.463 367.797 197.008 367.607 196.455 367.607C195.995 367.607 195.596 367.72 195.258 367.945C194.921 368.17 194.681 368.451 194.537 368.789H192.65L193.571 362.651H199.524V364.37H195.044L194.553 366.855C194.778 366.61 195.085 366.41 195.473 366.257C195.862 366.093 196.297 366.012 196.778 366.012C197.545 366.012 198.184 366.185 198.696 366.533C199.207 366.871 199.596 367.321 199.862 367.883C200.128 368.436 200.261 369.039 200.261 369.694C200.261 370.441 200.097 371.106 199.77 371.689C199.453 372.272 199.002 372.732 198.419 373.07C197.847 373.407 197.182 373.576 196.425 373.576ZM207.437 373.392V371.397H202.143V369.832L207.176 362.651H209.401V369.694H210.813V371.397H209.401V373.392H207.437ZM204.245 369.694H207.56V364.815L204.245 369.694ZM216.83 373.576C216.022 373.576 215.342 373.428 214.79 373.131C214.237 372.834 213.792 372.436 213.455 371.934C213.117 371.433 212.872 370.876 212.718 370.262C212.575 369.648 212.503 369.019 212.503 368.374C212.503 367.178 212.672 366.139 213.01 365.26C213.347 364.37 213.833 363.684 214.467 363.204C215.102 362.713 215.869 362.467 216.769 362.467C217.506 362.467 218.13 362.615 218.641 362.912C219.163 363.198 219.567 363.577 219.853 364.047C220.14 364.518 220.308 365.024 220.36 365.567H218.534C218.442 365.096 218.242 364.733 217.935 364.477C217.628 364.221 217.234 364.094 216.754 364.094C216.068 364.094 215.516 364.411 215.097 365.045C214.677 365.669 214.452 366.625 214.421 367.914C214.667 367.495 215.035 367.147 215.526 366.871C216.017 366.595 216.564 366.456 217.168 366.456C217.761 366.456 218.319 366.6 218.84 366.886C219.362 367.173 219.782 367.577 220.099 368.098C220.426 368.62 220.59 369.234 220.59 369.94C220.59 370.584 220.431 371.182 220.114 371.735C219.807 372.287 219.367 372.732 218.794 373.07C218.232 373.407 217.577 373.576 216.83 373.576ZM216.723 371.888C217.296 371.888 217.766 371.714 218.135 371.367C218.513 371.009 218.702 370.558 218.702 370.016C218.702 369.443 218.513 368.983 218.135 368.635C217.756 368.288 217.275 368.114 216.692 368.114C216.314 368.114 215.971 368.201 215.664 368.374C215.368 368.538 215.132 368.763 214.958 369.05C214.785 369.326 214.698 369.638 214.698 369.986C214.698 370.538 214.887 370.993 215.265 371.351C215.654 371.709 216.14 371.888 216.723 371.888Z" fill="#FFAB36"/>
<path opacity="0.4" d="M191.515 354.048V346.376H192.589L195.351 351.724L198.091 346.376H199.176V354.048H198.256V348.02L195.691 352.952H195L192.436 348.031V354.048H191.515ZM203.655 354.179C203.144 354.179 202.684 354.063 202.274 353.829C201.865 353.595 201.54 353.266 201.299 352.842C201.065 352.411 200.948 351.907 200.948 351.33C200.948 350.753 201.069 350.252 201.31 349.828C201.551 349.397 201.876 349.065 202.285 348.831C202.702 348.597 203.166 348.48 203.677 348.48C204.189 348.48 204.649 348.597 205.058 348.831C205.467 349.065 205.789 349.397 206.023 349.828C206.264 350.252 206.384 350.753 206.384 351.33C206.384 351.907 206.264 352.411 206.023 352.842C205.782 353.266 205.453 353.595 205.036 353.829C204.627 354.063 204.167 354.179 203.655 354.179ZM203.655 353.39C203.969 353.39 204.262 353.314 204.532 353.16C204.802 353.007 205.022 352.777 205.19 352.47C205.358 352.163 205.442 351.783 205.442 351.33C205.442 350.877 205.358 350.497 205.19 350.19C205.029 349.883 204.813 349.653 204.543 349.5C204.273 349.346 203.984 349.269 203.677 349.269C203.363 349.269 203.071 349.346 202.8 349.5C202.53 349.653 202.311 349.883 202.143 350.19C201.975 350.497 201.891 350.877 201.891 351.33C201.891 351.783 201.975 352.163 202.143 352.47C202.311 352.777 202.526 353.007 202.789 353.16C203.06 353.314 203.348 353.39 203.655 353.39ZM208.103 354.048V348.612H208.936L208.991 349.587C209.166 349.244 209.418 348.973 209.747 348.776C210.076 348.579 210.448 348.48 210.865 348.48C211.508 348.48 212.019 348.678 212.399 349.072C212.786 349.459 212.98 350.059 212.98 350.87V354.048H212.059V350.968C212.059 349.836 211.592 349.269 210.657 349.269C210.189 349.269 209.798 349.441 209.484 349.785C209.177 350.121 209.023 350.603 209.023 351.231V354.048H208.103ZM217.257 354.179C216.739 354.179 216.278 354.063 215.876 353.829C215.475 353.588 215.157 353.255 214.923 352.831C214.696 352.408 214.583 351.907 214.583 351.33C214.583 350.76 214.696 350.263 214.923 349.839C215.149 349.408 215.464 349.076 215.865 348.842C216.275 348.601 216.746 348.48 217.279 348.48C217.805 348.48 218.258 348.601 218.638 348.842C219.026 349.076 219.321 349.386 219.526 349.774C219.731 350.161 219.833 350.577 219.833 351.023C219.833 351.103 219.829 351.184 219.822 351.264C219.822 351.345 219.822 351.436 219.822 351.538H215.493C215.515 351.955 215.61 352.302 215.778 352.579C215.953 352.85 216.169 353.054 216.424 353.193C216.687 353.332 216.965 353.401 217.257 353.401C217.637 353.401 217.955 353.314 218.211 353.138C218.467 352.963 218.653 352.725 218.77 352.426H219.68C219.533 352.93 219.252 353.35 218.836 353.686C218.426 354.015 217.9 354.179 217.257 354.179ZM217.257 349.258C216.819 349.258 216.428 349.394 216.085 349.664C215.749 349.927 215.555 350.314 215.504 350.826H218.923C218.901 350.336 218.733 349.953 218.419 349.675C218.105 349.397 217.718 349.258 217.257 349.258ZM221.869 356.459L223.217 353.522H222.9L220.74 348.612H221.738L223.535 352.842L225.442 348.612H226.396L222.834 356.459H221.869Z" fill="black"/>
<rect opacity="0.06" x="40.552" y="652.12" width="120.56" height="128.232" rx="15.344" fill="#13CAE6"/>
<rect opacity="0.06" x="179.744" y="652.12" width="120.56" height="128.232" rx="15.344" fill="#13CAE6"/>
<rect opacity="0.06" x="318.936" y="652.12" width="120.56" height="128.232" rx="15.344" fill="#13CAE6"/>
<circle cx="100.832" cy="698.152" r="32.88" fill="#13CAE6" fill-opacity="0.05" stroke="white" stroke-opacity="0.5" stroke-width="0.4384" stroke-linecap="round" stroke-dasharray="4.38 4.38"/>
<g clip-path="url(#clip1)">
<path d="M105.947 703.266C108.771 703.266 111.061 700.976 111.061 698.152C111.061 695.327 108.771 693.037 105.947 693.037C103.122 693.037 100.832 695.327 100.832 698.152C100.832 700.976 103.122 703.266 105.947 703.266Z" fill="#19BCFE"/>
<path fill-rule="evenodd" clip-rule="evenodd" d="M95.7174 713.496C97.0739 713.496 98.3749 712.957 99.3341 711.998C100.293 711.039 100.832 709.738 100.832 708.381V703.267H95.7174C94.361 703.267 93.06 703.805 92.1008 704.765C91.1416 705.724 90.6028 707.025 90.6028 708.381C90.6028 709.738 91.1416 711.039 92.1008 711.998C93.06 712.957 94.361 713.496 95.7174 713.496Z" fill="#09CF83"/>
<path fill-rule="evenodd" clip-rule="evenodd" d="M95.7174 703.266H100.832V693.037H95.7174C94.361 693.037 93.06 693.576 92.1008 694.535C91.1416 695.494 90.6028 696.795 90.6028 698.152C90.6028 699.508 91.1416 700.809 92.1008 701.768C93.06 702.727 94.361 703.266 95.7174 703.266Z" fill="#A259FF"/>
<path fill-rule="evenodd" clip-rule="evenodd" d="M95.7174 693.037H100.832V682.808H95.7174C94.361 682.808 93.06 683.347 92.1008 684.306C91.1416 685.265 90.6028 686.566 90.6028 687.923C90.6028 689.279 91.1416 690.58 92.1008 691.539C93.06 692.498 94.361 693.037 95.7174 693.037Z" fill="#F24E1E"/>
<path fill-rule="evenodd" clip-rule="evenodd" d="M105.947 693.037H100.832V682.808H105.947C107.303 682.808 108.604 683.347 109.563 684.306C110.522 685.265 111.061 686.566 111.061 687.922C111.061 689.279 110.522 690.58 109.563 691.539C108.604 692.498 107.303 693.037 105.947 693.037Z" fill="#FF7262"/>
</g>
<circle cx="240.024" cy="698.152" r="32.88" fill="#13CAE6" fill-opacity="0.05" stroke="white" stroke-opacity="0.5" stroke-width="0.4384" stroke-linecap="round" stroke-dasharray="4.38 4.38"/>
<circle cx="379.216" cy="698.152" r="32.88" fill="#13CAE6" fill-opacity="0.05" stroke="white" stroke-opacity="0.5" stroke-width="0.4384" stroke-linecap="round" stroke-dasharray="4.38 4.38"/>
<path opacity="0.6" d="M65.937 757.184V747.978H71.5397V748.885H67.0418V752.121H70.869V753.015H67.0418V757.184H65.937ZM74.0059 749.214C73.7867 749.214 73.6026 749.144 73.4535 749.003C73.3132 748.854 73.2431 748.67 73.2431 748.451C73.2431 748.241 73.3132 748.065 73.4535 747.925C73.6026 747.785 73.7867 747.715 74.0059 747.715C74.2164 747.715 74.3961 747.785 74.5452 747.925C74.6942 748.065 74.7687 748.241 74.7687 748.451C74.7687 748.67 74.6942 748.854 74.5452 749.003C74.3961 749.144 74.2164 749.214 74.0059 749.214ZM73.4535 757.184V750.661H74.5583V757.184H73.4535ZM79.4981 755.132C79.1298 755.132 78.7923 755.084 78.4854 754.988L77.8278 755.606C77.9242 755.676 78.0426 755.737 78.1829 755.79C78.3319 755.834 78.5424 755.878 78.8142 755.921C79.086 755.957 79.4674 755.996 79.9584 756.04C80.8352 756.101 81.4621 756.303 81.8391 756.645C82.2162 756.987 82.4047 757.434 82.4047 757.986C82.4047 758.363 82.2995 758.723 82.089 759.065C81.8874 759.407 81.5717 759.687 81.1421 759.906C80.7212 760.126 80.1776 760.235 79.5112 760.235C78.9238 760.235 78.4021 760.156 77.9461 759.999C77.4902 759.849 77.1351 759.617 76.8808 759.301C76.6266 758.995 76.4994 758.604 76.4994 758.131C76.4994 757.885 76.5652 757.618 76.6967 757.329C76.8282 757.048 77.0737 756.781 77.4332 756.526C77.2403 756.448 77.0737 756.364 76.9334 756.277C76.8019 756.18 76.6792 756.075 76.5652 755.961V755.658L77.6831 754.554C77.1658 754.115 76.9071 753.537 76.9071 752.818C76.9071 752.388 77.008 751.998 77.2096 751.647C77.4113 751.296 77.705 751.02 78.0908 750.818C78.4766 750.608 78.9457 750.503 79.4981 750.503C79.8751 750.503 80.2171 750.555 80.5239 750.661H82.9308V751.489L81.7076 751.542C81.9619 751.91 82.089 752.335 82.089 752.818C82.089 753.247 81.9838 753.637 81.7734 753.988C81.5717 754.339 81.278 754.619 80.8922 754.83C80.5152 755.031 80.0505 755.132 79.4981 755.132ZM79.4981 754.225C79.9628 754.225 80.331 754.106 80.6028 753.87C80.8834 753.624 81.0237 753.273 81.0237 752.818C81.0237 752.37 80.8834 752.028 80.6028 751.792C80.331 751.546 79.9628 751.423 79.4981 751.423C79.0246 751.423 78.6476 751.546 78.367 751.792C78.0952 752.028 77.9593 752.37 77.9593 752.818C77.9593 753.273 78.0952 753.624 78.367 753.87C78.6476 754.106 79.0246 754.225 79.4981 754.225ZM77.5779 758.026C77.5779 758.464 77.762 758.789 78.1303 758.999C78.4985 759.218 78.9588 759.328 79.5112 759.328C80.0548 759.328 80.4889 759.209 80.8133 758.973C81.1465 758.736 81.3131 758.42 81.3131 758.026C81.3131 757.745 81.1991 757.5 80.9711 757.289C80.7431 757.088 80.3223 756.969 79.7085 756.934C79.2263 756.899 78.8098 756.855 78.4591 756.803C78.0996 756.996 77.8628 757.202 77.7489 757.421C77.6349 757.649 77.5779 757.85 77.5779 758.026ZM84.6154 757.184V750.661H85.615L85.6939 751.608C85.9043 751.257 86.1849 750.985 86.5356 750.792C86.8863 750.599 87.2809 750.503 87.7193 750.503C88.2366 750.503 88.6794 750.608 89.0476 750.818C89.4247 751.029 89.714 751.349 89.9157 751.779C90.1436 751.384 90.4549 751.073 90.8495 750.845C91.2528 750.617 91.6868 750.503 92.1515 750.503C92.9319 750.503 93.5544 750.74 94.0191 751.213C94.4838 751.678 94.7161 752.397 94.7161 753.37V757.184H93.6245V753.488C93.6245 752.813 93.4886 752.305 93.2168 751.963C92.945 751.621 92.5548 751.45 92.0463 751.45C91.5202 751.45 91.0818 751.656 90.7311 752.068C90.3891 752.471 90.2182 753.05 90.2182 753.804V757.184H89.1134V753.488C89.1134 752.813 88.9775 752.305 88.7057 751.963C88.4339 751.621 88.0437 751.45 87.5351 751.45C87.0178 751.45 86.5838 751.656 86.2331 752.068C85.8911 752.471 85.7202 753.05 85.7202 753.804V757.184H84.6154ZM98.9888 757.342C98.4451 757.342 97.9936 757.25 97.6341 757.066C97.2746 756.882 97.0072 756.636 96.8318 756.329C96.6565 756.022 96.5688 755.689 96.5688 755.33C96.5688 754.663 96.8231 754.15 97.3316 753.791C97.8402 753.431 98.5328 753.252 99.4096 753.252H101.172V753.173C101.172 752.603 101.023 752.173 100.725 751.884C100.427 751.586 100.028 751.437 99.528 751.437C99.0984 751.437 98.7257 751.546 98.4101 751.765C98.1032 751.976 97.9103 752.287 97.8314 752.699H96.7003C96.7442 752.226 96.902 751.827 97.1738 751.502C97.4544 751.178 97.8007 750.932 98.2128 750.766C98.6249 750.59 99.0633 750.503 99.528 750.503C100.44 750.503 101.124 750.748 101.58 751.239C102.044 751.722 102.277 752.366 102.277 753.173V757.184H101.29L101.225 756.013C101.04 756.382 100.769 756.697 100.409 756.96C100.058 757.215 99.585 757.342 98.9888 757.342ZM99.1597 756.408C99.5806 756.408 99.9401 756.298 100.238 756.079C100.545 755.86 100.777 755.575 100.935 755.224C101.093 754.874 101.172 754.505 101.172 754.12V754.106H99.5017C98.8529 754.106 98.3925 754.22 98.1207 754.448C97.8577 754.668 97.7262 754.944 97.7262 755.277C97.7262 755.619 97.8489 755.895 98.0944 756.106C98.3487 756.307 98.7038 756.408 99.1597 756.408ZM108.357 757.184V747.978H113.96V748.885H109.462V752.121H113.289V753.015H109.462V757.184H108.357ZM117.476 757.342C116.932 757.342 116.481 757.25 116.121 757.066C115.762 756.882 115.494 756.636 115.319 756.329C115.144 756.022 115.056 755.689 115.056 755.33C115.056 754.663 115.31 754.15 115.819 753.791C116.327 753.431 117.02 753.252 117.897 753.252H119.659V753.173C119.659 752.603 119.51 752.173 119.212 751.884C118.914 751.586 118.515 751.437 118.015 751.437C117.586 751.437 117.213 751.546 116.897 751.765C116.59 751.976 116.398 752.287 116.319 752.699H115.188C115.231 752.226 115.389 751.827 115.661 751.502C115.942 751.178 116.288 750.932 116.7 750.766C117.112 750.59 117.551 750.503 118.015 750.503C118.927 750.503 119.611 750.748 120.067 751.239C120.532 751.722 120.764 752.366 120.764 753.173V757.184H119.778L119.712 756.013C119.528 756.382 119.256 756.697 118.896 756.96C118.546 757.215 118.072 757.342 117.476 757.342ZM117.647 756.408C118.068 756.408 118.427 756.298 118.725 756.079C119.032 755.86 119.265 755.575 119.423 755.224C119.58 754.874 119.659 754.505 119.659 754.12V754.106H117.989C117.34 754.106 116.88 754.22 116.608 754.448C116.345 754.668 116.213 754.944 116.213 755.277C116.213 755.619 116.336 755.895 116.582 756.106C116.836 756.307 117.191 756.408 117.647 756.408ZM122.86 757.184V750.661H123.859L123.951 751.91C124.153 751.48 124.46 751.138 124.872 750.884C125.284 750.63 125.793 750.503 126.398 750.503V751.66H126.095C125.709 751.66 125.354 751.73 125.03 751.871C124.705 752.002 124.447 752.23 124.254 752.555C124.061 752.879 123.965 753.326 123.965 753.896V757.184H122.86ZM128.747 749.214C128.528 749.214 128.344 749.144 128.194 749.003C128.054 748.854 127.984 748.67 127.984 748.451C127.984 748.241 128.054 748.065 128.194 747.925C128.344 747.785 128.528 747.715 128.747 747.715C128.957 747.715 129.137 747.785 129.286 747.925C129.435 748.065 129.51 748.241 129.51 748.451C129.51 748.67 129.435 748.854 129.286 749.003C129.137 749.144 128.957 749.214 128.747 749.214ZM128.194 757.184V750.661H129.299V757.184H128.194ZM131.214 757.184V756.277L134.844 751.581H131.28V750.661H136.08V751.568L132.45 756.263H136.146V757.184H131.214Z" fill="white"/>
<g filter="url(#filter2_d)">
<circle cx="209.336" cy="409.904" r="5.48" fill="#13CAE6"/>
<circle cx="209.336" cy="409.904" r="5.48" stroke="white" stroke-width="3.288"/>
</g>
<path opacity="0.6" d="M206.066 757.342C205.391 757.342 204.803 757.219 204.304 756.974C203.804 756.728 203.418 756.386 203.146 755.948C202.874 755.509 202.739 755.001 202.739 754.422H203.896C203.896 754.782 203.979 755.115 204.146 755.422C204.312 755.72 204.553 755.961 204.869 756.145C205.194 756.32 205.593 756.408 206.066 756.408C206.689 756.408 207.171 756.259 207.513 755.961C207.855 755.663 208.026 755.29 208.026 754.843C208.026 754.475 207.947 754.181 207.789 753.962C207.631 753.734 207.416 753.55 207.144 753.409C206.881 753.269 206.575 753.146 206.224 753.041C205.882 752.936 205.522 752.818 205.145 752.686C204.435 752.441 203.909 752.138 203.567 751.779C203.225 751.41 203.054 750.932 203.054 750.345C203.045 749.854 203.159 749.42 203.396 749.043C203.633 748.657 203.966 748.359 204.396 748.149C204.834 747.929 205.351 747.82 205.948 747.82C206.535 747.82 207.044 747.929 207.473 748.149C207.912 748.368 208.249 748.67 208.486 749.056C208.731 749.442 208.859 749.88 208.867 750.371H207.71C207.71 750.117 207.644 749.867 207.513 749.622C207.381 749.367 207.18 749.161 206.908 749.003C206.645 748.846 206.311 748.767 205.908 748.767C205.408 748.758 204.996 748.885 204.672 749.148C204.356 749.411 204.198 749.775 204.198 750.24C204.198 750.634 204.308 750.937 204.527 751.147C204.755 751.358 205.071 751.533 205.474 751.673C205.877 751.805 206.342 751.958 206.868 752.134C207.307 752.291 207.701 752.476 208.052 752.686C208.403 752.896 208.674 753.168 208.867 753.501C209.069 753.835 209.17 754.26 209.17 754.777C209.17 755.216 209.056 755.632 208.828 756.027C208.6 756.412 208.254 756.728 207.789 756.974C207.333 757.219 206.759 757.342 206.066 757.342ZM211.109 757.184V747.715H212.214V753.409L214.884 750.661H216.238L213.345 753.607L216.607 757.184H215.199L212.214 753.804V757.184H211.109ZM220.633 757.342C220.01 757.342 219.458 757.202 218.976 756.921C218.493 756.632 218.112 756.233 217.831 755.724C217.559 755.216 217.424 754.615 217.424 753.922C217.424 753.238 217.559 752.642 217.831 752.134C218.103 751.616 218.48 751.217 218.962 750.937C219.453 750.647 220.019 750.503 220.659 750.503C221.29 750.503 221.834 750.647 222.29 750.937C222.755 751.217 223.11 751.59 223.355 752.055C223.601 752.519 223.723 753.019 223.723 753.554C223.723 753.651 223.719 753.747 223.71 753.843C223.71 753.94 223.71 754.049 223.71 754.172H218.515C218.542 754.672 218.655 755.088 218.857 755.422C219.068 755.746 219.326 755.992 219.633 756.158C219.949 756.325 220.282 756.408 220.633 756.408C221.089 756.408 221.47 756.303 221.777 756.092C222.084 755.882 222.307 755.597 222.448 755.238H223.539C223.364 755.843 223.026 756.347 222.527 756.75C222.036 757.145 221.404 757.342 220.633 757.342ZM220.633 751.437C220.107 751.437 219.638 751.599 219.225 751.923C218.822 752.239 218.59 752.704 218.528 753.317H222.632C222.605 752.73 222.404 752.27 222.027 751.936C221.65 751.603 221.185 751.437 220.633 751.437ZM227.986 757.184C227.389 757.184 226.92 757.039 226.578 756.75C226.236 756.461 226.065 755.939 226.065 755.185V751.594H224.934V750.661H226.065L226.21 749.096H227.17V750.661H229.09V751.594H227.17V755.185C227.17 755.597 227.253 755.878 227.42 756.027C227.587 756.167 227.88 756.237 228.301 756.237H228.985V757.184H227.986ZM233.751 757.342C233.129 757.342 232.567 757.202 232.068 756.921C231.577 756.632 231.186 756.233 230.897 755.724C230.617 755.207 230.476 754.606 230.476 753.922C230.476 753.238 230.617 752.642 230.897 752.134C231.186 751.616 231.577 751.217 232.068 750.937C232.567 750.647 233.129 750.503 233.751 750.503C234.523 750.503 235.172 750.704 235.698 751.108C236.232 751.511 236.57 752.05 236.71 752.725H235.579C235.492 752.322 235.277 752.011 234.935 751.792C234.593 751.564 234.194 751.45 233.738 751.45C233.37 751.45 233.023 751.542 232.699 751.726C232.375 751.91 232.111 752.186 231.91 752.555C231.708 752.923 231.607 753.379 231.607 753.922C231.607 754.466 231.708 754.922 231.91 755.29C232.111 755.658 232.375 755.939 232.699 756.132C233.023 756.316 233.37 756.408 233.738 756.408C234.194 756.408 234.593 756.298 234.935 756.079C235.277 755.851 235.492 755.531 235.579 755.119H236.71C236.579 755.777 236.246 756.312 235.711 756.724C235.176 757.136 234.523 757.342 233.751 757.342ZM238.692 757.184V747.715H239.796V751.779C240.016 751.375 240.327 751.064 240.73 750.845C241.133 750.617 241.572 750.503 242.045 750.503C242.799 750.503 243.404 750.74 243.86 751.213C244.316 751.678 244.544 752.397 244.544 753.37V757.184H243.453V753.488C243.453 752.129 242.905 751.45 241.809 751.45C241.239 751.45 240.761 751.656 240.375 752.068C239.989 752.471 239.796 753.05 239.796 753.804V757.184H238.692ZM250.641 757.184V747.978H256.244V748.885H251.746V752.121H255.573V753.015H251.746V757.184H250.641ZM259.76 757.342C259.216 757.342 258.765 757.25 258.405 757.066C258.046 756.882 257.778 756.636 257.603 756.329C257.428 756.022 257.34 755.689 257.34 755.33C257.34 754.663 257.594 754.15 258.103 753.791C258.611 753.431 259.304 753.252 260.181 753.252H261.943V753.173C261.943 752.603 261.794 752.173 261.496 751.884C261.198 751.586 260.799 751.437 260.299 751.437C259.87 751.437 259.497 751.546 259.181 751.765C258.874 751.976 258.682 752.287 258.603 752.699H257.472C257.515 752.226 257.673 751.827 257.945 751.502C258.226 751.178 258.572 750.932 258.984 750.766C259.396 750.59 259.834 750.503 260.299 750.503C261.211 750.503 261.895 750.748 262.351 751.239C262.816 751.722 263.048 752.366 263.048 753.173V757.184H262.062L261.996 756.013C261.812 756.382 261.54 756.697 261.18 756.96C260.83 757.215 260.356 757.342 259.76 757.342ZM259.931 756.408C260.352 756.408 260.711 756.298 261.009 756.079C261.316 755.86 261.549 755.575 261.706 755.224C261.864 754.874 261.943 754.505 261.943 754.12V754.106H260.273C259.624 754.106 259.164 754.22 258.892 754.448C258.629 754.668 258.497 754.944 258.497 755.277C258.497 755.619 258.62 755.895 258.866 756.106C259.12 756.307 259.475 756.408 259.931 756.408ZM265.144 757.184V750.661H266.143L266.235 751.91C266.437 751.48 266.744 751.138 267.156 750.884C267.568 750.63 268.077 750.503 268.682 750.503V751.66H268.379C267.993 751.66 267.638 751.73 267.314 751.871C266.989 752.002 266.731 752.23 266.538 752.555C266.345 752.879 266.248 753.326 266.248 753.896V757.184H265.144ZM271.031 749.214C270.812 749.214 270.627 749.144 270.478 749.003C270.338 748.854 270.268 748.67 270.268 748.451C270.268 748.241 270.338 748.065 270.478 747.925C270.627 747.785 270.812 747.715 271.031 747.715C271.241 747.715 271.421 747.785 271.57 747.925C271.719 748.065 271.794 748.241 271.794 748.451C271.794 748.67 271.719 748.854 271.57 749.003C271.421 749.144 271.241 749.214 271.031 749.214ZM270.478 757.184V750.661H271.583V757.184H270.478ZM273.498 757.184V756.277L277.128 751.581H273.564V750.661H278.364V751.568L274.734 756.263H278.43V757.184H273.498Z" fill="white"/>
<path opacity="0.6" d="M335.687 757.184V747.978H338.515C340.137 747.978 341.33 748.39 342.092 749.214C342.864 750.038 343.25 751.169 343.25 752.607C343.25 754.019 342.864 755.137 342.092 755.961C341.33 756.776 340.137 757.184 338.515 757.184H335.687ZM336.792 756.263H338.489C339.383 756.263 340.093 756.119 340.619 755.829C341.154 755.531 341.536 755.11 341.764 754.567C341.992 754.014 342.106 753.361 342.106 752.607C342.106 751.836 341.992 751.174 341.764 750.621C341.536 750.069 341.154 749.644 340.619 749.345C340.093 749.047 339.383 748.898 338.489 748.898H336.792V756.263ZM345.218 757.184V750.661H346.217L346.309 751.91C346.511 751.48 346.818 751.138 347.23 750.884C347.642 750.63 348.151 750.503 348.756 750.503V751.66H348.453C348.067 751.66 347.712 751.73 347.388 751.871C347.063 752.002 346.805 752.23 346.612 752.555C346.419 752.879 346.322 753.326 346.322 753.896V757.184H345.218ZM351.105 749.214C350.885 749.214 350.701 749.144 350.552 749.003C350.412 748.854 350.342 748.67 350.342 748.451C350.342 748.241 350.412 748.065 350.552 747.925C350.701 747.785 350.885 747.715 351.105 747.715C351.315 747.715 351.495 747.785 351.644 747.925C351.793 748.065 351.867 748.241 351.867 748.451C351.867 748.67 351.793 748.854 351.644 749.003C351.495 749.144 351.315 749.214 351.105 749.214ZM350.552 757.184V750.661H351.657V757.184H350.552ZM357.504 757.342C356.969 757.342 356.492 757.232 356.071 757.013C355.659 756.794 355.343 756.487 355.124 756.092L355.019 757.184H354.019V747.715H355.124V751.739C355.334 751.423 355.632 751.138 356.018 750.884C356.413 750.63 356.912 750.503 357.517 750.503C358.166 750.503 358.732 750.652 359.214 750.95C359.696 751.248 360.069 751.656 360.332 752.173C360.604 752.69 360.74 753.278 360.74 753.935C360.74 754.593 360.604 755.181 360.332 755.698C360.069 756.206 359.692 756.61 359.201 756.908C358.719 757.197 358.153 757.342 357.504 757.342ZM357.386 756.382C357.824 756.382 358.21 756.281 358.543 756.079C358.876 755.869 359.14 755.579 359.332 755.211C359.525 754.843 359.622 754.413 359.622 753.922C359.622 753.431 359.525 753.002 359.332 752.633C359.14 752.265 358.876 751.98 358.543 751.779C358.21 751.568 357.824 751.463 357.386 751.463C356.948 751.463 356.562 751.568 356.229 751.779C355.895 751.98 355.632 752.265 355.439 752.633C355.247 753.002 355.15 753.431 355.15 753.922C355.15 754.413 355.247 754.843 355.439 755.211C355.632 755.579 355.895 755.869 356.229 756.079C356.562 756.281 356.948 756.382 357.386 756.382ZM366.201 757.342C365.666 757.342 365.189 757.232 364.768 757.013C364.356 756.794 364.04 756.487 363.821 756.092L363.716 757.184H362.716V747.715H363.821V751.739C364.031 751.423 364.329 751.138 364.715 750.884C365.11 750.63 365.609 750.503 366.214 750.503C366.863 750.503 367.429 750.652 367.911 750.95C368.393 751.248 368.766 751.656 369.029 752.173C369.301 752.69 369.437 753.278 369.437 753.935C369.437 754.593 369.301 755.181 369.029 755.698C368.766 756.206 368.389 756.61 367.898 756.908C367.416 757.197 366.85 757.342 366.201 757.342ZM366.083 756.382C366.521 756.382 366.907 756.281 367.24 756.079C367.573 755.869 367.836 755.579 368.029 755.211C368.222 754.843 368.319 754.413 368.319 753.922C368.319 753.431 368.222 753.002 368.029 752.633C367.836 752.265 367.573 751.98 367.24 751.779C366.907 751.568 366.521 751.463 366.083 751.463C365.644 751.463 365.259 751.568 364.925 751.779C364.592 751.98 364.329 752.265 364.136 752.633C363.943 753.002 363.847 753.431 363.847 753.922C363.847 754.413 363.943 754.843 364.136 755.211C364.329 755.579 364.592 755.869 364.925 756.079C365.259 756.281 365.644 756.382 366.083 756.382ZM374.898 757.342C374.363 757.342 373.885 757.232 373.465 757.013C373.053 756.794 372.737 756.487 372.518 756.092L372.412 757.184H371.413V747.715H372.518V751.739C372.728 751.423 373.026 751.138 373.412 750.884C373.807 750.63 374.306 750.503 374.911 750.503C375.56 750.503 376.126 750.652 376.608 750.95C377.09 751.248 377.463 751.656 377.726 752.173C377.998 752.69 378.134 753.278 378.134 753.935C378.134 754.593 377.998 755.181 377.726 755.698C377.463 756.206 377.086 756.61 376.595 756.908C376.113 757.197 375.547 757.342 374.898 757.342ZM374.78 756.382C375.218 756.382 375.604 756.281 375.937 756.079C376.27 755.869 376.533 755.579 376.726 755.211C376.919 754.843 377.016 754.413 377.016 753.922C377.016 753.431 376.919 753.002 376.726 752.633C376.533 752.265 376.27 751.98 375.937 751.779C375.604 751.568 375.218 751.463 374.78 751.463C374.341 751.463 373.956 751.568 373.622 751.779C373.289 751.98 373.026 752.265 372.833 752.633C372.64 753.002 372.544 753.431 372.544 753.922C372.544 754.413 372.64 754.843 372.833 755.211C373.026 755.579 373.289 755.869 373.622 756.079C373.956 756.281 374.341 756.382 374.78 756.382ZM380.11 757.184V747.715H381.215V757.184H380.11ZM386.397 757.342C385.774 757.342 385.222 757.202 384.739 756.921C384.257 756.632 383.876 756.233 383.595 755.724C383.323 755.216 383.188 754.615 383.188 753.922C383.188 753.238 383.323 752.642 383.595 752.134C383.867 751.616 384.244 751.217 384.726 750.937C385.217 750.647 385.783 750.503 386.423 750.503C387.054 750.503 387.598 750.647 388.054 750.937C388.518 751.217 388.874 751.59 389.119 752.055C389.365 752.519 389.487 753.019 389.487 753.554C389.487 753.651 389.483 753.747 389.474 753.843C389.474 753.94 389.474 754.049 389.474 754.172H384.279C384.305 754.672 384.419 755.088 384.621 755.422C384.832 755.746 385.09 755.992 385.397 756.158C385.713 756.325 386.046 756.408 386.397 756.408C386.853 756.408 387.234 756.303 387.541 756.092C387.848 755.882 388.071 755.597 388.212 755.238H389.303C389.128 755.843 388.79 756.347 388.291 756.75C387.8 757.145 387.168 757.342 386.397 757.342ZM386.397 751.437C385.871 751.437 385.401 751.599 384.989 751.923C384.586 752.239 384.354 752.704 384.292 753.317H388.396C388.369 752.73 388.168 752.27 387.791 751.936C387.414 751.603 386.949 751.437 386.397 751.437ZM395.375 757.184V747.978H400.978V748.885H396.48V752.121H400.307V753.015H396.48V757.184H395.375ZM404.494 757.342C403.95 757.342 403.498 757.25 403.139 757.066C402.779 756.882 402.512 756.636 402.337 756.329C402.161 756.022 402.074 755.689 402.074 755.33C402.074 754.663 402.328 754.15 402.836 753.791C403.345 753.431 404.038 753.252 404.914 753.252H406.677V753.173C406.677 752.603 406.528 752.173 406.23 751.884C405.932 751.586 405.533 751.437 405.033 751.437C404.603 751.437 404.231 751.546 403.915 751.765C403.608 751.976 403.415 752.287 403.336 752.699H402.205C402.249 752.226 402.407 751.827 402.679 751.502C402.959 751.178 403.306 750.932 403.718 750.766C404.13 750.59 404.568 750.503 405.033 750.503C405.945 750.503 406.629 750.748 407.085 751.239C407.549 751.722 407.782 752.366 407.782 753.173V757.184H406.795L406.729 756.013C406.545 756.382 406.273 756.697 405.914 756.96C405.563 757.215 405.09 757.342 404.494 757.342ZM404.665 756.408C405.085 756.408 405.445 756.298 405.743 756.079C406.05 755.86 406.282 755.575 406.44 755.224C406.598 754.874 406.677 754.505 406.677 754.12V754.106H405.007C404.358 754.106 403.897 754.22 403.626 754.448C403.363 754.668 403.231 754.944 403.231 755.277C403.231 755.619 403.354 755.895 403.599 756.106C403.854 756.307 404.209 756.408 404.665 756.408ZM409.877 757.184V750.661H410.877L410.969 751.91C411.171 751.48 411.478 751.138 411.89 750.884C412.302 750.63 412.81 750.503 413.415 750.503V751.66H413.113C412.727 751.66 412.372 751.73 412.047 751.871C411.723 752.002 411.464 752.23 411.271 752.555C411.079 752.879 410.982 753.326 410.982 753.896V757.184H409.877ZM415.764 749.214C415.545 749.214 415.361 749.144 415.212 749.003C415.072 748.854 415.002 748.67 415.002 748.451C415.002 748.241 415.072 748.065 415.212 747.925C415.361 747.785 415.545 747.715 415.764 747.715C415.975 747.715 416.155 747.785 416.304 747.925C416.453 748.065 416.527 748.241 416.527 748.451C416.527 748.67 416.453 748.854 416.304 749.003C416.155 749.144 415.975 749.214 415.764 749.214ZM415.212 757.184V750.661H416.317V757.184H415.212ZM418.232 757.184V756.277L421.862 751.581H418.297V750.661H423.098V751.568L419.468 756.263H423.164V757.184H418.232Z" fill="white"/>
<g clip-path="url(#clip2)">
<path d="M240.024 685.685L231.376 686.599L224.68 695.588L240.024 713.455L255.368 695.587L248.672 686.599L240.024 685.685Z" fill="#FDB300"/>
<path d="M224.68 695.587L240.024 713.455L230.895 695.587H224.68Z" fill="#EB6C00"/>
<path d="M249.153 695.587L240.024 713.455L255.368 695.587H249.153Z" fill="#EB6C00"/>
<path d="M230.895 695.587L240.024 713.455L249.153 695.587H230.895Z" fill="#FDAD00"/>
<path d="M231.376 686.599L230.895 695.587L240.024 685.685L231.376 686.599Z" fill="#FDD231"/>
<path d="M249.153 695.587L248.672 686.599L240.024 685.685L249.153 695.587Z" fill="#FDD231"/>
<path d="M249.153 695.587H255.368L248.672 686.599L249.153 695.587Z" fill="#FDAD00"/>
<path d="M224.68 695.587H230.895L231.376 686.599L224.68 695.587Z" fill="#FDAD00"/>
<path d="M240.024 685.685L230.895 695.587H249.153L240.024 685.685Z" fill="#FEEEB7"/>
</g>
<g clip-path="url(#clip3)">
<path d="M379.216 683.827C387.128 683.827 393.529 690.228 393.529 698.128C393.529 706.028 387.128 712.441 379.216 712.441C371.304 712.441 364.903 706.04 364.903 698.14C364.903 690.24 371.304 683.827 379.216 683.827Z" fill="#E74D89"/>
<path d="M379.216 713.46C370.753 713.46 363.872 706.591 363.872 698.14C363.872 689.677 370.753 682.808 379.216 682.808C387.679 682.808 394.56 689.677 394.56 698.128C394.56 706.579 387.679 713.46 379.216 713.46ZM392.151 700.226C391.707 700.082 388.099 699.015 383.987 699.662C385.701 704.362 386.397 708.198 386.528 708.989C389.477 707.011 391.575 703.87 392.151 700.226ZM384.335 710.199C384.143 709.049 383.376 705.045 381.542 700.274C381.518 700.286 381.482 700.298 381.458 700.298C374.061 702.875 371.412 707.994 371.172 708.473C373.39 710.199 376.183 711.23 379.216 711.23C381.026 711.242 382.764 710.871 384.335 710.199ZM369.482 706.903C369.782 706.399 373.378 700.454 380.139 698.26C380.307 698.2 380.487 698.152 380.655 698.104C380.331 697.361 379.971 696.618 379.588 695.886C373.043 697.84 366.689 697.756 366.114 697.744C366.114 697.876 366.102 698.008 366.102 698.14C366.114 701.508 367.384 704.577 369.482 706.903ZM366.389 695.467C366.977 695.479 372.371 695.503 378.509 693.872C376.339 690.012 373.99 686.776 373.654 686.308C369.974 688.035 367.241 691.415 366.389 695.467ZM376.147 685.421C376.507 685.901 378.892 689.137 381.038 693.081C385.701 691.331 387.667 688.694 387.907 688.358C385.593 686.308 382.549 685.062 379.216 685.062C378.161 685.062 377.13 685.193 376.147 685.421ZM389.357 689.869C389.082 690.24 386.888 693.057 382.045 695.035C382.345 695.659 382.644 696.294 382.92 696.929C383.016 697.157 383.112 697.385 383.208 697.601C387.571 697.049 391.899 697.936 392.33 698.02C392.294 694.939 391.192 692.098 389.357 689.869Z" fill="#B2215A"/>
</g>
<g opacity="0.5">
<path fill-rule="evenodd" clip-rule="evenodd" d="M247.721 825.836C248.105 825.836 248.416 826.141 248.416 826.518C248.416 826.895 248.106 827.2 247.721 827.2L246.233 827.201C244.999 827.203 243.994 828.189 243.994 829.401V831.099C243.994 831.475 243.682 831.781 243.298 831.781C242.914 831.781 242.603 831.475 242.603 831.099V829.401C242.603 827.437 244.231 825.839 246.233 825.837L247.72 825.836H247.721ZM254.272 825.836H255.727C257.734 825.836 259.365 827.436 259.365 829.404V831.099C259.365 831.475 259.055 831.781 258.67 831.781C258.287 831.781 257.975 831.475 257.975 831.099V829.404C257.975 828.188 256.967 827.199 255.727 827.199H254.272C253.889 827.199 253.577 826.895 253.577 826.519C253.577 826.142 253.889 825.836 254.272 825.836ZM253.507 829.254H248.462C247.307 829.266 246.379 830.191 246.39 831.324V832.462C246.392 832.594 246.501 832.702 246.636 832.707H255.331C255.467 832.703 255.576 832.595 255.58 832.462V831.324C255.581 830.777 255.366 830.251 254.977 829.86C254.59 829.472 254.06 829.254 253.507 829.254ZM241.633 834.094H260.336C260.719 834.094 261.031 834.399 261.031 834.776C261.031 835.152 260.719 835.457 260.336 835.457H259.366V838.708C259.366 840.676 257.733 842.276 255.728 842.276H254.273C253.888 842.276 253.577 841.971 253.577 841.594C253.577 841.217 253.888 840.912 254.273 840.912H255.728C256.967 840.912 257.975 839.924 257.975 838.708V835.457H255.58V836.362C255.589 837.495 254.662 838.421 253.507 838.432H248.461C247.307 838.421 246.38 837.495 246.389 836.362V835.457H243.993V838.711C243.993 839.923 244.999 840.909 246.235 840.911L247.721 840.912C248.105 840.912 248.417 841.217 248.417 841.594C248.416 841.971 248.105 842.276 247.721 842.276L246.233 842.275C244.232 842.273 242.602 840.675 242.602 838.711V835.457H241.633C241.25 835.457 240.937 835.152 240.937 834.776C240.937 834.399 241.25 834.094 241.633 834.094Z" fill="white"/>
</g>
</g>
<defs>
<filter id="filter0_b" x="17.5361" y="18.632" width="94.256" height="94.256" filterUnits="userSpaceOnUse" color-interpolation-filters="sRGB">
<feFlood flood-opacity="0" result="BackgroundImageFix"/>
<feGaussianBlur in="BackgroundImage" stdDeviation="10.96"/>
<feComposite in2="SourceAlpha" operator="in" result="effect1_backgroundBlur"/>
<feBlend mode="normal" in="SourceGraphic" in2="effect1_backgroundBlur" result="shape"/>
</filter>
<filter id="filter1_d" x="137" y="320.032" width="143.576" height="107.956" filterUnits="userSpaceOnUse" color-interpolation-filters="sRGB">
<feFlood flood-opacity="0" result="BackgroundImageFix"/>
<feColorMatrix in="SourceAlpha" type="matrix" values="0 0 0 0 0 0 0 0 0 0 0 0 0 0 0 0 0 0 127 0"/>
<feOffset dy="8.768"/>
<feGaussianBlur stdDeviation="10.96"/>
<feColorMatrix type="matrix" values="0 0 0 0 1 0 0 0 0 1 0 0 0 0 1 0 0 0 0.12 0"/>
<feBlend mode="normal" in2="BackgroundImageFix" result="effect1_dropShadow"/>
<feBlend mode="normal" in="SourceGraphic" in2="effect1_dropShadow" result="shape"/>
</filter>
<filter id="filter2_d" x="191.252" y="396.204" width="36.168" height="36.168" filterUnits="userSpaceOnUse" color-interpolation-filters="sRGB">
<feFlood flood-opacity="0" result="BackgroundImageFix"/>
<feColorMatrix in="SourceAlpha" type="matrix" values="0 0 0 0 0 0 0 0 0 0 0 0 0 0 0 0 0 0 127 0"/>
<feOffset dy="4.384"/>
<feGaussianBlur stdDeviation="5.48"/>
<feColorMatrix type="matrix" values="0 0 0 0 0 0 0 0 0 0 0 0 0 0 0 0 0 0 0.25 0"/>
<feBlend mode="normal" in2="BackgroundImageFix" result="effect1_dropShadow"/>
<feBlend mode="normal" in="SourceGraphic" in2="effect1_dropShadow" result="shape"/>
</filter>
<radialGradient id="paint0_radial" cx="0" cy="0" r="1" gradientUnits="userSpaceOnUse" gradientTransform="translate(329.896 170.976) rotate(90) scale(16.44)">
<stop stop-color="#FFAB36" stop-opacity="0.16"/>
<stop offset="1" stop-color="#FFAB36" stop-opacity="0"/>
</radialGradient>
<linearGradient id="paint1_linear" x1="205.5" y1="386.314" x2="205.5" y2="581.428" gradientUnits="userSpaceOnUse">
<stop stop-color="#13CAE6" stop-opacity="0.2"/>
<stop offset="1" stop-color="#13CAE6" stop-opacity="0.02"/>
</linearGradient>
<linearGradient id="paint2_linear" x1="371.544" y1="431.824" x2="39.4561" y2="431.824" gradientUnits="userSpaceOnUse">
<stop stop-color="#13CAE6" stop-opacity="0"/>
<stop offset="0.0153263" stop-color="#13CAE6"/>
<stop offset="0.986916" stop-color="#13CAE6"/>
<stop offset="1" stop-color="#13CAE6" stop-opacity="0"/>
</linearGradient>
<linearGradient id="paint3_linear" x1="211.528" y1="346.336" x2="211.528" y2="573.208" gradientUnits="userSpaceOnUse">
<stop stop-color="#13CAE6" stop-opacity="0.05"/>
<stop offset="1" stop-color="#13CAE6" stop-opacity="0.15"/>
</linearGradient>
<clipPath id="clip0">
<rect width="411" height="889.952" rx="38.36" fill="white"/>
</clipPath>
<clipPath id="clip1">
<rect width="30.688" height="30.688" fill="white" transform="translate(85.488 682.808)"/>
</clipPath>
<clipPath id="clip2">
<rect width="30.688" height="30.688" fill="white" transform="translate(224.68 682.808)"/>
</clipPath>
<clipPath id="clip3">
<rect width="30.688" height="30.688" fill="white" transform="translate(363.872 682.808)"/>
</clipPath>
</defs>
</svg>
