<svg width="824" height="769" viewBox="0 0 824 769" fill="none" xmlns="http://www.w3.org/2000/svg">
<rect x="223" y="172" width="477" height="383" rx="30" fill="#12152E"/>
<g opacity="0.4" filter="url(#filter0_f)">
<rect x="454" y="200" width="189.511" height="189.511" rx="28.4267" fill="#13CAE6"/>
</g>
<g filter="url(#filter1_d)">
<rect x="150" y="239" width="488" height="372" rx="30" fill="white"/>
<path d="M215.25 286.42C213.25 285.38 212.25 283.77 212.25 281.59C212.25 280.51 212.52 279.53 213.06 278.65C213.62 277.75 214.45 277.04 215.55 276.52C216.67 275.98 218.03 275.71 219.63 275.71C221.23 275.71 222.58 275.98 223.68 276.52C224.8 277.04 225.63 277.75 226.17 278.65C226.73 279.53 227.01 280.51 227.01 281.59C227.01 282.69 226.74 283.66 226.2 284.5C225.66 285.32 224.94 285.96 224.04 286.42C225.14 286.9 226 287.6 226.62 288.52C227.24 289.44 227.55 290.53 227.55 291.79C227.55 293.15 227.2 294.34 226.5 295.36C225.82 296.36 224.88 297.13 223.68 297.67C222.48 298.21 221.13 298.48 219.63 298.48C218.13 298.48 216.78 298.21 215.58 297.67C214.4 297.13 213.46 296.36 212.76 295.36C212.08 294.34 211.74 293.15 211.74 291.79C211.74 290.53 212.05 289.44 212.67 288.52C213.29 287.58 214.15 286.88 215.25 286.42ZM222.93 282.19C222.93 281.21 222.63 280.45 222.03 279.91C221.45 279.37 220.65 279.1 219.63 279.1C218.63 279.1 217.83 279.37 217.23 279.91C216.65 280.45 216.36 281.22 216.36 282.22C216.36 283.12 216.66 283.84 217.26 284.38C217.88 284.92 218.67 285.19 219.63 285.19C220.59 285.19 221.38 284.92 222 284.38C222.62 283.82 222.93 283.09 222.93 282.19ZM219.63 288.25C218.49 288.25 217.56 288.54 216.84 289.12C216.14 289.7 215.79 290.53 215.79 291.61C215.79 292.61 216.13 293.43 216.81 294.07C217.51 294.69 218.45 295 219.63 295C220.81 295 221.74 294.68 222.42 294.04C223.1 293.4 223.44 292.59 223.44 291.61C223.44 290.55 223.09 289.73 222.39 289.15C221.69 288.55 220.77 288.25 219.63 288.25ZM245.967 279.76H236.247V284.89C236.667 284.37 237.267 283.95 238.047 283.63C238.827 283.29 239.657 283.12 240.537 283.12C242.137 283.12 243.447 283.47 244.467 284.17C245.487 284.87 246.227 285.77 246.687 286.87C247.147 287.95 247.377 289.11 247.377 290.35C247.377 292.65 246.717 294.5 245.397 295.9C244.097 297.3 242.237 298 239.817 298C237.537 298 235.717 297.43 234.357 296.29C232.997 295.15 232.227 293.66 232.047 291.82H236.127C236.307 292.62 236.707 293.26 237.327 293.74C237.967 294.22 238.777 294.46 239.757 294.46C240.937 294.46 241.827 294.09 242.427 293.35C243.027 292.61 243.327 291.63 243.327 290.41C243.327 289.17 243.017 288.23 242.397 287.59C241.797 286.93 240.907 286.6 239.727 286.6C238.887 286.6 238.187 286.81 237.627 287.23C237.067 287.65 236.667 288.21 236.427 288.91H232.407V276.07H245.967V279.76ZM253.314 298.21C252.554 298.21 251.924 297.98 251.424 297.52C250.944 297.04 250.704 296.45 250.704 295.75C250.704 295.05 250.944 294.47 251.424 294.01C251.924 293.53 252.554 293.29 253.314 293.29C254.054 293.29 254.664 293.53 255.144 294.01C255.624 294.47 255.864 295.05 255.864 295.75C255.864 296.45 255.624 297.04 255.144 297.52C254.664 297.98 254.054 298.21 253.314 298.21ZM259.167 286.78C259.167 283.32 259.787 280.61 261.027 278.65C262.287 276.69 264.367 275.71 267.267 275.71C270.167 275.71 272.237 276.69 273.477 278.65C274.737 280.61 275.367 283.32 275.367 286.78C275.367 290.26 274.737 292.99 273.477 294.97C272.237 296.95 270.167 297.94 267.267 297.94C264.367 297.94 262.287 296.95 261.027 294.97C259.787 292.99 259.167 290.26 259.167 286.78ZM271.227 286.78C271.227 285.3 271.127 284.06 270.927 283.06C270.747 282.04 270.367 281.21 269.787 280.57C269.227 279.93 268.387 279.61 267.267 279.61C266.147 279.61 265.297 279.93 264.717 280.57C264.157 281.21 263.777 282.04 263.577 283.06C263.397 284.06 263.307 285.3 263.307 286.78C263.307 288.3 263.397 289.58 263.577 290.62C263.757 291.64 264.137 292.47 264.717 293.11C265.297 293.73 266.147 294.04 267.267 294.04C268.387 294.04 269.237 293.73 269.817 293.11C270.397 292.47 270.777 291.64 270.957 290.62C271.137 289.58 271.227 288.3 271.227 286.78ZM292.881 279.31L284.901 298H280.641L288.681 279.79H278.421V276.19H292.881V279.31ZM295.317 281.5C295.317 279.98 295.757 278.79 296.637 277.93C297.537 277.07 298.687 276.64 300.087 276.64C301.487 276.64 302.627 277.07 303.507 277.93C304.407 278.79 304.857 279.98 304.857 281.5C304.857 283.04 304.407 284.24 303.507 285.1C302.627 285.96 301.487 286.39 300.087 286.39C298.687 286.39 297.537 285.96 296.637 285.1C295.757 284.24 295.317 283.04 295.317 281.5ZM314.577 277L302.787 298H298.707L310.467 277H314.577ZM300.057 279.16C298.957 279.16 298.407 279.94 298.407 281.5C298.407 283.08 298.957 283.87 300.057 283.87C300.597 283.87 301.017 283.68 301.317 283.3C301.617 282.9 301.767 282.3 301.767 281.5C301.767 279.94 301.197 279.16 300.057 279.16ZM308.487 293.47C308.487 291.93 308.927 290.74 309.807 289.9C310.707 289.04 311.857 288.61 313.257 288.61C314.657 288.61 315.787 289.04 316.647 289.9C317.527 290.74 317.967 291.93 317.967 293.47C317.967 295.01 317.527 296.21 316.647 297.07C315.787 297.93 314.657 298.36 313.257 298.36C311.837 298.36 310.687 297.93 309.807 297.07C308.927 296.21 308.487 295.01 308.487 293.47ZM313.227 291.13C312.087 291.13 311.517 291.91 311.517 293.47C311.517 295.05 312.087 295.84 313.227 295.84C314.347 295.84 314.907 295.05 314.907 293.47C314.907 291.91 314.347 291.13 313.227 291.13Z" fill="#12152E"/>
<path opacity="0.7" d="M210.516 318.812C210.516 317.996 210.7 317.264 211.068 316.616C211.436 315.96 211.936 315.448 212.568 315.08C213.208 314.712 213.916 314.528 214.692 314.528C215.604 314.528 216.4 314.748 217.08 315.188C217.76 315.628 218.256 316.252 218.568 317.06H217.26C217.028 316.556 216.692 316.168 216.252 315.896C215.82 315.624 215.3 315.488 214.692 315.488C214.108 315.488 213.584 315.624 213.12 315.896C212.656 316.168 212.292 316.556 212.028 317.06C211.764 317.556 211.632 318.14 211.632 318.812C211.632 319.476 211.764 320.06 212.028 320.564C212.292 321.06 212.656 321.444 213.12 321.716C213.584 321.988 214.108 322.124 214.692 322.124C215.3 322.124 215.82 321.992 216.252 321.728C216.692 321.456 217.028 321.068 217.26 320.564H218.568C218.256 321.364 217.76 321.984 217.08 322.424C216.4 322.856 215.604 323.072 214.692 323.072C213.916 323.072 213.208 322.892 212.568 322.532C211.936 322.164 211.436 321.656 211.068 321.008C210.7 320.36 210.516 319.628 210.516 318.812ZM223.858 316.304C224.354 316.304 224.802 316.412 225.202 316.628C225.602 316.836 225.914 317.152 226.138 317.576C226.37 318 226.486 318.516 226.486 319.124V323H225.406V319.28C225.406 318.624 225.242 318.124 224.914 317.78C224.586 317.428 224.138 317.252 223.57 317.252C222.994 317.252 222.534 317.432 222.19 317.792C221.854 318.152 221.686 318.676 221.686 319.364V323H220.594V314.12H221.686V317.36C221.902 317.024 222.198 316.764 222.574 316.58C222.958 316.396 223.386 316.304 223.858 316.304ZM228.261 319.688C228.261 319.016 228.397 318.428 228.669 317.924C228.941 317.412 229.313 317.016 229.785 316.736C230.265 316.456 230.797 316.316 231.381 316.316C231.957 316.316 232.457 316.44 232.881 316.688C233.305 316.936 233.621 317.248 233.829 317.624V316.424H234.933V323H233.829V321.776C233.613 322.16 233.289 322.48 232.857 322.736C232.433 322.984 231.937 323.108 231.369 323.108C230.785 323.108 230.257 322.964 229.785 322.676C229.313 322.388 228.941 321.984 228.669 321.464C228.397 320.944 228.261 320.352 228.261 319.688ZM233.829 319.7C233.829 319.204 233.729 318.772 233.529 318.404C233.329 318.036 233.057 317.756 232.713 317.564C232.377 317.364 232.005 317.264 231.597 317.264C231.189 317.264 230.817 317.36 230.481 317.552C230.145 317.744 229.877 318.024 229.677 318.392C229.477 318.76 229.377 319.192 229.377 319.688C229.377 320.192 229.477 320.632 229.677 321.008C229.877 321.376 230.145 321.66 230.481 321.86C230.817 322.052 231.189 322.148 231.597 322.148C232.005 322.148 232.377 322.052 232.713 321.86C233.057 321.66 233.329 321.376 233.529 321.008C233.729 320.632 233.829 320.196 233.829 319.7ZM237.743 315.356C237.535 315.356 237.359 315.284 237.215 315.14C237.071 314.996 236.999 314.82 236.999 314.612C236.999 314.404 237.071 314.228 237.215 314.084C237.359 313.94 237.535 313.868 237.743 313.868C237.943 313.868 238.111 313.94 238.247 314.084C238.391 314.228 238.463 314.404 238.463 314.612C238.463 314.82 238.391 314.996 238.247 315.14C238.111 315.284 237.943 315.356 237.743 315.356ZM238.271 316.424V323H237.179V316.424H238.271ZM243.736 316.304C244.536 316.304 245.184 316.548 245.68 317.036C246.176 317.516 246.424 318.212 246.424 319.124V323H245.344V319.28C245.344 318.624 245.18 318.124 244.852 317.78C244.524 317.428 244.076 317.252 243.508 317.252C242.932 317.252 242.472 317.432 242.128 317.792C241.792 318.152 241.624 318.676 241.624 319.364V323H240.532V316.424H241.624V317.36C241.84 317.024 242.132 316.764 242.5 316.58C242.876 316.396 243.288 316.304 243.736 316.304ZM253.299 317.492C253.491 317.116 253.763 316.824 254.115 316.616C254.475 316.408 254.911 316.304 255.423 316.304V317.432H255.135C253.911 317.432 253.299 318.096 253.299 319.424V323H252.207V316.424H253.299V317.492ZM256.675 319.688C256.675 319.016 256.811 318.428 257.083 317.924C257.355 317.412 257.727 317.016 258.199 316.736C258.679 316.456 259.211 316.316 259.795 316.316C260.371 316.316 260.871 316.44 261.295 316.688C261.719 316.936 262.035 317.248 262.243 317.624V316.424H263.347V323H262.243V321.776C262.027 322.16 261.703 322.48 261.271 322.736C260.847 322.984 260.351 323.108 259.783 323.108C259.199 323.108 258.671 322.964 258.199 322.676C257.727 322.388 257.355 321.984 257.083 321.464C256.811 320.944 256.675 320.352 256.675 319.688ZM262.243 319.7C262.243 319.204 262.143 318.772 261.943 318.404C261.743 318.036 261.471 317.756 261.127 317.564C260.791 317.364 260.419 317.264 260.011 317.264C259.603 317.264 259.231 317.36 258.895 317.552C258.559 317.744 258.291 318.024 258.091 318.392C257.891 318.76 257.791 319.192 257.791 319.688C257.791 320.192 257.891 320.632 258.091 321.008C258.291 321.376 258.559 321.66 258.895 321.86C259.231 322.052 259.603 322.148 260.011 322.148C260.419 322.148 260.791 322.052 261.127 321.86C261.471 321.66 261.743 321.376 261.943 321.008C262.143 320.632 262.243 320.196 262.243 319.7ZM266.925 317.324V321.2C266.925 321.52 266.993 321.748 267.129 321.884C267.265 322.012 267.501 322.076 267.837 322.076H268.641V323H267.657C267.049 323 266.593 322.86 266.289 322.58C265.985 322.3 265.833 321.84 265.833 321.2V317.324H264.981V316.424H265.833V314.768H266.925V316.424H268.641V317.324H266.925ZM270.928 315.356C270.72 315.356 270.544 315.284 270.4 315.14C270.256 314.996 270.184 314.82 270.184 314.612C270.184 314.404 270.256 314.228 270.4 314.084C270.544 313.94 270.72 313.868 270.928 313.868C271.128 313.868 271.296 313.94 271.432 314.084C271.576 314.228 271.648 314.404 271.648 314.612C271.648 314.82 271.576 314.996 271.432 315.14C271.296 315.284 271.128 315.356 270.928 315.356ZM271.456 316.424V323H270.364V316.424H271.456ZM276.585 323.108C275.969 323.108 275.409 322.968 274.905 322.688C274.409 322.408 274.017 322.012 273.729 321.5C273.449 320.98 273.309 320.38 273.309 319.7C273.309 319.028 273.453 318.436 273.741 317.924C274.037 317.404 274.437 317.008 274.941 316.736C275.445 316.456 276.009 316.316 276.633 316.316C277.257 316.316 277.821 316.456 278.325 316.736C278.829 317.008 279.225 317.4 279.513 317.912C279.809 318.424 279.957 319.02 279.957 319.7C279.957 320.38 279.805 320.98 279.501 321.5C279.205 322.012 278.801 322.408 278.289 322.688C277.777 322.968 277.209 323.108 276.585 323.108ZM276.585 322.148C276.977 322.148 277.345 322.056 277.689 321.872C278.033 321.688 278.309 321.412 278.517 321.044C278.733 320.676 278.841 320.228 278.841 319.7C278.841 319.172 278.737 318.724 278.529 318.356C278.321 317.988 278.049 317.716 277.713 317.54C277.377 317.356 277.013 317.264 276.621 317.264C276.221 317.264 275.853 317.356 275.517 317.54C275.189 317.716 274.925 317.988 274.725 318.356C274.525 318.724 274.425 319.172 274.425 319.7C274.425 320.236 274.521 320.688 274.713 321.056C274.913 321.424 275.177 321.7 275.505 321.884C275.833 322.06 276.193 322.148 276.585 322.148Z" fill="#12152E"/>
<circle cx="525" cy="293" r="4" fill="#13CAE6"/>
<path opacity="0.7" d="M540.372 288.432L537 297H538.056L538.968 294.6H542.904L543.816 297H544.884L541.512 288.432H540.372ZM539.28 293.772L540.924 289.488H540.972L542.592 293.772H539.28ZM547.687 288.792L546.739 289.188V290.796H545.491V291.6H546.739V295.548C546.739 296.016 546.835 296.364 547.039 296.604C547.255 296.868 547.627 297 548.131 297H549.067V296.196H548.275C548.059 296.196 547.903 296.136 547.819 296.04C547.723 295.944 547.687 295.776 547.687 295.548V291.6H549.223V290.796H547.687V288.792ZM550.888 288.264V297H551.836V288.264H550.888ZM556.621 290.628C555.877 290.628 555.289 290.772 554.833 291.06C554.329 291.372 554.005 291.864 553.873 292.512L554.821 292.584C554.917 292.188 555.121 291.888 555.445 291.696C555.733 291.504 556.105 291.42 556.561 291.42C557.641 291.42 558.181 291.936 558.181 292.98V293.304L556.693 293.328C555.757 293.34 555.037 293.52 554.533 293.856C553.957 294.216 553.681 294.744 553.681 295.452C553.681 295.956 553.873 296.376 554.257 296.7C554.629 297.012 555.121 297.168 555.745 297.168C556.321 297.168 556.837 297.036 557.293 296.784C557.677 296.568 558.001 296.292 558.241 295.956V297H559.141V293.016C559.141 292.296 558.949 291.732 558.589 291.324C558.157 290.856 557.509 290.628 556.621 290.628ZM558.181 294.024V294.552C558.181 295.032 557.953 295.464 557.509 295.836C557.053 296.22 556.537 296.412 555.949 296.412C555.565 296.412 555.253 296.316 555.013 296.136C554.773 295.944 554.665 295.716 554.665 295.428C554.665 294.528 555.361 294.072 556.753 294.048L558.181 294.024ZM563.928 290.628C563.52 290.628 563.148 290.724 562.812 290.916C562.476 291.096 562.2 291.36 561.984 291.708V290.796H561.024V297H561.984V293.256C562.02 292.692 562.2 292.248 562.536 291.912C562.848 291.6 563.22 291.444 563.652 291.444C564.732 291.444 565.284 292.044 565.284 293.256V297H566.244V293.184C566.244 291.48 565.464 290.628 563.928 290.628ZM569.783 288.792L568.835 289.188V290.796H567.587V291.6H568.835V295.548C568.835 296.016 568.931 296.364 569.135 296.604C569.351 296.868 569.723 297 570.227 297H571.163V296.196H570.371C570.155 296.196 569.999 296.136 569.915 296.04C569.819 295.944 569.783 295.776 569.783 295.548V291.6H571.319V290.796H569.783V288.792ZM575.492 290.628C574.748 290.628 574.16 290.772 573.704 291.06C573.2 291.372 572.876 291.864 572.744 292.512L573.692 292.584C573.788 292.188 573.992 291.888 574.316 291.696C574.604 291.504 574.976 291.42 575.432 291.42C576.512 291.42 577.052 291.936 577.052 292.98V293.304L575.564 293.328C574.628 293.34 573.908 293.52 573.404 293.856C572.828 294.216 572.552 294.744 572.552 295.452C572.552 295.956 572.744 296.376 573.128 296.7C573.5 297.012 573.992 297.168 574.616 297.168C575.192 297.168 575.708 297.036 576.164 296.784C576.548 296.568 576.872 296.292 577.112 295.956V297H578.012V293.016C578.012 292.296 577.82 291.732 577.46 291.324C577.028 290.856 576.38 290.628 575.492 290.628ZM577.052 294.024V294.552C577.052 295.032 576.824 295.464 576.38 295.836C575.924 296.22 575.408 296.412 574.82 296.412C574.436 296.412 574.124 296.316 573.884 296.136C573.644 295.944 573.536 295.716 573.536 295.428C573.536 294.528 574.232 294.072 575.624 294.048L577.052 294.024Z" fill="#12152E"/>
<circle cx="525" cy="313" r="4" fill="#FFAB36"/>
<path opacity="0.7" d="M542.112 312.692C542.416 312.74 542.692 312.864 542.94 313.064C543.196 313.264 543.396 313.512 543.54 313.808C543.692 314.104 543.768 314.42 543.768 314.756C543.768 315.18 543.66 315.564 543.444 315.908C543.228 316.244 542.912 316.512 542.496 316.712C542.088 316.904 541.604 317 541.044 317H537.924V308.636H540.924C541.492 308.636 541.976 308.732 542.376 308.924C542.776 309.108 543.076 309.36 543.276 309.68C543.476 310 543.576 310.36 543.576 310.76C543.576 311.256 543.44 311.668 543.168 311.996C542.904 312.316 542.552 312.548 542.112 312.692ZM539.016 312.248H540.852C541.364 312.248 541.76 312.128 542.04 311.888C542.32 311.648 542.46 311.316 542.46 310.892C542.46 310.468 542.32 310.136 542.04 309.896C541.76 309.656 541.356 309.536 540.828 309.536H539.016V312.248ZM540.948 316.1C541.492 316.1 541.916 315.972 542.22 315.716C542.524 315.46 542.676 315.104 542.676 314.648C542.676 314.184 542.516 313.82 542.196 313.556C541.876 313.284 541.448 313.148 540.912 313.148H539.016V316.1H540.948ZM545.275 313.688C545.275 313.016 545.411 312.428 545.683 311.924C545.955 311.412 546.327 311.016 546.799 310.736C547.279 310.456 547.811 310.316 548.395 310.316C548.971 310.316 549.471 310.44 549.895 310.688C550.319 310.936 550.635 311.248 550.843 311.624V310.424H551.947V317H550.843V315.776C550.627 316.16 550.303 316.48 549.871 316.736C549.447 316.984 548.951 317.108 548.383 317.108C547.799 317.108 547.271 316.964 546.799 316.676C546.327 316.388 545.955 315.984 545.683 315.464C545.411 314.944 545.275 314.352 545.275 313.688ZM550.843 313.7C550.843 313.204 550.743 312.772 550.543 312.404C550.343 312.036 550.071 311.756 549.727 311.564C549.391 311.364 549.019 311.264 548.611 311.264C548.203 311.264 547.831 311.36 547.495 311.552C547.159 311.744 546.891 312.024 546.691 312.392C546.491 312.76 546.391 313.192 546.391 313.688C546.391 314.192 546.491 314.632 546.691 315.008C546.891 315.376 547.159 315.66 547.495 315.86C547.831 316.052 548.203 316.148 548.611 316.148C549.019 316.148 549.391 316.052 549.727 315.86C550.071 315.66 550.343 315.376 550.543 315.008C550.743 314.632 550.843 314.196 550.843 313.7ZM555.285 308.12V317H554.193V308.12H555.285ZM558.878 311.324V315.2C558.878 315.52 558.946 315.748 559.082 315.884C559.218 316.012 559.454 316.076 559.79 316.076H560.594V317H559.61C559.002 317 558.546 316.86 558.242 316.58C557.938 316.3 557.786 315.84 557.786 315.2V311.324H556.934V310.424H557.786V308.768H558.878V310.424H560.594V311.324H558.878ZM562.881 309.356C562.673 309.356 562.497 309.284 562.353 309.14C562.209 308.996 562.137 308.82 562.137 308.612C562.137 308.404 562.209 308.228 562.353 308.084C562.497 307.94 562.673 307.868 562.881 307.868C563.081 307.868 563.249 307.94 563.385 308.084C563.529 308.228 563.601 308.404 563.601 308.612C563.601 308.82 563.529 308.996 563.385 309.14C563.249 309.284 563.081 309.356 562.881 309.356ZM563.409 310.424V317H562.317V310.424H563.409ZM573.578 310.304C574.09 310.304 574.546 310.412 574.946 310.628C575.346 310.836 575.662 311.152 575.894 311.576C576.126 312 576.242 312.516 576.242 313.124V317H575.162V313.28C575.162 312.624 574.998 312.124 574.67 311.78C574.35 311.428 573.914 311.252 573.362 311.252C572.794 311.252 572.342 311.436 572.006 311.804C571.67 312.164 571.502 312.688 571.502 313.376V317H570.422V313.28C570.422 312.624 570.258 312.124 569.93 311.78C569.61 311.428 569.174 311.252 568.622 311.252C568.054 311.252 567.602 311.436 567.266 311.804C566.93 312.164 566.762 312.688 566.762 313.376V317H565.67V310.424H566.762V311.372C566.978 311.028 567.266 310.764 567.626 310.58C567.994 310.396 568.398 310.304 568.838 310.304C569.39 310.304 569.878 310.428 570.302 310.676C570.726 310.924 571.042 311.288 571.25 311.768C571.434 311.304 571.738 310.944 572.162 310.688C572.586 310.432 573.058 310.304 573.578 310.304ZM581.301 317.108C580.685 317.108 580.125 316.968 579.621 316.688C579.125 316.408 578.733 316.012 578.445 315.5C578.165 314.98 578.025 314.38 578.025 313.7C578.025 313.028 578.169 312.436 578.457 311.924C578.753 311.404 579.153 311.008 579.657 310.736C580.161 310.456 580.725 310.316 581.349 310.316C581.973 310.316 582.537 310.456 583.041 310.736C583.545 311.008 583.941 311.4 584.229 311.912C584.525 312.424 584.673 313.02 584.673 313.7C584.673 314.38 584.521 314.98 584.217 315.5C583.921 316.012 583.517 316.408 583.005 316.688C582.493 316.968 581.925 317.108 581.301 317.108ZM581.301 316.148C581.693 316.148 582.061 316.056 582.405 315.872C582.749 315.688 583.025 315.412 583.233 315.044C583.449 314.676 583.557 314.228 583.557 313.7C583.557 313.172 583.453 312.724 583.245 312.356C583.037 311.988 582.765 311.716 582.429 311.54C582.093 311.356 581.729 311.264 581.337 311.264C580.937 311.264 580.569 311.356 580.233 311.54C579.905 311.716 579.641 311.988 579.441 312.356C579.241 312.724 579.141 313.172 579.141 313.7C579.141 314.236 579.237 314.688 579.429 315.056C579.629 315.424 579.893 315.7 580.221 315.884C580.549 316.06 580.909 316.148 581.301 316.148ZM587.601 311.492C587.793 311.116 588.065 310.824 588.417 310.616C588.777 310.408 589.213 310.304 589.725 310.304V311.432H589.437C588.213 311.432 587.601 312.096 587.601 313.424V317H586.509V310.424H587.601V311.492ZM597.386 313.46C597.386 313.668 597.374 313.888 597.35 314.12H592.094C592.134 314.768 592.354 315.276 592.754 315.644C593.162 316.004 593.654 316.184 594.23 316.184C594.702 316.184 595.094 316.076 595.406 315.86C595.726 315.636 595.95 315.34 596.078 314.972H597.254C597.078 315.604 596.726 316.12 596.198 316.52C595.67 316.912 595.014 317.108 594.23 317.108C593.606 317.108 593.046 316.968 592.55 316.688C592.062 316.408 591.678 316.012 591.398 315.5C591.118 314.98 590.978 314.38 590.978 313.7C590.978 313.02 591.114 312.424 591.386 311.912C591.658 311.4 592.038 311.008 592.526 310.736C593.022 310.456 593.59 310.316 594.23 310.316C594.854 310.316 595.406 310.452 595.886 310.724C596.366 310.996 596.734 311.372 596.99 311.852C597.254 312.324 597.386 312.86 597.386 313.46ZM596.258 313.232C596.258 312.816 596.166 312.46 595.982 312.164C595.798 311.86 595.546 311.632 595.226 311.48C594.914 311.32 594.566 311.24 594.182 311.24C593.63 311.24 593.158 311.416 592.766 311.768C592.382 312.12 592.162 312.608 592.106 313.232H596.258Z" fill="#12152E"/>
<path opacity="0.7" d="M193.636 470.933L198.928 470.933C199.672 470.933 200.224 470.753 200.584 470.393C200.944 470.025 201.124 469.517 201.124 468.869C201.124 468.229 200.944 467.729 200.584 467.369C200.224 467.001 199.672 466.817 198.928 466.817L193.636 466.817L193.636 465.725L198.916 465.725C199.612 465.725 200.2 465.865 200.68 466.145C201.152 466.425 201.504 466.805 201.736 467.285C201.968 467.757 202.084 468.289 202.084 468.881C202.084 469.473 201.968 470.009 201.736 470.489C201.504 470.961 201.152 471.337 200.68 471.617C200.2 471.889 199.612 472.025 198.916 472.025L193.636 472.025L193.636 470.933ZM202.084 460.851C202.084 461.403 201.988 461.899 201.796 462.339C201.596 462.771 201.324 463.111 200.98 463.359C200.628 463.607 200.224 463.735 199.768 463.743L199.768 462.579C200.16 462.539 200.492 462.379 200.764 462.099C201.028 461.811 201.16 461.395 201.16 460.851C201.16 460.331 201.032 459.923 200.776 459.627C200.512 459.323 200.176 459.171 199.768 459.171C199.448 459.171 199.188 459.259 198.988 459.435C198.788 459.611 198.636 459.831 198.532 460.095C198.428 460.359 198.316 460.715 198.196 461.163C198.052 461.715 197.908 462.159 197.764 462.495C197.62 462.823 197.396 463.107 197.092 463.347C196.78 463.579 196.364 463.695 195.844 463.695C195.388 463.695 194.984 463.579 194.632 463.347C194.28 463.115 194.008 462.791 193.816 462.375C193.624 461.951 193.528 461.467 193.528 460.923C193.528 460.139 193.724 459.499 194.116 459.003C194.508 458.499 195.028 458.215 195.676 458.151L195.676 459.351C195.356 459.391 195.076 459.559 194.836 459.855C194.588 460.151 194.464 460.543 194.464 461.031C194.464 461.487 194.584 461.859 194.824 462.147C195.056 462.435 195.384 462.579 195.808 462.579C196.112 462.579 196.36 462.495 196.552 462.327C196.744 462.151 196.892 461.939 196.996 461.691C197.092 461.435 197.204 461.079 197.332 460.623C197.484 460.071 197.636 459.627 197.788 459.291C197.932 458.955 198.16 458.667 198.472 458.427C198.776 458.187 199.192 458.067 199.72 458.067C200.128 458.067 200.512 458.175 200.872 458.391C201.232 458.607 201.524 458.927 201.748 459.351C201.972 459.775 202.084 460.275 202.084 460.851ZM193.636 453.456C193.636 452.544 193.808 451.756 194.152 451.092C194.488 450.42 194.972 449.908 195.604 449.556C196.236 449.196 196.98 449.016 197.836 449.016C198.692 449.016 199.436 449.196 200.068 449.556C200.692 449.908 201.172 450.42 201.508 451.092C201.836 451.756 202 452.544 202 453.456L202 456.06L193.636 456.06L193.636 453.456ZM201.1 453.456C201.1 452.376 200.816 451.552 200.248 450.984C199.672 450.416 198.868 450.132 197.836 450.132C196.796 450.132 195.984 450.42 195.4 450.996C194.816 451.564 194.524 452.384 194.524 453.456L194.524 454.968L201.1 454.968L201.1 453.456Z" fill="#12152E"/>
<path opacity="0.7" d="M211.066 355.82V354.824H213.322V363.5H212.218V355.82H211.066ZM215.466 362.624C216.482 361.808 217.278 361.14 217.854 360.62C218.43 360.092 218.914 359.544 219.306 358.976C219.706 358.4 219.906 357.836 219.906 357.284C219.906 356.764 219.778 356.356 219.522 356.06C219.274 355.756 218.87 355.604 218.31 355.604C217.766 355.604 217.342 355.776 217.038 356.12C216.742 356.456 216.582 356.908 216.558 357.476H215.502C215.534 356.58 215.806 355.888 216.318 355.4C216.83 354.912 217.49 354.668 218.298 354.668C219.122 354.668 219.774 354.896 220.254 355.352C220.742 355.808 220.986 356.436 220.986 357.236C220.986 357.9 220.786 358.548 220.386 359.18C219.994 359.804 219.546 360.356 219.042 360.836C218.538 361.308 217.894 361.86 217.11 362.492H221.238V363.404H215.466V362.624ZM231.84 356.924L229.788 363.5H228.66L227.076 358.28L225.492 363.5H224.364L222.3 356.924H223.416L224.928 362.444L226.56 356.924H227.676L229.272 362.456L230.76 356.924H231.84Z" fill="#12152E"/>
<path fill-rule="evenodd" clip-rule="evenodd" d="M598 360H240V359H598V360Z" fill="#1C1854" fill-opacity="0.08"/>
<path opacity="0.7" d="M216.514 421.321C216.066 421.145 215.722 420.889 215.482 420.553C215.242 420.217 215.122 419.809 215.122 419.329C215.122 418.897 215.23 418.509 215.446 418.165C215.662 417.813 215.982 417.537 216.406 417.337C216.838 417.129 217.358 417.025 217.966 417.025C218.574 417.025 219.09 417.129 219.514 417.337C219.946 417.537 220.27 417.813 220.486 418.165C220.71 418.509 220.822 418.897 220.822 419.329C220.822 419.793 220.698 420.201 220.45 420.553C220.202 420.897 219.862 421.153 219.43 421.321C219.926 421.473 220.318 421.741 220.606 422.125C220.902 422.501 221.05 422.957 221.05 423.493C221.05 424.013 220.922 424.469 220.666 424.861C220.41 425.245 220.046 425.545 219.574 425.761C219.11 425.969 218.574 426.073 217.966 426.073C217.358 426.073 216.822 425.969 216.358 425.761C215.902 425.545 215.546 425.245 215.29 424.861C215.034 424.469 214.906 424.013 214.906 423.493C214.906 422.957 215.05 422.497 215.338 422.113C215.626 421.729 216.018 421.465 216.514 421.321ZM219.766 419.461C219.766 418.973 219.606 418.597 219.286 418.333C218.966 418.069 218.526 417.937 217.966 417.937C217.414 417.937 216.978 418.069 216.658 418.333C216.338 418.597 216.178 418.977 216.178 419.473C216.178 419.921 216.342 420.281 216.67 420.553C217.006 420.825 217.438 420.961 217.966 420.961C218.502 420.961 218.934 420.825 219.262 420.553C219.598 420.273 219.766 419.909 219.766 419.461ZM217.966 421.801C217.374 421.801 216.89 421.941 216.514 422.221C216.138 422.493 215.95 422.905 215.95 423.457C215.95 423.969 216.13 424.381 216.49 424.693C216.858 425.005 217.35 425.161 217.966 425.161C218.582 425.161 219.07 425.005 219.43 424.693C219.79 424.381 219.97 423.969 219.97 423.457C219.97 422.921 219.786 422.513 219.418 422.233C219.05 421.945 218.566 421.801 217.966 421.801ZM231.84 419.257L229.788 425.833H228.66L227.076 420.613L225.492 425.833H224.364L222.3 419.257H223.416L224.928 424.777L226.56 419.257H227.676L229.272 424.789L230.76 419.257H231.84Z" fill="#12152E"/>
<path fill-rule="evenodd" clip-rule="evenodd" d="M598 422.333H240V421.333H598V422.333Z" fill="#1C1854" fill-opacity="0.08"/>
<path opacity="0.7" d="M214.689 486.235V485.407L218.901 479.575H220.209V485.287H221.409V486.235H220.209V488.167H219.129V486.235H214.689ZM219.177 480.715L215.949 485.287H219.177V480.715ZM231.84 481.591L229.788 488.167H228.66L227.076 482.947L225.492 488.167H224.364L222.3 481.591H223.416L224.928 487.111L226.56 481.591H227.676L229.272 487.123L230.76 481.591H231.84Z" fill="#12152E"/>
<path fill-rule="evenodd" clip-rule="evenodd" d="M598 484.667H240V483.667H598V484.667Z" fill="#1C1854" fill-opacity="0.08"/>
<path opacity="0.7" d="M225.209 546.072C225.209 544.696 225.433 543.624 225.881 542.856C226.329 542.08 227.113 541.692 228.233 541.692C229.345 541.692 230.125 542.08 230.573 542.856C231.021 543.624 231.245 544.696 231.245 546.072C231.245 547.472 231.021 548.56 230.573 549.336C230.125 550.112 229.345 550.5 228.233 550.5C227.113 550.5 226.329 550.112 225.881 549.336C225.433 548.56 225.209 547.472 225.209 546.072ZM230.165 546.072C230.165 545.376 230.117 544.788 230.021 544.308C229.933 543.82 229.745 543.428 229.457 543.132C229.177 542.836 228.769 542.688 228.233 542.688C227.689 542.688 227.273 542.836 226.985 543.132C226.705 543.428 226.517 543.82 226.421 544.308C226.333 544.788 226.289 545.376 226.289 546.072C226.289 546.792 226.333 547.396 226.421 547.884C226.517 548.372 226.705 548.764 226.985 549.06C227.273 549.356 227.689 549.504 228.233 549.504C228.769 549.504 229.177 549.356 229.457 549.06C229.745 548.764 229.933 548.372 230.021 547.884C230.117 547.396 230.165 546.792 230.165 546.072Z" fill="#12152E"/>
<path fill-rule="evenodd" clip-rule="evenodd" d="M598 547H240V546H598V547Z" fill="#1C1854" fill-opacity="0.08"/>
<path opacity="0.7" d="M240.744 562.572C240.744 561.196 240.968 560.124 241.416 559.356C241.864 558.58 242.648 558.192 243.768 558.192C244.88 558.192 245.66 558.58 246.108 559.356C246.556 560.124 246.78 561.196 246.78 562.572C246.78 563.972 246.556 565.06 246.108 565.836C245.66 566.612 244.88 567 243.768 567C242.648 567 241.864 566.612 241.416 565.836C240.968 565.06 240.744 563.972 240.744 562.572ZM245.7 562.572C245.7 561.876 245.652 561.288 245.556 560.808C245.468 560.32 245.28 559.928 244.992 559.632C244.712 559.336 244.304 559.188 243.768 559.188C243.224 559.188 242.808 559.336 242.52 559.632C242.24 559.928 242.052 560.32 241.956 560.808C241.868 561.288 241.824 561.876 241.824 562.572C241.824 563.292 241.868 563.896 241.956 564.384C242.052 564.872 242.24 565.264 242.52 565.56C242.808 565.856 243.224 566.004 243.768 566.004C244.304 566.004 244.712 565.856 244.992 565.56C245.28 565.264 245.468 564.872 245.556 564.384C245.652 563.896 245.7 563.292 245.7 562.572ZM248.679 562.572C248.679 561.196 248.903 560.124 249.351 559.356C249.799 558.58 250.583 558.192 251.703 558.192C252.815 558.192 253.595 558.58 254.043 559.356C254.491 560.124 254.715 561.196 254.715 562.572C254.715 563.972 254.491 565.06 254.043 565.836C253.595 566.612 252.815 567 251.703 567C250.583 567 249.799 566.612 249.351 565.836C248.903 565.06 248.679 563.972 248.679 562.572ZM253.635 562.572C253.635 561.876 253.587 561.288 253.491 560.808C253.403 560.32 253.215 559.928 252.927 559.632C252.647 559.336 252.239 559.188 251.703 559.188C251.159 559.188 250.743 559.336 250.455 559.632C250.175 559.928 249.987 560.32 249.891 560.808C249.803 561.288 249.759 561.876 249.759 562.572C249.759 563.292 249.803 563.896 249.891 564.384C249.987 564.872 250.175 565.264 250.455 565.56C250.743 565.856 251.159 566.004 251.703 566.004C252.239 566.004 252.647 565.856 252.927 565.56C253.215 565.264 253.403 564.872 253.491 564.384C253.587 563.896 253.635 563.292 253.635 562.572Z" fill="#12152E"/>
<path opacity="0.7" d="M285.619 562.572C285.619 561.196 285.843 560.124 286.291 559.356C286.739 558.58 287.523 558.192 288.643 558.192C289.755 558.192 290.535 558.58 290.983 559.356C291.431 560.124 291.655 561.196 291.655 562.572C291.655 563.972 291.431 565.06 290.983 565.836C290.535 566.612 289.755 567 288.643 567C287.523 567 286.739 566.612 286.291 565.836C285.843 565.06 285.619 563.972 285.619 562.572ZM290.575 562.572C290.575 561.876 290.527 561.288 290.431 560.808C290.343 560.32 290.155 559.928 289.867 559.632C289.587 559.336 289.179 559.188 288.643 559.188C288.099 559.188 287.683 559.336 287.395 559.632C287.115 559.928 286.927 560.32 286.831 560.808C286.743 561.288 286.699 561.876 286.699 562.572C286.699 563.292 286.743 563.896 286.831 564.384C286.927 564.872 287.115 565.264 287.395 565.56C287.683 565.856 288.099 566.004 288.643 566.004C289.179 566.004 289.587 565.856 289.867 565.56C290.155 565.264 290.343 564.872 290.431 564.384C290.527 563.896 290.575 563.292 290.575 562.572ZM293.53 560.508C293.586 559.772 293.87 559.196 294.382 558.78C294.894 558.364 295.558 558.156 296.374 558.156C296.918 558.156 297.386 558.256 297.778 558.456C298.178 558.648 298.478 558.912 298.678 559.248C298.886 559.584 298.99 559.964 298.99 560.388C298.99 560.884 298.846 561.312 298.558 561.672C298.278 562.032 297.91 562.264 297.454 562.368V562.428C297.974 562.556 298.386 562.808 298.69 563.184C298.994 563.56 299.146 564.052 299.146 564.66C299.146 565.116 299.042 565.528 298.834 565.896C298.626 566.256 298.314 566.54 297.898 566.748C297.482 566.956 296.982 567.06 296.398 567.06C295.55 567.06 294.854 566.84 294.31 566.4C293.766 565.952 293.462 565.32 293.398 564.504H294.454C294.51 564.984 294.706 565.376 295.042 565.68C295.378 565.984 295.826 566.136 296.386 566.136C296.946 566.136 297.37 565.992 297.658 565.704C297.954 565.408 298.102 565.028 298.102 564.564C298.102 563.964 297.902 563.532 297.502 563.268C297.102 563.004 296.498 562.872 295.69 562.872H295.414V561.96H295.702C296.438 561.952 296.994 561.832 297.37 561.6C297.746 561.36 297.934 560.992 297.934 560.496C297.934 560.072 297.794 559.732 297.514 559.476C297.242 559.22 296.85 559.092 296.338 559.092C295.842 559.092 295.442 559.22 295.138 559.476C294.834 559.732 294.654 560.076 294.598 560.508H293.53Z" fill="#12152E"/>
<path opacity="0.7" d="M330.494 562.572C330.494 561.196 330.718 560.124 331.166 559.356C331.614 558.58 332.398 558.192 333.518 558.192C334.63 558.192 335.41 558.58 335.858 559.356C336.306 560.124 336.53 561.196 336.53 562.572C336.53 563.972 336.306 565.06 335.858 565.836C335.41 566.612 334.63 567 333.518 567C332.398 567 331.614 566.612 331.166 565.836C330.718 565.06 330.494 563.972 330.494 562.572ZM335.45 562.572C335.45 561.876 335.402 561.288 335.306 560.808C335.218 560.32 335.03 559.928 334.742 559.632C334.462 559.336 334.054 559.188 333.518 559.188C332.974 559.188 332.558 559.336 332.27 559.632C331.99 559.928 331.802 560.32 331.706 560.808C331.618 561.288 331.574 561.876 331.574 562.572C331.574 563.292 331.618 563.896 331.706 564.384C331.802 564.872 331.99 565.264 332.27 565.56C332.558 565.856 332.974 566.004 333.518 566.004C334.054 566.004 334.462 565.856 334.742 565.56C335.03 565.264 335.218 564.872 335.306 564.384C335.402 563.896 335.45 563.292 335.45 562.572ZM343.265 560.388C343.089 559.5 342.541 559.056 341.621 559.056C340.909 559.056 340.377 559.332 340.025 559.884C339.673 560.428 339.501 561.328 339.509 562.584C339.693 562.168 339.997 561.844 340.421 561.612C340.853 561.372 341.333 561.252 341.861 561.252C342.685 561.252 343.341 561.508 343.829 562.02C344.325 562.532 344.573 563.24 344.573 564.144C344.573 564.688 344.465 565.176 344.249 565.608C344.041 566.04 343.721 566.384 343.289 566.64C342.865 566.896 342.349 567.024 341.741 567.024C340.917 567.024 340.273 566.84 339.809 566.472C339.345 566.104 339.021 565.596 338.837 564.948C338.653 564.3 338.561 563.5 338.561 562.548C338.561 559.612 339.585 558.144 341.633 558.144C342.417 558.144 343.033 558.356 343.481 558.78C343.929 559.204 344.193 559.74 344.273 560.388H343.265ZM341.633 562.176C341.289 562.176 340.965 562.248 340.661 562.392C340.357 562.528 340.109 562.74 339.917 563.028C339.733 563.308 339.641 563.652 339.641 564.06C339.641 564.668 339.817 565.164 340.169 565.548C340.521 565.924 341.025 566.112 341.681 566.112C342.241 566.112 342.685 565.94 343.013 565.596C343.349 565.244 343.517 564.772 343.517 564.18C343.517 563.556 343.357 563.068 343.037 562.716C342.717 562.356 342.249 562.176 341.633 562.176Z" fill="#12152E"/>
<path opacity="0.7" d="M375.369 562.572C375.369 561.196 375.593 560.124 376.041 559.356C376.489 558.58 377.273 558.192 378.393 558.192C379.505 558.192 380.285 558.58 380.733 559.356C381.181 560.124 381.405 561.196 381.405 562.572C381.405 563.972 381.181 565.06 380.733 565.836C380.285 566.612 379.505 567 378.393 567C377.273 567 376.489 566.612 376.041 565.836C375.593 565.06 375.369 563.972 375.369 562.572ZM380.325 562.572C380.325 561.876 380.277 561.288 380.181 560.808C380.093 560.32 379.905 559.928 379.617 559.632C379.337 559.336 378.929 559.188 378.393 559.188C377.849 559.188 377.433 559.336 377.145 559.632C376.865 559.928 376.677 560.32 376.581 560.808C376.493 561.288 376.449 561.876 376.449 562.572C376.449 563.292 376.493 563.896 376.581 564.384C376.677 564.872 376.865 565.264 377.145 565.56C377.433 565.856 377.849 566.004 378.393 566.004C378.929 566.004 379.337 565.856 379.617 565.56C379.905 565.264 380.093 564.872 380.181 564.384C380.277 563.896 380.325 563.292 380.325 562.572ZM384.708 564.672C384.788 565.128 384.972 565.48 385.26 565.728C385.556 565.976 385.952 566.1 386.448 566.1C387.112 566.1 387.6 565.84 387.912 565.32C388.232 564.8 388.384 563.924 388.368 562.692C388.2 563.052 387.92 563.336 387.528 563.544C387.136 563.744 386.7 563.844 386.22 563.844C385.684 563.844 385.204 563.736 384.78 563.52C384.364 563.296 384.036 562.972 383.796 562.548C383.556 562.124 383.436 561.612 383.436 561.012C383.436 560.156 383.684 559.468 384.18 558.948C384.676 558.42 385.38 558.156 386.292 558.156C387.412 558.156 388.196 558.52 388.644 559.248C389.1 559.976 389.328 561.06 389.328 562.5C389.328 563.508 389.236 564.34 389.052 564.996C388.876 565.652 388.572 566.152 388.14 566.496C387.716 566.84 387.132 567.012 386.388 567.012C385.572 567.012 384.936 566.792 384.48 566.352C384.024 565.912 383.764 565.352 383.7 564.672H384.708ZM386.4 562.92C386.936 562.92 387.376 562.756 387.72 562.428C388.064 562.092 388.236 561.64 388.236 561.072C388.236 560.472 388.068 559.988 387.732 559.62C387.396 559.252 386.924 559.068 386.316 559.068C385.756 559.068 385.308 559.244 384.972 559.596C384.644 559.948 384.48 560.412 384.48 560.988C384.48 561.572 384.644 562.04 384.972 562.392C385.3 562.744 385.776 562.92 386.4 562.92Z" fill="#12152E"/>
<path opacity="0.7" d="M419.956 559.32V558.324H422.212V567H421.108V559.32H419.956ZM424.356 566.124C425.372 565.308 426.168 564.64 426.744 564.12C427.32 563.592 427.804 563.044 428.196 562.476C428.596 561.9 428.796 561.336 428.796 560.784C428.796 560.264 428.668 559.856 428.412 559.56C428.164 559.256 427.76 559.104 427.2 559.104C426.656 559.104 426.232 559.276 425.928 559.62C425.632 559.956 425.472 560.408 425.448 560.976H424.392C424.424 560.08 424.696 559.388 425.208 558.9C425.72 558.412 426.38 558.168 427.188 558.168C428.012 558.168 428.664 558.396 429.144 558.852C429.632 559.308 429.876 559.936 429.876 560.736C429.876 561.4 429.676 562.048 429.276 562.68C428.884 563.304 428.436 563.856 427.932 564.336C427.428 564.808 426.784 565.36 426 565.992H430.128V566.904H424.356V566.124Z" fill="#12152E"/>
<path opacity="0.7" d="M460.831 559.32V558.324H463.087V567H461.983V559.32H460.831ZM470.895 559.272H466.683V562.008C466.867 561.752 467.139 561.544 467.499 561.384C467.859 561.216 468.247 561.132 468.663 561.132C469.327 561.132 469.867 561.272 470.283 561.552C470.699 561.824 470.995 562.18 471.171 562.62C471.355 563.052 471.447 563.512 471.447 564C471.447 564.576 471.339 565.092 471.123 565.548C470.907 566.004 470.575 566.364 470.127 566.628C469.687 566.892 469.139 567.024 468.483 567.024C467.643 567.024 466.963 566.808 466.443 566.376C465.923 565.944 465.607 565.368 465.495 564.648H466.563C466.667 565.104 466.887 565.46 467.223 565.716C467.559 565.972 467.983 566.1 468.495 566.1C469.127 566.1 469.603 565.912 469.923 565.536C470.243 565.152 470.403 564.648 470.403 564.024C470.403 563.4 470.243 562.92 469.923 562.584C469.603 562.24 469.131 562.068 468.507 562.068C468.083 562.068 467.711 562.172 467.391 562.38C467.079 562.58 466.851 562.856 466.707 563.208H465.675V558.312H470.895V559.272Z" fill="#12152E"/>
<path opacity="0.7" d="M501.706 559.32V558.324H503.962V567H502.858V559.32H501.706ZM507.822 562.488C507.374 562.312 507.03 562.056 506.79 561.72C506.55 561.384 506.43 560.976 506.43 560.496C506.43 560.064 506.538 559.676 506.754 559.332C506.97 558.98 507.29 558.704 507.714 558.504C508.146 558.296 508.666 558.192 509.274 558.192C509.882 558.192 510.398 558.296 510.822 558.504C511.254 558.704 511.578 558.98 511.794 559.332C512.018 559.676 512.13 560.064 512.13 560.496C512.13 560.96 512.006 561.368 511.758 561.72C511.51 562.064 511.17 562.32 510.738 562.488C511.234 562.64 511.626 562.908 511.914 563.292C512.21 563.668 512.358 564.124 512.358 564.66C512.358 565.18 512.23 565.636 511.974 566.028C511.718 566.412 511.354 566.712 510.882 566.928C510.418 567.136 509.882 567.24 509.274 567.24C508.666 567.24 508.13 567.136 507.666 566.928C507.21 566.712 506.854 566.412 506.598 566.028C506.342 565.636 506.214 565.18 506.214 564.66C506.214 564.124 506.358 563.664 506.646 563.28C506.934 562.896 507.326 562.632 507.822 562.488ZM511.074 560.628C511.074 560.14 510.914 559.764 510.594 559.5C510.274 559.236 509.834 559.104 509.274 559.104C508.722 559.104 508.286 559.236 507.966 559.5C507.646 559.764 507.486 560.144 507.486 560.64C507.486 561.088 507.65 561.448 507.978 561.72C508.314 561.992 508.746 562.128 509.274 562.128C509.81 562.128 510.242 561.992 510.57 561.72C510.906 561.44 511.074 561.076 511.074 560.628ZM509.274 562.968C508.682 562.968 508.198 563.108 507.822 563.388C507.446 563.66 507.258 564.072 507.258 564.624C507.258 565.136 507.438 565.548 507.798 565.86C508.166 566.172 508.658 566.328 509.274 566.328C509.89 566.328 510.378 566.172 510.738 565.86C511.098 565.548 511.278 565.136 511.278 564.624C511.278 564.088 511.094 563.68 510.726 563.4C510.358 563.112 509.874 562.968 509.274 562.968Z" fill="#12152E"/>
<path opacity="0.7" d="M542.737 566.124C543.753 565.308 544.549 564.64 545.125 564.12C545.701 563.592 546.185 563.044 546.577 562.476C546.977 561.9 547.177 561.336 547.177 560.784C547.177 560.264 547.049 559.856 546.793 559.56C546.545 559.256 546.141 559.104 545.581 559.104C545.037 559.104 544.613 559.276 544.309 559.62C544.013 559.956 543.853 560.408 543.829 560.976H542.773C542.805 560.08 543.077 559.388 543.589 558.9C544.101 558.412 544.761 558.168 545.569 558.168C546.393 558.168 547.045 558.396 547.525 558.852C548.013 559.308 548.257 559.936 548.257 560.736C548.257 561.4 548.057 562.048 547.657 562.68C547.265 563.304 546.817 563.856 546.313 564.336C545.809 564.808 545.165 565.36 544.381 565.992H548.509V566.904H542.737V566.124ZM549.883 559.32V558.324H552.139V567H551.035V559.32H549.883Z" fill="#12152E"/>
<path opacity="0.7" d="M583.612 566.124C584.628 565.308 585.424 564.64 586 564.12C586.576 563.592 587.06 563.044 587.452 562.476C587.852 561.9 588.052 561.336 588.052 560.784C588.052 560.264 587.924 559.856 587.668 559.56C587.42 559.256 587.016 559.104 586.456 559.104C585.912 559.104 585.488 559.276 585.184 559.62C584.888 559.956 584.728 560.408 584.704 560.976H583.648C583.68 560.08 583.952 559.388 584.464 558.9C584.976 558.412 585.636 558.168 586.444 558.168C587.268 558.168 587.92 558.396 588.4 558.852C588.888 559.308 589.132 559.936 589.132 560.736C589.132 561.4 588.932 562.048 588.532 562.68C588.14 563.304 587.692 563.856 587.188 564.336C586.684 564.808 586.04 565.36 585.256 565.992H589.384V566.904H583.612V566.124ZM591.022 560.508C591.078 559.772 591.362 559.196 591.874 558.78C592.386 558.364 593.05 558.156 593.866 558.156C594.41 558.156 594.878 558.256 595.27 558.456C595.67 558.648 595.97 558.912 596.17 559.248C596.378 559.584 596.482 559.964 596.482 560.388C596.482 560.884 596.338 561.312 596.05 561.672C595.77 562.032 595.402 562.264 594.946 562.368V562.428C595.466 562.556 595.878 562.808 596.182 563.184C596.486 563.56 596.638 564.052 596.638 564.66C596.638 565.116 596.534 565.528 596.326 565.896C596.118 566.256 595.806 566.54 595.39 566.748C594.974 566.956 594.474 567.06 593.89 567.06C593.042 567.06 592.346 566.84 591.802 566.4C591.258 565.952 590.954 565.32 590.89 564.504H591.946C592.002 564.984 592.198 565.376 592.534 565.68C592.87 565.984 593.318 566.136 593.878 566.136C594.438 566.136 594.862 565.992 595.15 565.704C595.446 565.408 595.594 565.028 595.594 564.564C595.594 563.964 595.394 563.532 594.994 563.268C594.594 563.004 593.99 562.872 593.182 562.872H592.906V561.96H593.194C593.93 561.952 594.486 561.832 594.862 561.6C595.238 561.36 595.426 560.992 595.426 560.496C595.426 560.072 595.286 559.732 595.006 559.476C594.734 559.22 594.342 559.092 593.83 559.092C593.334 559.092 592.934 559.22 592.63 559.476C592.326 559.732 592.146 560.076 592.09 560.508H591.022Z" fill="#12152E"/>
<path d="M241 370.186L256.624 382.948L271.969 403.216L287.313 448.257L302.937 509.814L318.282 544.345L333.906 557.107L349.53 550.351L364.875 539.09L380.498 521.825L395.843 517.32L411.467 506.06L426.812 494.049L442.436 492.548L457.781 479.035L473.125 459.518L488.749 470.778L504.094 459.518L519.718 451.26L535.063 444.504L550.687 415.978L566.031 388.953L581.655 382.197L597 373.189" stroke="#13CAE6" stroke-width="2" stroke-linecap="round" stroke-linejoin="round"/>
<path d="M241 370.186L256.624 382.948L271.969 403.216L287.313 448.257L302.937 509.814L318.282 544.345L333.906 557.107L349.53 550.351L364.875 539.09L380.498 521.825L395.843 517.32L411.467 506.06L426.812 494.049L442.436 492.548L457.781 479.035L473.125 459.518L488.749 470.778L504.094 459.518L519.718 451.26L535.063 444.504L550.686 415.978L566.031 388.953L581.655 382.197L597 373.189" stroke="#13CAE6" stroke-width="6" stroke-linecap="round" stroke-linejoin="round" stroke-dasharray="0.01 30"/>
<path d="M241 370.186L256.624 382.948L271.969 403.216L287.313 448.257L302.937 509.814L318.282 544.345L333.906 557.107L349.53 550.351L364.875 539.09L380.498 521.825L395.843 517.32L411.467 506.06L426.812 494.049L442.436 492.548L457.781 479.035L473.125 459.518L488.749 470.778L504.094 459.518L519.718 451.26L535.063 444.504L550.687 415.978L566.031 388.953L581.655 382.197L597 373.189" stroke="white" stroke-width="4" stroke-linecap="round" stroke-linejoin="round" stroke-dasharray="0.01 30"/>
<path d="M241 358.698L256.624 371.222L271.969 391.113L287.313 429.421L302.937 482.463L318.282 535.506L333.906 542.136L349.53 534.032L364.875 522.982L380.498 503.091L395.843 488.357L411.467 490.567L426.812 475.833L442.436 472.886L457.781 461.099L473.125 459.626L488.749 466.256L504.094 456.679L519.718 457.416L535.063 415.424L550.687 402.163L566.031 374.169L581.655 374.905L597 364.592" stroke="#FFAB36" stroke-width="2" stroke-linecap="round" stroke-linejoin="round"/>
<path d="M241 358.889L256.624 371.4L271.969 391.27L287.313 429.539L302.937 482.526L318.282 535.512L333.906 542.136L349.53 534.041L364.875 523.002L380.498 503.132L395.843 488.413L411.467 490.621L426.812 475.902L442.436 472.959L457.781 461.184L473.125 459.712L488.749 466.335L504.094 456.768L519.718 457.504L535.063 415.556L550.687 402.309L566.031 374.344L581.655 375.08L597 364.777" stroke="#FFAB36" stroke-width="6" stroke-linecap="round" stroke-linejoin="round" stroke-dasharray="0.01 32.2"/>
<path d="M241 358.889L256.624 371.4L271.969 391.27L287.313 429.539L302.937 482.526L318.282 535.512L333.906 542.136L349.53 534.041L364.875 523.002L380.498 503.132L395.843 488.413L411.467 490.621L426.812 475.902L442.436 472.959L457.781 461.184L473.125 459.712L488.749 466.335L504.094 456.768L519.718 457.504L535.063 415.556L550.687 402.309L566.031 374.344L581.655 375.08L597 364.777" stroke="white" stroke-width="4" stroke-linecap="round" stroke-linejoin="round" stroke-dasharray="0.01 32.2"/>
<rect width="39.4286" height="242" transform="matrix(1 0 0 -1 345.043 574)" fill="url(#paint0_linear)" fill-opacity="0.04"/>
<g filter="url(#filter2_d)">
<circle r="2" transform="matrix(1 0 0 -1 364.758 522.793)" fill="#FFAB36"/>
<circle r="3" transform="matrix(1 0 0 -1 364.758 522.793)" stroke="white" stroke-width="2"/>
</g>
<g filter="url(#filter3_d)">
<circle r="2" transform="matrix(1 0 0 -1 364.758 539.27)" fill="#13CAE6"/>
<circle r="3" transform="matrix(1 0 0 -1 364.758 539.27)" stroke="white" stroke-width="2"/>
</g>
<g filter="url(#filter4_ddd)">
<rect width="102" height="132" rx="8" transform="matrix(1 0 0 -1 381.086 554.27)" fill="white"/>
<path opacity="0.6" d="M397.954 440.104C397.954 438.499 398.216 437.248 398.738 436.352C399.261 435.447 400.176 434.994 401.482 434.994C402.78 434.994 403.69 435.447 404.212 436.352C404.735 437.248 404.996 438.499 404.996 440.104C404.996 441.738 404.735 443.007 404.212 443.912C403.69 444.818 402.78 445.27 401.482 445.27C400.176 445.27 399.261 444.818 398.738 443.912C398.216 443.007 397.954 441.738 397.954 440.104ZM403.736 440.104C403.736 439.292 403.68 438.606 403.568 438.046C403.466 437.477 403.246 437.02 402.91 436.674C402.584 436.329 402.108 436.156 401.482 436.156C400.848 436.156 400.362 436.329 400.026 436.674C399.7 437.02 399.48 437.477 399.368 438.046C399.266 438.606 399.214 439.292 399.214 440.104C399.214 440.944 399.266 441.649 399.368 442.218C399.48 442.788 399.7 443.245 400.026 443.59C400.362 443.936 400.848 444.108 401.482 444.108C402.108 444.108 402.584 443.936 402.91 443.59C403.246 443.245 403.466 442.788 403.568 442.218C403.68 441.649 403.736 440.944 403.736 440.104ZM408.843 440.006C408.321 439.801 407.919 439.502 407.639 439.11C407.359 438.718 407.219 438.242 407.219 437.682C407.219 437.178 407.345 436.726 407.597 436.324C407.849 435.914 408.223 435.592 408.717 435.358C409.221 435.116 409.828 434.994 410.537 434.994C411.247 434.994 411.849 435.116 412.343 435.358C412.847 435.592 413.225 435.914 413.477 436.324C413.739 436.726 413.869 437.178 413.869 437.682C413.869 438.224 413.725 438.7 413.435 439.11C413.146 439.512 412.749 439.81 412.245 440.006C412.824 440.184 413.281 440.496 413.617 440.944C413.963 441.383 414.135 441.915 414.135 442.54C414.135 443.147 413.986 443.679 413.687 444.136C413.389 444.584 412.964 444.934 412.413 445.186C411.872 445.429 411.247 445.55 410.537 445.55C409.828 445.55 409.203 445.429 408.661 445.186C408.129 444.934 407.714 444.584 407.415 444.136C407.117 443.679 406.967 443.147 406.967 442.54C406.967 441.915 407.135 441.378 407.471 440.93C407.807 440.482 408.265 440.174 408.843 440.006ZM412.637 437.836C412.637 437.267 412.451 436.828 412.077 436.52C411.704 436.212 411.191 436.058 410.537 436.058C409.893 436.058 409.385 436.212 409.011 436.52C408.638 436.828 408.451 437.272 408.451 437.85C408.451 438.373 408.643 438.793 409.025 439.11C409.417 439.428 409.921 439.586 410.537 439.586C411.163 439.586 411.667 439.428 412.049 439.11C412.441 438.784 412.637 438.359 412.637 437.836ZM410.537 440.566C409.847 440.566 409.282 440.73 408.843 441.056C408.405 441.374 408.185 441.854 408.185 442.498C408.185 443.096 408.395 443.576 408.815 443.94C409.245 444.304 409.819 444.486 410.537 444.486C411.256 444.486 411.825 444.304 412.245 443.94C412.665 443.576 412.875 443.096 412.875 442.498C412.875 441.873 412.661 441.397 412.231 441.07C411.802 440.734 411.237 440.566 410.537 440.566ZM416.693 445.354C416.451 445.354 416.245 445.27 416.077 445.102C415.909 444.934 415.825 444.729 415.825 444.486C415.825 444.244 415.909 444.038 416.077 443.87C416.245 443.702 416.451 443.618 416.693 443.618C416.927 443.618 417.123 443.702 417.281 443.87C417.449 444.038 417.533 444.244 417.533 444.486C417.533 444.729 417.449 444.934 417.281 445.102C417.123 445.27 416.927 445.354 416.693 445.354ZM416.693 439.362C416.451 439.362 416.245 439.278 416.077 439.11C415.909 438.942 415.825 438.737 415.825 438.494C415.825 438.252 415.909 438.046 416.077 437.878C416.245 437.71 416.451 437.626 416.693 437.626C416.927 437.626 417.123 437.71 417.281 437.878C417.449 438.046 417.533 438.252 417.533 438.494C417.533 438.737 417.449 438.942 417.281 439.11C417.123 439.278 416.927 439.362 416.693 439.362ZM419.308 440.104C419.308 438.499 419.569 437.248 420.092 436.352C420.614 435.447 421.529 434.994 422.836 434.994C424.133 434.994 425.043 435.447 425.566 436.352C426.088 437.248 426.35 438.499 426.35 440.104C426.35 441.738 426.088 443.007 425.566 443.912C425.043 444.818 424.133 445.27 422.836 445.27C421.529 445.27 420.614 444.818 420.092 443.912C419.569 443.007 419.308 441.738 419.308 440.104ZM425.09 440.104C425.09 439.292 425.034 438.606 424.922 438.046C424.819 437.477 424.6 437.02 424.264 436.674C423.937 436.329 423.461 436.156 422.836 436.156C422.201 436.156 421.716 436.329 421.38 436.674C421.053 437.02 420.834 437.477 420.722 438.046C420.619 438.606 420.568 439.292 420.568 440.104C420.568 440.944 420.619 441.649 420.722 442.218C420.834 442.788 421.053 443.245 421.38 443.59C421.716 443.936 422.201 444.108 422.836 444.108C423.461 444.108 423.937 443.936 424.264 443.59C424.6 443.245 424.819 442.788 424.922 442.218C425.034 441.649 425.09 440.944 425.09 440.104ZM428.349 440.104C428.349 438.499 428.61 437.248 429.133 436.352C429.655 435.447 430.57 434.994 431.877 434.994C433.174 434.994 434.084 435.447 434.607 436.352C435.129 437.248 435.391 438.499 435.391 440.104C435.391 441.738 435.129 443.007 434.607 443.912C434.084 444.818 433.174 445.27 431.877 445.27C430.57 445.27 429.655 444.818 429.133 443.912C428.61 443.007 428.349 441.738 428.349 440.104ZM434.131 440.104C434.131 439.292 434.075 438.606 433.963 438.046C433.86 437.477 433.641 437.02 433.305 436.674C432.978 436.329 432.502 436.156 431.877 436.156C431.242 436.156 430.757 436.329 430.421 436.674C430.094 437.02 429.875 437.477 429.763 438.046C429.66 438.606 429.609 439.292 429.609 440.104C429.609 440.944 429.66 441.649 429.763 442.218C429.875 442.788 430.094 443.245 430.421 443.59C430.757 443.936 431.242 444.108 431.877 444.108C432.502 444.108 432.978 443.936 433.305 443.59C433.641 443.245 433.86 442.788 433.963 442.218C434.075 441.649 434.131 440.944 434.131 440.104Z" fill="#12152E"/>
<path d="M403.05 468.244C403.405 468.3 403.727 468.445 404.016 468.678C404.315 468.912 404.548 469.201 404.716 469.546C404.894 469.892 404.982 470.26 404.982 470.652C404.982 471.147 404.856 471.595 404.604 471.996C404.352 472.388 403.984 472.701 403.498 472.934C403.022 473.158 402.458 473.27 401.804 473.27H398.164V463.512H401.664C402.327 463.512 402.892 463.624 403.358 463.848C403.825 464.063 404.175 464.357 404.408 464.73C404.642 465.104 404.758 465.524 404.758 465.99C404.758 466.569 404.6 467.05 404.282 467.432C403.974 467.806 403.564 468.076 403.05 468.244ZM399.438 467.726H401.58C402.178 467.726 402.64 467.586 402.966 467.306C403.293 467.026 403.456 466.639 403.456 466.144C403.456 465.65 403.293 465.262 402.966 464.982C402.64 464.702 402.168 464.562 401.552 464.562H399.438V467.726ZM401.692 472.22C402.327 472.22 402.822 472.071 403.176 471.772C403.531 471.474 403.708 471.058 403.708 470.526C403.708 469.985 403.522 469.56 403.148 469.252C402.775 468.935 402.276 468.776 401.65 468.776H399.438V472.22H401.692ZM414 469.14C414 469.383 413.986 469.64 413.958 469.91H407.826C407.873 470.666 408.129 471.259 408.596 471.688C409.072 472.108 409.646 472.318 410.318 472.318C410.869 472.318 411.326 472.192 411.69 471.94C412.063 471.679 412.325 471.334 412.474 470.904H413.846C413.641 471.642 413.23 472.244 412.614 472.71C411.998 473.168 411.233 473.396 410.318 473.396C409.59 473.396 408.937 473.233 408.358 472.906C407.789 472.58 407.341 472.118 407.014 471.52C406.687 470.914 406.524 470.214 406.524 469.42C406.524 468.627 406.683 467.932 407 467.334C407.317 466.737 407.761 466.28 408.33 465.962C408.909 465.636 409.571 465.472 410.318 465.472C411.046 465.472 411.69 465.631 412.25 465.948C412.81 466.266 413.239 466.704 413.538 467.264C413.846 467.815 414 468.44 414 469.14ZM412.684 468.874C412.684 468.389 412.577 467.974 412.362 467.628C412.147 467.274 411.853 467.008 411.48 466.83C411.116 466.644 410.71 466.55 410.262 466.55C409.618 466.55 409.067 466.756 408.61 467.166C408.162 467.577 407.905 468.146 407.84 468.874H412.684ZM417.206 462.91V473.27H415.932V462.91H417.206ZM419.151 469.406C419.151 468.622 419.31 467.936 419.627 467.348C419.944 466.751 420.378 466.289 420.929 465.962C421.489 465.636 422.11 465.472 422.791 465.472C423.463 465.472 424.046 465.617 424.541 465.906C425.036 466.196 425.404 466.56 425.647 466.998V465.598H426.935V473.27H425.647V471.842C425.395 472.29 425.017 472.664 424.513 472.962C424.018 473.252 423.44 473.396 422.777 473.396C422.096 473.396 421.48 473.228 420.929 472.892C420.378 472.556 419.944 472.085 419.627 471.478C419.31 470.872 419.151 470.181 419.151 469.406ZM425.647 469.42C425.647 468.842 425.53 468.338 425.297 467.908C425.064 467.479 424.746 467.152 424.345 466.928C423.953 466.695 423.519 466.578 423.043 466.578C422.567 466.578 422.133 466.69 421.741 466.914C421.349 467.138 421.036 467.465 420.803 467.894C420.57 468.324 420.453 468.828 420.453 469.406C420.453 469.994 420.57 470.508 420.803 470.946C421.036 471.376 421.349 471.707 421.741 471.94C422.133 472.164 422.567 472.276 423.043 472.276C423.519 472.276 423.953 472.164 424.345 471.94C424.746 471.707 425.064 471.376 425.297 470.946C425.53 470.508 425.647 469.999 425.647 469.42ZM433.076 465.458C434.009 465.458 434.765 465.743 435.344 466.312C435.923 466.872 436.212 467.684 436.212 468.748V473.27H434.952V468.93C434.952 468.165 434.761 467.582 434.378 467.18C433.995 466.77 433.473 466.564 432.81 466.564C432.138 466.564 431.601 466.774 431.2 467.194C430.808 467.614 430.612 468.226 430.612 469.028V473.27H429.338V465.598H430.612V466.69C430.864 466.298 431.205 465.995 431.634 465.78C432.073 465.566 432.553 465.458 433.076 465.458ZM438.067 469.42C438.067 468.627 438.226 467.936 438.543 467.348C438.86 466.751 439.299 466.289 439.859 465.962C440.428 465.636 441.077 465.472 441.805 465.472C442.748 465.472 443.522 465.701 444.129 466.158C444.745 466.616 445.151 467.25 445.347 468.062H443.975C443.844 467.596 443.588 467.227 443.205 466.956C442.832 466.686 442.365 466.55 441.805 466.55C441.077 466.55 440.489 466.802 440.041 467.306C439.593 467.801 439.369 468.506 439.369 469.42C439.369 470.344 439.593 471.058 440.041 471.562C440.489 472.066 441.077 472.318 441.805 472.318C442.365 472.318 442.832 472.188 443.205 471.926C443.578 471.665 443.835 471.292 443.975 470.806H445.347C445.142 471.59 444.731 472.22 444.115 472.696C443.499 473.163 442.729 473.396 441.805 473.396C441.077 473.396 440.428 473.233 439.859 472.906C439.299 472.58 438.86 472.118 438.543 471.52C438.226 470.923 438.067 470.223 438.067 469.42ZM454.297 469.14C454.297 469.383 454.283 469.64 454.255 469.91H448.123C448.17 470.666 448.426 471.259 448.893 471.688C449.369 472.108 449.943 472.318 450.615 472.318C451.166 472.318 451.623 472.192 451.987 471.94C452.36 471.679 452.622 471.334 452.771 470.904H454.143C453.938 471.642 453.527 472.244 452.911 472.71C452.295 473.168 451.53 473.396 450.615 473.396C449.887 473.396 449.234 473.233 448.655 472.906C448.086 472.58 447.638 472.118 447.311 471.52C446.984 470.914 446.821 470.214 446.821 469.42C446.821 468.627 446.98 467.932 447.297 467.334C447.614 466.737 448.058 466.28 448.627 465.962C449.206 465.636 449.868 465.472 450.615 465.472C451.343 465.472 451.987 465.631 452.547 465.948C453.107 466.266 453.536 466.704 453.835 467.264C454.143 467.815 454.297 468.44 454.297 469.14ZM452.981 468.874C452.981 468.389 452.874 467.974 452.659 467.628C452.444 467.274 452.15 467.008 451.777 466.83C451.413 466.644 451.007 466.55 450.559 466.55C449.915 466.55 449.364 466.756 448.907 467.166C448.459 467.577 448.202 468.146 448.137 468.874H452.981Z" fill="#13CAE6"/>
<path d="M399.592 490.554C399.686 491.086 399.9 491.497 400.236 491.786C400.582 492.076 401.044 492.22 401.622 492.22C402.397 492.22 402.966 491.917 403.33 491.31C403.704 490.704 403.881 489.682 403.862 488.244C403.666 488.664 403.34 488.996 402.882 489.238C402.425 489.472 401.916 489.588 401.356 489.588C400.731 489.588 400.171 489.462 399.676 489.21C399.191 488.949 398.808 488.571 398.528 488.076C398.248 487.582 398.108 486.984 398.108 486.284C398.108 485.286 398.398 484.483 398.976 483.876C399.555 483.26 400.376 482.952 401.44 482.952C402.747 482.952 403.662 483.377 404.184 484.226C404.716 485.076 404.982 486.34 404.982 488.02C404.982 489.196 404.875 490.167 404.66 490.932C404.455 491.698 404.1 492.281 403.596 492.682C403.102 493.084 402.42 493.284 401.552 493.284C400.6 493.284 399.858 493.028 399.326 492.514C398.794 492.001 398.491 491.348 398.416 490.554H399.592ZM401.566 488.51C402.192 488.51 402.705 488.319 403.106 487.936C403.508 487.544 403.708 487.017 403.708 486.354C403.708 485.654 403.512 485.09 403.12 484.66C402.728 484.231 402.178 484.016 401.468 484.016C400.815 484.016 400.292 484.222 399.9 484.632C399.518 485.043 399.326 485.584 399.326 486.256C399.326 486.938 399.518 487.484 399.9 487.894C400.283 488.305 400.838 488.51 401.566 488.51ZM412.665 485.556C412.459 484.52 411.82 484.002 410.747 484.002C409.916 484.002 409.295 484.324 408.885 484.968C408.474 485.603 408.273 486.653 408.283 488.118C408.497 487.633 408.852 487.255 409.347 486.984C409.851 486.704 410.411 486.564 411.027 486.564C411.988 486.564 412.753 486.863 413.323 487.46C413.901 488.058 414.191 488.884 414.191 489.938C414.191 490.573 414.065 491.142 413.813 491.646C413.57 492.15 413.197 492.552 412.693 492.85C412.198 493.149 411.596 493.298 410.887 493.298C409.925 493.298 409.174 493.084 408.633 492.654C408.091 492.225 407.713 491.632 407.499 490.876C407.284 490.12 407.177 489.187 407.177 488.076C407.177 484.651 408.371 482.938 410.761 482.938C411.675 482.938 412.394 483.186 412.917 483.68C413.439 484.175 413.747 484.8 413.841 485.556H412.665ZM410.761 487.642C410.359 487.642 409.981 487.726 409.627 487.894C409.272 488.053 408.983 488.3 408.759 488.636C408.544 488.963 408.437 489.364 408.437 489.84C408.437 490.55 408.642 491.128 409.053 491.576C409.463 492.015 410.051 492.234 410.817 492.234C411.47 492.234 411.988 492.034 412.371 491.632C412.763 491.222 412.959 490.671 412.959 489.98C412.959 489.252 412.772 488.683 412.399 488.272C412.025 487.852 411.479 487.642 410.761 487.642ZM417.797 490.554C417.891 491.086 418.105 491.497 418.441 491.786C418.787 492.076 419.249 492.22 419.827 492.22C420.602 492.22 421.171 491.917 421.535 491.31C421.909 490.704 422.086 489.682 422.067 488.244C421.871 488.664 421.545 488.996 421.087 489.238C420.63 489.472 420.121 489.588 419.561 489.588C418.936 489.588 418.376 489.462 417.881 489.21C417.396 488.949 417.013 488.571 416.733 488.076C416.453 487.582 416.313 486.984 416.313 486.284C416.313 485.286 416.603 484.483 417.181 483.876C417.76 483.26 418.581 482.952 419.645 482.952C420.952 482.952 421.867 483.377 422.389 484.226C422.921 485.076 423.187 486.34 423.187 488.02C423.187 489.196 423.08 490.167 422.865 490.932C422.66 491.698 422.305 492.281 421.801 492.682C421.307 493.084 420.625 493.284 419.757 493.284C418.805 493.284 418.063 493.028 417.531 492.514C416.999 492.001 416.696 491.348 416.621 490.554H417.797ZM419.771 488.51C420.397 488.51 420.91 488.319 421.311 487.936C421.713 487.544 421.913 487.017 421.913 486.354C421.913 485.654 421.717 485.09 421.325 484.66C420.933 484.231 420.383 484.016 419.673 484.016C419.02 484.016 418.497 484.222 418.105 484.632C417.723 485.043 417.531 485.584 417.531 486.256C417.531 486.938 417.723 487.484 418.105 487.894C418.488 488.305 419.043 488.51 419.771 488.51ZM426.754 491.506L425.186 495.272H424.332L425.354 491.506H426.754ZM428.253 488.104C428.253 486.499 428.514 485.248 429.037 484.352C429.56 483.447 430.474 482.994 431.781 482.994C433.078 482.994 433.988 483.447 434.511 484.352C435.034 485.248 435.295 486.499 435.295 488.104C435.295 489.738 435.034 491.007 434.511 491.912C433.988 492.818 433.078 493.27 431.781 493.27C430.474 493.27 429.56 492.818 429.037 491.912C428.514 491.007 428.253 489.738 428.253 488.104ZM434.035 488.104C434.035 487.292 433.979 486.606 433.867 486.046C433.764 485.477 433.545 485.02 433.209 484.674C432.882 484.329 432.406 484.156 431.781 484.156C431.146 484.156 430.661 484.329 430.325 484.674C429.998 485.02 429.779 485.477 429.667 486.046C429.564 486.606 429.513 487.292 429.513 488.104C429.513 488.944 429.564 489.649 429.667 490.218C429.779 490.788 429.998 491.245 430.325 491.59C430.661 491.936 431.146 492.108 431.781 492.108C432.406 492.108 432.882 491.936 433.209 491.59C433.545 491.245 433.764 490.788 433.867 490.218C433.979 489.649 434.035 488.944 434.035 488.104ZM439.142 488.006C438.619 487.801 438.218 487.502 437.938 487.11C437.658 486.718 437.518 486.242 437.518 485.682C437.518 485.178 437.644 484.726 437.896 484.324C438.148 483.914 438.521 483.592 439.016 483.358C439.52 483.116 440.127 482.994 440.836 482.994C441.545 482.994 442.147 483.116 442.642 483.358C443.146 483.592 443.524 483.914 443.776 484.324C444.037 484.726 444.168 485.178 444.168 485.682C444.168 486.224 444.023 486.7 443.734 487.11C443.445 487.512 443.048 487.81 442.544 488.006C443.123 488.184 443.58 488.496 443.916 488.944C444.261 489.383 444.434 489.915 444.434 490.54C444.434 491.147 444.285 491.679 443.986 492.136C443.687 492.584 443.263 492.934 442.712 493.186C442.171 493.429 441.545 493.55 440.836 493.55C440.127 493.55 439.501 493.429 438.96 493.186C438.428 492.934 438.013 492.584 437.714 492.136C437.415 491.679 437.266 491.147 437.266 490.54C437.266 489.915 437.434 489.378 437.77 488.93C438.106 488.482 438.563 488.174 439.142 488.006ZM442.936 485.836C442.936 485.267 442.749 484.828 442.376 484.52C442.003 484.212 441.489 484.058 440.836 484.058C440.192 484.058 439.683 484.212 439.31 484.52C438.937 484.828 438.75 485.272 438.75 485.85C438.75 486.373 438.941 486.793 439.324 487.11C439.716 487.428 440.22 487.586 440.836 487.586C441.461 487.586 441.965 487.428 442.348 487.11C442.74 486.784 442.936 486.359 442.936 485.836ZM440.836 488.566C440.145 488.566 439.581 488.73 439.142 489.056C438.703 489.374 438.484 489.854 438.484 490.498C438.484 491.096 438.694 491.576 439.114 491.94C439.543 492.304 440.117 492.486 440.836 492.486C441.555 492.486 442.124 492.304 442.544 491.94C442.964 491.576 443.174 491.096 443.174 490.498C443.174 489.873 442.959 489.397 442.53 489.07C442.101 488.734 441.536 488.566 440.836 488.566ZM452.606 484.142L448.714 493.27H447.426L451.374 484.268H445.97V483.176H452.606V484.142Z" fill="black" fill-opacity="0.87"/>
<path d="M403.05 516.244C403.405 516.3 403.727 516.445 404.016 516.678C404.315 516.912 404.548 517.201 404.716 517.546C404.894 517.892 404.982 518.26 404.982 518.652C404.982 519.147 404.856 519.595 404.604 519.996C404.352 520.388 403.984 520.701 403.498 520.934C403.022 521.158 402.458 521.27 401.804 521.27H398.164V511.512H401.664C402.327 511.512 402.892 511.624 403.358 511.848C403.825 512.063 404.175 512.357 404.408 512.73C404.642 513.104 404.758 513.524 404.758 513.99C404.758 514.569 404.6 515.05 404.282 515.432C403.974 515.806 403.564 516.076 403.05 516.244ZM399.438 515.726H401.58C402.178 515.726 402.64 515.586 402.966 515.306C403.293 515.026 403.456 514.639 403.456 514.144C403.456 513.65 403.293 513.262 402.966 512.982C402.64 512.702 402.168 512.562 401.552 512.562H399.438V515.726ZM401.692 520.22C402.327 520.22 402.822 520.071 403.176 519.772C403.531 519.474 403.708 519.058 403.708 518.526C403.708 517.985 403.522 517.56 403.148 517.252C402.775 516.935 402.276 516.776 401.65 516.776H399.438V520.22H401.692ZM406.524 517.406C406.524 516.622 406.683 515.936 407 515.348C407.317 514.751 407.751 514.289 408.302 513.962C408.862 513.636 409.483 513.472 410.164 513.472C410.836 513.472 411.419 513.617 411.914 513.906C412.409 514.196 412.777 514.56 413.02 514.998V513.598H414.308V521.27H413.02V519.842C412.768 520.29 412.39 520.664 411.886 520.962C411.391 521.252 410.813 521.396 410.15 521.396C409.469 521.396 408.853 521.228 408.302 520.892C407.751 520.556 407.317 520.085 407 519.478C406.683 518.872 406.524 518.181 406.524 517.406ZM413.02 517.42C413.02 516.842 412.903 516.338 412.67 515.908C412.437 515.479 412.119 515.152 411.718 514.928C411.326 514.695 410.892 514.578 410.416 514.578C409.94 514.578 409.506 514.69 409.114 514.914C408.722 515.138 408.409 515.465 408.176 515.894C407.943 516.324 407.826 516.828 407.826 517.406C407.826 517.994 407.943 518.508 408.176 518.946C408.409 519.376 408.722 519.707 409.114 519.94C409.506 520.164 409.94 520.276 410.416 520.276C410.892 520.276 411.326 520.164 411.718 519.94C412.119 519.707 412.437 519.376 412.67 518.946C412.903 518.508 413.02 517.999 413.02 517.42ZM417.985 510.91V521.27H416.711V510.91H417.985ZM421.96 514.648V519.17C421.96 519.544 422.04 519.81 422.198 519.968C422.357 520.118 422.632 520.192 423.024 520.192H423.962V521.27H422.814C422.105 521.27 421.573 521.107 421.218 520.78C420.864 520.454 420.686 519.917 420.686 519.17V514.648H419.692V513.598H420.686V511.666H421.96V513.598H423.962V514.648H421.96ZM426.414 512.352C426.171 512.352 425.966 512.268 425.798 512.1C425.63 511.932 425.546 511.727 425.546 511.484C425.546 511.242 425.63 511.036 425.798 510.868C425.966 510.7 426.171 510.616 426.414 510.616C426.647 510.616 426.843 510.7 427.002 510.868C427.17 511.036 427.254 511.242 427.254 511.484C427.254 511.727 427.17 511.932 427.002 512.1C426.843 512.268 426.647 512.352 426.414 512.352ZM427.03 513.598V521.27H425.756V513.598H427.03ZM438.677 513.458C439.275 513.458 439.807 513.584 440.273 513.836C440.74 514.079 441.109 514.448 441.379 514.942C441.65 515.437 441.785 516.039 441.785 516.748V521.27H440.525V516.93C440.525 516.165 440.334 515.582 439.951 515.18C439.578 514.77 439.069 514.564 438.425 514.564C437.763 514.564 437.235 514.779 436.843 515.208C436.451 515.628 436.255 516.24 436.255 517.042V521.27H434.995V516.93C434.995 516.165 434.804 515.582 434.421 515.18C434.048 514.77 433.539 514.564 432.895 514.564C432.233 514.564 431.705 514.779 431.313 515.208C430.921 515.628 430.725 516.24 430.725 517.042V521.27H429.451V513.598H430.725V514.704C430.977 514.303 431.313 513.995 431.733 513.78C432.163 513.566 432.634 513.458 433.147 513.458C433.791 513.458 434.361 513.603 434.855 513.892C435.35 514.182 435.719 514.606 435.961 515.166C436.176 514.625 436.531 514.205 437.025 513.906C437.52 513.608 438.071 513.458 438.677 513.458ZM447.471 521.396C446.752 521.396 446.099 521.233 445.511 520.906C444.932 520.58 444.475 520.118 444.139 519.52C443.812 518.914 443.649 518.214 443.649 517.42C443.649 516.636 443.817 515.946 444.153 515.348C444.498 514.742 444.965 514.28 445.553 513.962C446.141 513.636 446.799 513.472 447.527 513.472C448.255 513.472 448.913 513.636 449.501 513.962C450.089 514.28 450.551 514.737 450.887 515.334C451.232 515.932 451.405 516.627 451.405 517.42C451.405 518.214 451.228 518.914 450.873 519.52C450.528 520.118 450.056 520.58 449.459 520.906C448.862 521.233 448.199 521.396 447.471 521.396ZM447.471 520.276C447.928 520.276 448.358 520.169 448.759 519.954C449.16 519.74 449.482 519.418 449.725 518.988C449.977 518.559 450.103 518.036 450.103 517.42C450.103 516.804 449.982 516.282 449.739 515.852C449.496 515.423 449.179 515.106 448.787 514.9C448.395 514.686 447.97 514.578 447.513 514.578C447.046 514.578 446.617 514.686 446.225 514.9C445.842 515.106 445.534 515.423 445.301 515.852C445.068 516.282 444.951 516.804 444.951 517.42C444.951 518.046 445.063 518.573 445.287 519.002C445.52 519.432 445.828 519.754 446.211 519.968C446.594 520.174 447.014 520.276 447.471 520.276ZM454.604 514.844C454.828 514.406 455.146 514.065 455.556 513.822C455.976 513.58 456.485 513.458 457.082 513.458V514.774H456.746C455.318 514.774 454.604 515.549 454.604 517.098V521.27H453.33V513.598H454.604V514.844ZM465.803 517.14C465.803 517.383 465.789 517.64 465.761 517.91H459.629C459.676 518.666 459.932 519.259 460.399 519.688C460.875 520.108 461.449 520.318 462.121 520.318C462.672 520.318 463.129 520.192 463.493 519.94C463.866 519.679 464.128 519.334 464.277 518.904H465.649C465.444 519.642 465.033 520.244 464.417 520.71C463.801 521.168 463.036 521.396 462.121 521.396C461.393 521.396 460.74 521.233 460.161 520.906C459.592 520.58 459.144 520.118 458.817 519.52C458.49 518.914 458.327 518.214 458.327 517.42C458.327 516.627 458.486 515.932 458.803 515.334C459.12 514.737 459.564 514.28 460.133 513.962C460.712 513.636 461.374 513.472 462.121 513.472C462.849 513.472 463.493 513.631 464.053 513.948C464.613 514.266 465.042 514.704 465.341 515.264C465.649 515.815 465.803 516.44 465.803 517.14ZM464.487 516.874C464.487 516.389 464.38 515.974 464.165 515.628C463.95 515.274 463.656 515.008 463.283 514.83C462.919 514.644 462.513 514.55 462.065 514.55C461.421 514.55 460.87 514.756 460.413 515.166C459.965 515.577 459.708 516.146 459.643 516.874H464.487Z" fill="#FFAB36"/>
<path d="M404.184 532.142L400.292 541.27H399.004L402.952 532.268H397.548V531.176H404.184V532.142ZM405.819 533.696C405.884 532.838 406.215 532.166 406.813 531.68C407.41 531.195 408.185 530.952 409.137 530.952C409.771 530.952 410.317 531.069 410.775 531.302C411.241 531.526 411.591 531.834 411.825 532.226C412.067 532.618 412.189 533.062 412.189 533.556C412.189 534.135 412.021 534.634 411.685 535.054C411.358 535.474 410.929 535.745 410.397 535.866V535.936C411.003 536.086 411.484 536.38 411.839 536.818C412.193 537.257 412.371 537.831 412.371 538.54C412.371 539.072 412.249 539.553 412.007 539.982C411.764 540.402 411.4 540.734 410.915 540.976C410.429 541.219 409.846 541.34 409.165 541.34C408.175 541.34 407.363 541.084 406.729 540.57C406.094 540.048 405.739 539.31 405.665 538.358H406.897C406.962 538.918 407.191 539.376 407.583 539.73C407.975 540.085 408.497 540.262 409.151 540.262C409.804 540.262 410.299 540.094 410.635 539.758C410.98 539.413 411.153 538.97 411.153 538.428C411.153 537.728 410.919 537.224 410.453 536.916C409.986 536.608 409.281 536.454 408.339 536.454H408.017V535.39H408.353C409.211 535.381 409.86 535.241 410.299 534.97C410.737 534.69 410.957 534.261 410.957 533.682C410.957 533.188 410.793 532.791 410.467 532.492C410.149 532.194 409.692 532.044 409.095 532.044C408.516 532.044 408.049 532.194 407.695 532.492C407.34 532.791 407.13 533.192 407.065 533.696H405.819ZM414.341 536.104C414.341 534.499 414.602 533.248 415.125 532.352C415.648 531.447 416.562 530.994 417.869 530.994C419.166 530.994 420.076 531.447 420.599 532.352C421.122 533.248 421.383 534.499 421.383 536.104C421.383 537.738 421.122 539.007 420.599 539.912C420.076 540.818 419.166 541.27 417.869 541.27C416.562 541.27 415.648 540.818 415.125 539.912C414.602 539.007 414.341 537.738 414.341 536.104ZM420.123 536.104C420.123 535.292 420.067 534.606 419.955 534.046C419.852 533.477 419.633 533.02 419.297 532.674C418.97 532.329 418.494 532.156 417.869 532.156C417.234 532.156 416.749 532.329 416.413 532.674C416.086 533.02 415.867 533.477 415.755 534.046C415.652 534.606 415.601 535.292 415.601 536.104C415.601 536.944 415.652 537.649 415.755 538.218C415.867 538.788 416.086 539.245 416.413 539.59C416.749 539.936 417.234 540.108 417.869 540.108C418.494 540.108 418.97 539.936 419.297 539.59C419.633 539.245 419.852 538.788 419.955 538.218C420.067 537.649 420.123 536.944 420.123 536.104ZM424.908 539.506L423.34 543.272H422.486L423.508 539.506H424.908ZM432.637 532.142L428.745 541.27H427.457L431.405 532.268H426.001V531.176H432.637V532.142ZM434.3 536.104C434.3 534.499 434.561 533.248 435.084 532.352C435.607 531.447 436.521 530.994 437.828 530.994C439.125 530.994 440.035 531.447 440.558 532.352C441.081 533.248 441.342 534.499 441.342 536.104C441.342 537.738 441.081 539.007 440.558 539.912C440.035 540.818 439.125 541.27 437.828 541.27C436.521 541.27 435.607 540.818 435.084 539.912C434.561 539.007 434.3 537.738 434.3 536.104ZM440.082 536.104C440.082 535.292 440.026 534.606 439.914 534.046C439.811 533.477 439.592 533.02 439.256 532.674C438.929 532.329 438.453 532.156 437.828 532.156C437.193 532.156 436.708 532.329 436.372 532.674C436.045 533.02 435.826 533.477 435.714 534.046C435.611 534.606 435.56 535.292 435.56 536.104C435.56 536.944 435.611 537.649 435.714 538.218C435.826 538.788 436.045 539.245 436.372 539.59C436.708 539.936 437.193 540.108 437.828 540.108C438.453 540.108 438.929 539.936 439.256 539.59C439.592 539.245 439.811 538.788 439.914 538.218C440.026 537.649 440.082 536.944 440.082 536.104ZM445.189 536.006C444.666 535.801 444.265 535.502 443.985 535.11C443.705 534.718 443.565 534.242 443.565 533.682C443.565 533.178 443.691 532.726 443.943 532.324C444.195 531.914 444.568 531.592 445.063 531.358C445.567 531.116 446.174 530.994 446.883 530.994C447.592 530.994 448.194 531.116 448.689 531.358C449.193 531.592 449.571 531.914 449.823 532.324C450.084 532.726 450.215 533.178 450.215 533.682C450.215 534.224 450.07 534.7 449.781 535.11C449.492 535.512 449.095 535.81 448.591 536.006C449.17 536.184 449.627 536.496 449.963 536.944C450.308 537.383 450.481 537.915 450.481 538.54C450.481 539.147 450.332 539.679 450.033 540.136C449.734 540.584 449.31 540.934 448.759 541.186C448.218 541.429 447.592 541.55 446.883 541.55C446.174 541.55 445.548 541.429 445.007 541.186C444.475 540.934 444.06 540.584 443.761 540.136C443.462 539.679 443.313 539.147 443.313 538.54C443.313 537.915 443.481 537.378 443.817 536.93C444.153 536.482 444.61 536.174 445.189 536.006ZM448.983 533.836C448.983 533.267 448.796 532.828 448.423 532.52C448.05 532.212 447.536 532.058 446.883 532.058C446.239 532.058 445.73 532.212 445.357 532.52C444.984 532.828 444.797 533.272 444.797 533.85C444.797 534.373 444.988 534.793 445.371 535.11C445.763 535.428 446.267 535.586 446.883 535.586C447.508 535.586 448.012 535.428 448.395 535.11C448.787 534.784 448.983 534.359 448.983 533.836ZM446.883 536.566C446.192 536.566 445.628 536.73 445.189 537.056C444.75 537.374 444.531 537.854 444.531 538.498C444.531 539.096 444.741 539.576 445.161 539.94C445.59 540.304 446.164 540.486 446.883 540.486C447.602 540.486 448.171 540.304 448.591 539.94C449.011 539.576 449.221 539.096 449.221 538.498C449.221 537.873 449.006 537.397 448.577 537.07C448.148 536.734 447.583 536.566 446.883 536.566Z" fill="black" fill-opacity="0.87"/>
</g>
<rect x="150.5" y="239.5" width="487" height="371" rx="29.5" stroke="#12152E"/>
</g>
<circle cx="150" cy="551" r="35" fill="#13CAE6"/>
<path fill-rule="evenodd" clip-rule="evenodd" d="M156.475 541.512C156.475 539.85 157.825 538.5 159.487 538.5C161.15 538.5 162.5 539.85 162.5 541.512C162.5 543.175 161.15 544.525 159.487 544.525C157.825 544.525 156.475 543.175 156.475 541.512ZM151.662 554.449L155.275 549.788L155.225 549.813C155.425 549.538 155.462 549.188 155.325 548.875C155.188 548.563 154.887 548.35 154.563 548.325C154.225 548.288 153.888 548.438 153.687 548.713L150.663 552.625L147.2 549.9C146.987 549.738 146.737 549.674 146.487 549.7C146.238 549.738 146.013 549.874 145.862 550.074L142.163 554.888L142.087 555C141.875 555.399 141.975 555.912 142.35 556.188C142.525 556.3 142.712 556.375 142.925 556.375C143.213 556.388 143.487 556.237 143.662 556L146.8 551.962L150.362 554.638L150.475 554.712C150.875 554.924 151.375 554.825 151.662 554.449ZM154.312 540.725C154.262 541.038 154.237 541.35 154.237 541.663C154.237 544.475 156.512 546.749 159.312 546.749C159.625 546.749 159.925 546.713 160.237 546.663V556.749C160.237 560.988 157.737 563.5 153.487 563.5H144.251C140 563.5 137.5 560.988 137.5 556.749V547.5C137.5 543.25 140 540.725 144.251 540.725H154.312Z" fill="#12152E"/>
<defs>
<filter id="filter0_f" x="254" y="0" width="589.511" height="589.511" filterUnits="userSpaceOnUse" color-interpolation-filters="sRGB">
<feFlood flood-opacity="0" result="BackgroundImageFix"/>
<feBlend mode="normal" in="SourceGraphic" in2="BackgroundImageFix" result="shape"/>
<feGaussianBlur stdDeviation="100" result="effect1_foregroundBlur"/>
</filter>
<filter id="filter1_d" x="0" y="97" width="788" height="672" filterUnits="userSpaceOnUse" color-interpolation-filters="sRGB">
<feFlood flood-opacity="0" result="BackgroundImageFix"/>
<feColorMatrix in="SourceAlpha" type="matrix" values="0 0 0 0 0 0 0 0 0 0 0 0 0 0 0 0 0 0 127 0"/>
<feOffset dy="8"/>
<feGaussianBlur stdDeviation="75"/>
<feColorMatrix type="matrix" values="0 0 0 0 0.0705882 0 0 0 0 0.0823529 0 0 0 0 0.180392 0 0 0 0.15 0"/>
<feBlend mode="normal" in2="BackgroundImageFix" result="effect1_dropShadow"/>
<feBlend mode="normal" in="SourceGraphic" in2="effect1_dropShadow" result="shape"/>
</filter>
<filter id="filter2_d" x="355.758" y="513.793" width="18" height="18" filterUnits="userSpaceOnUse" color-interpolation-filters="sRGB">
<feFlood flood-opacity="0" result="BackgroundImageFix"/>
<feColorMatrix in="SourceAlpha" type="matrix" values="0 0 0 0 0 0 0 0 0 0 0 0 0 0 0 0 0 0 127 0"/>
<feMorphology radius="5" operator="dilate" in="SourceAlpha" result="effect1_dropShadow"/>
<feOffset/>
<feColorMatrix type="matrix" values="0 0 0 0 0.545098 0 0 0 0 0.521569 0 0 0 0 0.886275 0 0 0 0.15 0"/>
<feBlend mode="normal" in2="BackgroundImageFix" result="effect1_dropShadow"/>
<feBlend mode="normal" in="SourceGraphic" in2="effect1_dropShadow" result="shape"/>
</filter>
<filter id="filter3_d" x="355.758" y="530.27" width="18" height="18" filterUnits="userSpaceOnUse" color-interpolation-filters="sRGB">
<feFlood flood-opacity="0" result="BackgroundImageFix"/>
<feColorMatrix in="SourceAlpha" type="matrix" values="0 0 0 0 0 0 0 0 0 0 0 0 0 0 0 0 0 0 127 0"/>
<feMorphology radius="5" operator="dilate" in="SourceAlpha" result="effect1_dropShadow"/>
<feOffset/>
<feColorMatrix type="matrix" values="0 0 0 0 0.956863 0 0 0 0 0.631373 0 0 0 0 0.392157 0 0 0 0.15 0"/>
<feBlend mode="normal" in2="BackgroundImageFix" result="effect1_dropShadow"/>
<feBlend mode="normal" in="SourceGraphic" in2="effect1_dropShadow" result="shape"/>
</filter>
<filter id="filter4_ddd" x="331.086" y="372.27" width="202" height="232" filterUnits="userSpaceOnUse" color-interpolation-filters="sRGB">
<feFlood flood-opacity="0" result="BackgroundImageFix"/>
<feColorMatrix in="SourceAlpha" type="matrix" values="0 0 0 0 0 0 0 0 0 0 0 0 0 0 0 0 0 0 127 0"/>
<feOffset/>
<feGaussianBlur stdDeviation="25"/>
<feColorMatrix type="matrix" values="0 0 0 0 0.0705882 0 0 0 0 0.0823529 0 0 0 0 0.180392 0 0 0 0.07 0"/>
<feBlend mode="normal" in2="BackgroundImageFix" result="effect1_dropShadow"/>
<feColorMatrix in="SourceAlpha" type="matrix" values="0 0 0 0 0 0 0 0 0 0 0 0 0 0 0 0 0 0 127 0"/>
<feOffset dy="1"/>
<feGaussianBlur stdDeviation="1.5"/>
<feColorMatrix type="matrix" values="0 0 0 0 0.0588235 0 0 0 0 0.133333 0 0 0 0 0.262745 0 0 0 0.12 0"/>
<feBlend mode="normal" in2="effect1_dropShadow" result="effect2_dropShadow"/>
<feColorMatrix in="SourceAlpha" type="matrix" values="0 0 0 0 0 0 0 0 0 0 0 0 0 0 0 0 0 0 127 0"/>
<feMorphology radius="6" operator="erode" in="SourceAlpha" result="effect3_dropShadow"/>
<feOffset dy="8"/>
<feGaussianBlur stdDeviation="12"/>
<feColorMatrix type="matrix" values="0 0 0 0 0.0588235 0 0 0 0 0.133333 0 0 0 0 0.262745 0 0 0 0.16 0"/>
<feBlend mode="normal" in2="effect2_dropShadow" result="effect3_dropShadow"/>
<feBlend mode="normal" in="SourceGraphic" in2="effect3_dropShadow" result="shape"/>
</filter>
<linearGradient id="paint0_linear" x1="19.7143" y1="0" x2="19.7143" y2="242" gradientUnits="userSpaceOnUse">
<stop stop-color="#1B1664" stop-opacity="0"/>
<stop offset="1" stop-color="#1B1664"/>
</linearGradient>
</defs>
</svg>
