<svg width="788" height="672" viewBox="0 0 788 672" fill="none" xmlns="http://www.w3.org/2000/svg">
<g filter="url(#filter0_d)">
<rect x="150" y="142" width="488" height="372" rx="30" fill="white"/>
<path d="M215.25 189.42C213.25 188.38 212.25 186.77 212.25 184.59C212.25 183.51 212.52 182.53 213.06 181.65C213.62 180.75 214.45 180.04 215.55 179.52C216.67 178.98 218.03 178.71 219.63 178.71C221.23 178.71 222.58 178.98 223.68 179.52C224.8 180.04 225.63 180.75 226.17 181.65C226.73 182.53 227.01 183.51 227.01 184.59C227.01 185.69 226.74 186.66 226.2 187.5C225.66 188.32 224.94 188.96 224.04 189.42C225.14 189.9 226 190.6 226.62 191.52C227.24 192.44 227.55 193.53 227.55 194.79C227.55 196.15 227.2 197.34 226.5 198.36C225.82 199.36 224.88 200.13 223.68 200.67C222.48 201.21 221.13 201.48 219.63 201.48C218.13 201.48 216.78 201.21 215.58 200.67C214.4 200.13 213.46 199.36 212.76 198.36C212.08 197.34 211.74 196.15 211.74 194.79C211.74 193.53 212.05 192.44 212.67 191.52C213.29 190.58 214.15 189.88 215.25 189.42ZM222.93 185.19C222.93 184.21 222.63 183.45 222.03 182.91C221.45 182.37 220.65 182.1 219.63 182.1C218.63 182.1 217.83 182.37 217.23 182.91C216.65 183.45 216.36 184.22 216.36 185.22C216.36 186.12 216.66 186.84 217.26 187.38C217.88 187.92 218.67 188.19 219.63 188.19C220.59 188.19 221.38 187.92 222 187.38C222.62 186.82 222.93 186.09 222.93 185.19ZM219.63 191.25C218.49 191.25 217.56 191.54 216.84 192.12C216.14 192.7 215.79 193.53 215.79 194.61C215.79 195.61 216.13 196.43 216.81 197.07C217.51 197.69 218.45 198 219.63 198C220.81 198 221.74 197.68 222.42 197.04C223.1 196.4 223.44 195.59 223.44 194.61C223.44 193.55 223.09 192.73 222.39 192.15C221.69 191.55 220.77 191.25 219.63 191.25ZM245.967 182.76H236.247V187.89C236.667 187.37 237.267 186.95 238.047 186.63C238.827 186.29 239.657 186.12 240.537 186.12C242.137 186.12 243.447 186.47 244.467 187.17C245.487 187.87 246.227 188.77 246.687 189.87C247.147 190.95 247.377 192.11 247.377 193.35C247.377 195.65 246.717 197.5 245.397 198.9C244.097 200.3 242.237 201 239.817 201C237.537 201 235.717 200.43 234.357 199.29C232.997 198.15 232.227 196.66 232.047 194.82H236.127C236.307 195.62 236.707 196.26 237.327 196.74C237.967 197.22 238.777 197.46 239.757 197.46C240.937 197.46 241.827 197.09 242.427 196.35C243.027 195.61 243.327 194.63 243.327 193.41C243.327 192.17 243.017 191.23 242.397 190.59C241.797 189.93 240.907 189.6 239.727 189.6C238.887 189.6 238.187 189.81 237.627 190.23C237.067 190.65 236.667 191.21 236.427 191.91H232.407V179.07H245.967V182.76ZM253.314 201.21C252.554 201.21 251.924 200.98 251.424 200.52C250.944 200.04 250.704 199.45 250.704 198.75C250.704 198.05 250.944 197.47 251.424 197.01C251.924 196.53 252.554 196.29 253.314 196.29C254.054 196.29 254.664 196.53 255.144 197.01C255.624 197.47 255.864 198.05 255.864 198.75C255.864 199.45 255.624 200.04 255.144 200.52C254.664 200.98 254.054 201.21 253.314 201.21ZM259.167 189.78C259.167 186.32 259.787 183.61 261.027 181.65C262.287 179.69 264.367 178.71 267.267 178.71C270.167 178.71 272.237 179.69 273.477 181.65C274.737 183.61 275.367 186.32 275.367 189.78C275.367 193.26 274.737 195.99 273.477 197.97C272.237 199.95 270.167 200.94 267.267 200.94C264.367 200.94 262.287 199.95 261.027 197.97C259.787 195.99 259.167 193.26 259.167 189.78ZM271.227 189.78C271.227 188.3 271.127 187.06 270.927 186.06C270.747 185.04 270.367 184.21 269.787 183.57C269.227 182.93 268.387 182.61 267.267 182.61C266.147 182.61 265.297 182.93 264.717 183.57C264.157 184.21 263.777 185.04 263.577 186.06C263.397 187.06 263.307 188.3 263.307 189.78C263.307 191.3 263.397 192.58 263.577 193.62C263.757 194.64 264.137 195.47 264.717 196.11C265.297 196.73 266.147 197.04 267.267 197.04C268.387 197.04 269.237 196.73 269.817 196.11C270.397 195.47 270.777 194.64 270.957 193.62C271.137 192.58 271.227 191.3 271.227 189.78ZM292.881 182.31L284.901 201H280.641L288.681 182.79H278.421V179.19H292.881V182.31ZM295.317 184.5C295.317 182.98 295.757 181.79 296.637 180.93C297.537 180.07 298.687 179.64 300.087 179.64C301.487 179.64 302.627 180.07 303.507 180.93C304.407 181.79 304.857 182.98 304.857 184.5C304.857 186.04 304.407 187.24 303.507 188.1C302.627 188.96 301.487 189.39 300.087 189.39C298.687 189.39 297.537 188.96 296.637 188.1C295.757 187.24 295.317 186.04 295.317 184.5ZM314.577 180L302.787 201H298.707L310.467 180H314.577ZM300.057 182.16C298.957 182.16 298.407 182.94 298.407 184.5C298.407 186.08 298.957 186.87 300.057 186.87C300.597 186.87 301.017 186.68 301.317 186.3C301.617 185.9 301.767 185.3 301.767 184.5C301.767 182.94 301.197 182.16 300.057 182.16ZM308.487 196.47C308.487 194.93 308.927 193.74 309.807 192.9C310.707 192.04 311.857 191.61 313.257 191.61C314.657 191.61 315.787 192.04 316.647 192.9C317.527 193.74 317.967 194.93 317.967 196.47C317.967 198.01 317.527 199.21 316.647 200.07C315.787 200.93 314.657 201.36 313.257 201.36C311.837 201.36 310.687 200.93 309.807 200.07C308.927 199.21 308.487 198.01 308.487 196.47ZM313.227 194.13C312.087 194.13 311.517 194.91 311.517 196.47C311.517 198.05 312.087 198.84 313.227 198.84C314.347 198.84 314.907 198.05 314.907 196.47C314.907 194.91 314.347 194.13 313.227 194.13Z" fill="#12152E"/>
<path opacity="0.7" d="M210.516 221.812C210.516 220.996 210.7 220.264 211.068 219.616C211.436 218.96 211.936 218.448 212.568 218.08C213.208 217.712 213.916 217.528 214.692 217.528C215.604 217.528 216.4 217.748 217.08 218.188C217.76 218.628 218.256 219.252 218.568 220.06H217.26C217.028 219.556 216.692 219.168 216.252 218.896C215.82 218.624 215.3 218.488 214.692 218.488C214.108 218.488 213.584 218.624 213.12 218.896C212.656 219.168 212.292 219.556 212.028 220.06C211.764 220.556 211.632 221.14 211.632 221.812C211.632 222.476 211.764 223.06 212.028 223.564C212.292 224.06 212.656 224.444 213.12 224.716C213.584 224.988 214.108 225.124 214.692 225.124C215.3 225.124 215.82 224.992 216.252 224.728C216.692 224.456 217.028 224.068 217.26 223.564H218.568C218.256 224.364 217.76 224.984 217.08 225.424C216.4 225.856 215.604 226.072 214.692 226.072C213.916 226.072 213.208 225.892 212.568 225.532C211.936 225.164 211.436 224.656 211.068 224.008C210.7 223.36 210.516 222.628 210.516 221.812ZM223.858 219.304C224.354 219.304 224.802 219.412 225.202 219.628C225.602 219.836 225.914 220.152 226.138 220.576C226.37 221 226.486 221.516 226.486 222.124V226H225.406V222.28C225.406 221.624 225.242 221.124 224.914 220.78C224.586 220.428 224.138 220.252 223.57 220.252C222.994 220.252 222.534 220.432 222.19 220.792C221.854 221.152 221.686 221.676 221.686 222.364V226H220.594V217.12H221.686V220.36C221.902 220.024 222.198 219.764 222.574 219.58C222.958 219.396 223.386 219.304 223.858 219.304ZM228.261 222.688C228.261 222.016 228.397 221.428 228.669 220.924C228.941 220.412 229.313 220.016 229.785 219.736C230.265 219.456 230.797 219.316 231.381 219.316C231.957 219.316 232.457 219.44 232.881 219.688C233.305 219.936 233.621 220.248 233.829 220.624V219.424H234.933V226H233.829V224.776C233.613 225.16 233.289 225.48 232.857 225.736C232.433 225.984 231.937 226.108 231.369 226.108C230.785 226.108 230.257 225.964 229.785 225.676C229.313 225.388 228.941 224.984 228.669 224.464C228.397 223.944 228.261 223.352 228.261 222.688ZM233.829 222.7C233.829 222.204 233.729 221.772 233.529 221.404C233.329 221.036 233.057 220.756 232.713 220.564C232.377 220.364 232.005 220.264 231.597 220.264C231.189 220.264 230.817 220.36 230.481 220.552C230.145 220.744 229.877 221.024 229.677 221.392C229.477 221.76 229.377 222.192 229.377 222.688C229.377 223.192 229.477 223.632 229.677 224.008C229.877 224.376 230.145 224.66 230.481 224.86C230.817 225.052 231.189 225.148 231.597 225.148C232.005 225.148 232.377 225.052 232.713 224.86C233.057 224.66 233.329 224.376 233.529 224.008C233.729 223.632 233.829 223.196 233.829 222.7ZM237.743 218.356C237.535 218.356 237.359 218.284 237.215 218.14C237.071 217.996 236.999 217.82 236.999 217.612C236.999 217.404 237.071 217.228 237.215 217.084C237.359 216.94 237.535 216.868 237.743 216.868C237.943 216.868 238.111 216.94 238.247 217.084C238.391 217.228 238.463 217.404 238.463 217.612C238.463 217.82 238.391 217.996 238.247 218.14C238.111 218.284 237.943 218.356 237.743 218.356ZM238.271 219.424V226H237.179V219.424H238.271ZM243.736 219.304C244.536 219.304 245.184 219.548 245.68 220.036C246.176 220.516 246.424 221.212 246.424 222.124V226H245.344V222.28C245.344 221.624 245.18 221.124 244.852 220.78C244.524 220.428 244.076 220.252 243.508 220.252C242.932 220.252 242.472 220.432 242.128 220.792C241.792 221.152 241.624 221.676 241.624 222.364V226H240.532V219.424H241.624V220.36C241.84 220.024 242.132 219.764 242.5 219.58C242.876 219.396 243.288 219.304 243.736 219.304ZM253.299 220.492C253.491 220.116 253.763 219.824 254.115 219.616C254.475 219.408 254.911 219.304 255.423 219.304V220.432H255.135C253.911 220.432 253.299 221.096 253.299 222.424V226H252.207V219.424H253.299V220.492ZM256.675 222.688C256.675 222.016 256.811 221.428 257.083 220.924C257.355 220.412 257.727 220.016 258.199 219.736C258.679 219.456 259.211 219.316 259.795 219.316C260.371 219.316 260.871 219.44 261.295 219.688C261.719 219.936 262.035 220.248 262.243 220.624V219.424H263.347V226H262.243V224.776C262.027 225.16 261.703 225.48 261.271 225.736C260.847 225.984 260.351 226.108 259.783 226.108C259.199 226.108 258.671 225.964 258.199 225.676C257.727 225.388 257.355 224.984 257.083 224.464C256.811 223.944 256.675 223.352 256.675 222.688ZM262.243 222.7C262.243 222.204 262.143 221.772 261.943 221.404C261.743 221.036 261.471 220.756 261.127 220.564C260.791 220.364 260.419 220.264 260.011 220.264C259.603 220.264 259.231 220.36 258.895 220.552C258.559 220.744 258.291 221.024 258.091 221.392C257.891 221.76 257.791 222.192 257.791 222.688C257.791 223.192 257.891 223.632 258.091 224.008C258.291 224.376 258.559 224.66 258.895 224.86C259.231 225.052 259.603 225.148 260.011 225.148C260.419 225.148 260.791 225.052 261.127 224.86C261.471 224.66 261.743 224.376 261.943 224.008C262.143 223.632 262.243 223.196 262.243 222.7ZM266.925 220.324V224.2C266.925 224.52 266.993 224.748 267.129 224.884C267.265 225.012 267.501 225.076 267.837 225.076H268.641V226H267.657C267.049 226 266.593 225.86 266.289 225.58C265.985 225.3 265.833 224.84 265.833 224.2V220.324H264.981V219.424H265.833V217.768H266.925V219.424H268.641V220.324H266.925ZM270.928 218.356C270.72 218.356 270.544 218.284 270.4 218.14C270.256 217.996 270.184 217.82 270.184 217.612C270.184 217.404 270.256 217.228 270.4 217.084C270.544 216.94 270.72 216.868 270.928 216.868C271.128 216.868 271.296 216.94 271.432 217.084C271.576 217.228 271.648 217.404 271.648 217.612C271.648 217.82 271.576 217.996 271.432 218.14C271.296 218.284 271.128 218.356 270.928 218.356ZM271.456 219.424V226H270.364V219.424H271.456ZM276.585 226.108C275.969 226.108 275.409 225.968 274.905 225.688C274.409 225.408 274.017 225.012 273.729 224.5C273.449 223.98 273.309 223.38 273.309 222.7C273.309 222.028 273.453 221.436 273.741 220.924C274.037 220.404 274.437 220.008 274.941 219.736C275.445 219.456 276.009 219.316 276.633 219.316C277.257 219.316 277.821 219.456 278.325 219.736C278.829 220.008 279.225 220.4 279.513 220.912C279.809 221.424 279.957 222.02 279.957 222.7C279.957 223.38 279.805 223.98 279.501 224.5C279.205 225.012 278.801 225.408 278.289 225.688C277.777 225.968 277.209 226.108 276.585 226.108ZM276.585 225.148C276.977 225.148 277.345 225.056 277.689 224.872C278.033 224.688 278.309 224.412 278.517 224.044C278.733 223.676 278.841 223.228 278.841 222.7C278.841 222.172 278.737 221.724 278.529 221.356C278.321 220.988 278.049 220.716 277.713 220.54C277.377 220.356 277.013 220.264 276.621 220.264C276.221 220.264 275.853 220.356 275.517 220.54C275.189 220.716 274.925 220.988 274.725 221.356C274.525 221.724 274.425 222.172 274.425 222.7C274.425 223.236 274.521 223.688 274.713 224.056C274.913 224.424 275.177 224.7 275.505 224.884C275.833 225.06 276.193 225.148 276.585 225.148Z" fill="#12152E"/>
<circle cx="525" cy="196" r="4" fill="#13CAE6"/>
<path opacity="0.7" d="M540.372 191.432L537 200H538.056L538.968 197.6H542.904L543.816 200H544.884L541.512 191.432H540.372ZM539.28 196.772L540.924 192.488H540.972L542.592 196.772H539.28ZM547.687 191.792L546.739 192.188V193.796H545.491V194.6H546.739V198.548C546.739 199.016 546.835 199.364 547.039 199.604C547.255 199.868 547.627 200 548.131 200H549.067V199.196H548.275C548.059 199.196 547.903 199.136 547.819 199.04C547.723 198.944 547.687 198.776 547.687 198.548V194.6H549.223V193.796H547.687V191.792ZM550.888 191.264V200H551.836V191.264H550.888ZM556.621 193.628C555.877 193.628 555.289 193.772 554.833 194.06C554.329 194.372 554.005 194.864 553.873 195.512L554.821 195.584C554.917 195.188 555.121 194.888 555.445 194.696C555.733 194.504 556.105 194.42 556.561 194.42C557.641 194.42 558.181 194.936 558.181 195.98V196.304L556.693 196.328C555.757 196.34 555.037 196.52 554.533 196.856C553.957 197.216 553.681 197.744 553.681 198.452C553.681 198.956 553.873 199.376 554.257 199.7C554.629 200.012 555.121 200.168 555.745 200.168C556.321 200.168 556.837 200.036 557.293 199.784C557.677 199.568 558.001 199.292 558.241 198.956V200H559.141V196.016C559.141 195.296 558.949 194.732 558.589 194.324C558.157 193.856 557.509 193.628 556.621 193.628ZM558.181 197.024V197.552C558.181 198.032 557.953 198.464 557.509 198.836C557.053 199.22 556.537 199.412 555.949 199.412C555.565 199.412 555.253 199.316 555.013 199.136C554.773 198.944 554.665 198.716 554.665 198.428C554.665 197.528 555.361 197.072 556.753 197.048L558.181 197.024ZM563.928 193.628C563.52 193.628 563.148 193.724 562.812 193.916C562.476 194.096 562.2 194.36 561.984 194.708V193.796H561.024V200H561.984V196.256C562.02 195.692 562.2 195.248 562.536 194.912C562.848 194.6 563.22 194.444 563.652 194.444C564.732 194.444 565.284 195.044 565.284 196.256V200H566.244V196.184C566.244 194.48 565.464 193.628 563.928 193.628ZM569.783 191.792L568.835 192.188V193.796H567.587V194.6H568.835V198.548C568.835 199.016 568.931 199.364 569.135 199.604C569.351 199.868 569.723 200 570.227 200H571.163V199.196H570.371C570.155 199.196 569.999 199.136 569.915 199.04C569.819 198.944 569.783 198.776 569.783 198.548V194.6H571.319V193.796H569.783V191.792ZM575.492 193.628C574.748 193.628 574.16 193.772 573.704 194.06C573.2 194.372 572.876 194.864 572.744 195.512L573.692 195.584C573.788 195.188 573.992 194.888 574.316 194.696C574.604 194.504 574.976 194.42 575.432 194.42C576.512 194.42 577.052 194.936 577.052 195.98V196.304L575.564 196.328C574.628 196.34 573.908 196.52 573.404 196.856C572.828 197.216 572.552 197.744 572.552 198.452C572.552 198.956 572.744 199.376 573.128 199.7C573.5 200.012 573.992 200.168 574.616 200.168C575.192 200.168 575.708 200.036 576.164 199.784C576.548 199.568 576.872 199.292 577.112 198.956V200H578.012V196.016C578.012 195.296 577.82 194.732 577.46 194.324C577.028 193.856 576.38 193.628 575.492 193.628ZM577.052 197.024V197.552C577.052 198.032 576.824 198.464 576.38 198.836C575.924 199.22 575.408 199.412 574.82 199.412C574.436 199.412 574.124 199.316 573.884 199.136C573.644 198.944 573.536 198.716 573.536 198.428C573.536 197.528 574.232 197.072 575.624 197.048L577.052 197.024Z" fill="#12152E"/>
<circle cx="525" cy="216" r="4" fill="#FFAB36"/>
<path opacity="0.7" d="M542.112 215.692C542.416 215.74 542.692 215.864 542.94 216.064C543.196 216.264 543.396 216.512 543.54 216.808C543.692 217.104 543.768 217.42 543.768 217.756C543.768 218.18 543.66 218.564 543.444 218.908C543.228 219.244 542.912 219.512 542.496 219.712C542.088 219.904 541.604 220 541.044 220H537.924V211.636H540.924C541.492 211.636 541.976 211.732 542.376 211.924C542.776 212.108 543.076 212.36 543.276 212.68C543.476 213 543.576 213.36 543.576 213.76C543.576 214.256 543.44 214.668 543.168 214.996C542.904 215.316 542.552 215.548 542.112 215.692ZM539.016 215.248H540.852C541.364 215.248 541.76 215.128 542.04 214.888C542.32 214.648 542.46 214.316 542.46 213.892C542.46 213.468 542.32 213.136 542.04 212.896C541.76 212.656 541.356 212.536 540.828 212.536H539.016V215.248ZM540.948 219.1C541.492 219.1 541.916 218.972 542.22 218.716C542.524 218.46 542.676 218.104 542.676 217.648C542.676 217.184 542.516 216.82 542.196 216.556C541.876 216.284 541.448 216.148 540.912 216.148H539.016V219.1H540.948ZM545.275 216.688C545.275 216.016 545.411 215.428 545.683 214.924C545.955 214.412 546.327 214.016 546.799 213.736C547.279 213.456 547.811 213.316 548.395 213.316C548.971 213.316 549.471 213.44 549.895 213.688C550.319 213.936 550.635 214.248 550.843 214.624V213.424H551.947V220H550.843V218.776C550.627 219.16 550.303 219.48 549.871 219.736C549.447 219.984 548.951 220.108 548.383 220.108C547.799 220.108 547.271 219.964 546.799 219.676C546.327 219.388 545.955 218.984 545.683 218.464C545.411 217.944 545.275 217.352 545.275 216.688ZM550.843 216.7C550.843 216.204 550.743 215.772 550.543 215.404C550.343 215.036 550.071 214.756 549.727 214.564C549.391 214.364 549.019 214.264 548.611 214.264C548.203 214.264 547.831 214.36 547.495 214.552C547.159 214.744 546.891 215.024 546.691 215.392C546.491 215.76 546.391 216.192 546.391 216.688C546.391 217.192 546.491 217.632 546.691 218.008C546.891 218.376 547.159 218.66 547.495 218.86C547.831 219.052 548.203 219.148 548.611 219.148C549.019 219.148 549.391 219.052 549.727 218.86C550.071 218.66 550.343 218.376 550.543 218.008C550.743 217.632 550.843 217.196 550.843 216.7ZM555.285 211.12V220H554.193V211.12H555.285ZM558.878 214.324V218.2C558.878 218.52 558.946 218.748 559.082 218.884C559.218 219.012 559.454 219.076 559.79 219.076H560.594V220H559.61C559.002 220 558.546 219.86 558.242 219.58C557.938 219.3 557.786 218.84 557.786 218.2V214.324H556.934V213.424H557.786V211.768H558.878V213.424H560.594V214.324H558.878ZM562.881 212.356C562.673 212.356 562.497 212.284 562.353 212.14C562.209 211.996 562.137 211.82 562.137 211.612C562.137 211.404 562.209 211.228 562.353 211.084C562.497 210.94 562.673 210.868 562.881 210.868C563.081 210.868 563.249 210.94 563.385 211.084C563.529 211.228 563.601 211.404 563.601 211.612C563.601 211.82 563.529 211.996 563.385 212.14C563.249 212.284 563.081 212.356 562.881 212.356ZM563.409 213.424V220H562.317V213.424H563.409ZM573.578 213.304C574.09 213.304 574.546 213.412 574.946 213.628C575.346 213.836 575.662 214.152 575.894 214.576C576.126 215 576.242 215.516 576.242 216.124V220H575.162V216.28C575.162 215.624 574.998 215.124 574.67 214.78C574.35 214.428 573.914 214.252 573.362 214.252C572.794 214.252 572.342 214.436 572.006 214.804C571.67 215.164 571.502 215.688 571.502 216.376V220H570.422V216.28C570.422 215.624 570.258 215.124 569.93 214.78C569.61 214.428 569.174 214.252 568.622 214.252C568.054 214.252 567.602 214.436 567.266 214.804C566.93 215.164 566.762 215.688 566.762 216.376V220H565.67V213.424H566.762V214.372C566.978 214.028 567.266 213.764 567.626 213.58C567.994 213.396 568.398 213.304 568.838 213.304C569.39 213.304 569.878 213.428 570.302 213.676C570.726 213.924 571.042 214.288 571.25 214.768C571.434 214.304 571.738 213.944 572.162 213.688C572.586 213.432 573.058 213.304 573.578 213.304ZM581.301 220.108C580.685 220.108 580.125 219.968 579.621 219.688C579.125 219.408 578.733 219.012 578.445 218.5C578.165 217.98 578.025 217.38 578.025 216.7C578.025 216.028 578.169 215.436 578.457 214.924C578.753 214.404 579.153 214.008 579.657 213.736C580.161 213.456 580.725 213.316 581.349 213.316C581.973 213.316 582.537 213.456 583.041 213.736C583.545 214.008 583.941 214.4 584.229 214.912C584.525 215.424 584.673 216.02 584.673 216.7C584.673 217.38 584.521 217.98 584.217 218.5C583.921 219.012 583.517 219.408 583.005 219.688C582.493 219.968 581.925 220.108 581.301 220.108ZM581.301 219.148C581.693 219.148 582.061 219.056 582.405 218.872C582.749 218.688 583.025 218.412 583.233 218.044C583.449 217.676 583.557 217.228 583.557 216.7C583.557 216.172 583.453 215.724 583.245 215.356C583.037 214.988 582.765 214.716 582.429 214.54C582.093 214.356 581.729 214.264 581.337 214.264C580.937 214.264 580.569 214.356 580.233 214.54C579.905 214.716 579.641 214.988 579.441 215.356C579.241 215.724 579.141 216.172 579.141 216.7C579.141 217.236 579.237 217.688 579.429 218.056C579.629 218.424 579.893 218.7 580.221 218.884C580.549 219.06 580.909 219.148 581.301 219.148ZM587.601 214.492C587.793 214.116 588.065 213.824 588.417 213.616C588.777 213.408 589.213 213.304 589.725 213.304V214.432H589.437C588.213 214.432 587.601 215.096 587.601 216.424V220H586.509V213.424H587.601V214.492ZM597.386 216.46C597.386 216.668 597.374 216.888 597.35 217.12H592.094C592.134 217.768 592.354 218.276 592.754 218.644C593.162 219.004 593.654 219.184 594.23 219.184C594.702 219.184 595.094 219.076 595.406 218.86C595.726 218.636 595.95 218.34 596.078 217.972H597.254C597.078 218.604 596.726 219.12 596.198 219.52C595.67 219.912 595.014 220.108 594.23 220.108C593.606 220.108 593.046 219.968 592.55 219.688C592.062 219.408 591.678 219.012 591.398 218.5C591.118 217.98 590.978 217.38 590.978 216.7C590.978 216.02 591.114 215.424 591.386 214.912C591.658 214.4 592.038 214.008 592.526 213.736C593.022 213.456 593.59 213.316 594.23 213.316C594.854 213.316 595.406 213.452 595.886 213.724C596.366 213.996 596.734 214.372 596.99 214.852C597.254 215.324 597.386 215.86 597.386 216.46ZM596.258 216.232C596.258 215.816 596.166 215.46 595.982 215.164C595.798 214.86 595.546 214.632 595.226 214.48C594.914 214.32 594.566 214.24 594.182 214.24C593.63 214.24 593.158 214.416 592.766 214.768C592.382 215.12 592.162 215.608 592.106 216.232H596.258Z" fill="#12152E"/>
<path opacity="0.7" d="M193.636 373.933L198.928 373.933C199.672 373.933 200.224 373.753 200.584 373.393C200.944 373.025 201.124 372.517 201.124 371.869C201.124 371.229 200.944 370.729 200.584 370.369C200.224 370.001 199.672 369.817 198.928 369.817L193.636 369.817L193.636 368.725L198.916 368.725C199.612 368.725 200.2 368.865 200.68 369.145C201.152 369.425 201.504 369.805 201.736 370.285C201.968 370.757 202.084 371.289 202.084 371.881C202.084 372.473 201.968 373.009 201.736 373.489C201.504 373.961 201.152 374.337 200.68 374.617C200.2 374.889 199.612 375.025 198.916 375.025L193.636 375.025L193.636 373.933ZM202.084 363.851C202.084 364.403 201.988 364.899 201.796 365.339C201.596 365.771 201.324 366.111 200.98 366.359C200.628 366.607 200.224 366.735 199.768 366.743L199.768 365.579C200.16 365.539 200.492 365.379 200.764 365.099C201.028 364.811 201.16 364.395 201.16 363.851C201.16 363.331 201.032 362.923 200.776 362.627C200.512 362.323 200.176 362.171 199.768 362.171C199.448 362.171 199.188 362.259 198.988 362.435C198.788 362.611 198.636 362.831 198.532 363.095C198.428 363.359 198.316 363.715 198.196 364.163C198.052 364.715 197.908 365.159 197.764 365.495C197.62 365.823 197.396 366.107 197.092 366.347C196.78 366.579 196.364 366.695 195.844 366.695C195.388 366.695 194.984 366.579 194.632 366.347C194.28 366.115 194.008 365.791 193.816 365.375C193.624 364.951 193.528 364.467 193.528 363.923C193.528 363.139 193.724 362.499 194.116 362.003C194.508 361.499 195.028 361.215 195.676 361.151L195.676 362.351C195.356 362.391 195.076 362.559 194.836 362.855C194.588 363.151 194.464 363.543 194.464 364.031C194.464 364.487 194.584 364.859 194.824 365.147C195.056 365.435 195.384 365.579 195.808 365.579C196.112 365.579 196.36 365.495 196.552 365.327C196.744 365.151 196.892 364.939 196.996 364.691C197.092 364.435 197.204 364.079 197.332 363.623C197.484 363.071 197.636 362.627 197.788 362.291C197.932 361.955 198.16 361.667 198.472 361.427C198.776 361.187 199.192 361.067 199.72 361.067C200.128 361.067 200.512 361.175 200.872 361.391C201.232 361.607 201.524 361.927 201.748 362.351C201.972 362.775 202.084 363.275 202.084 363.851ZM193.636 356.456C193.636 355.544 193.808 354.756 194.152 354.092C194.488 353.42 194.972 352.908 195.604 352.556C196.236 352.196 196.98 352.016 197.836 352.016C198.692 352.016 199.436 352.196 200.068 352.556C200.692 352.908 201.172 353.42 201.508 354.092C201.836 354.756 202 355.544 202 356.456L202 359.06L193.636 359.06L193.636 356.456ZM201.1 356.456C201.1 355.376 200.816 354.552 200.248 353.984C199.672 353.416 198.868 353.132 197.836 353.132C196.796 353.132 195.984 353.42 195.4 353.996C194.816 354.564 194.524 355.384 194.524 356.456L194.524 357.968L201.1 357.968L201.1 356.456Z" fill="#12152E"/>
<path opacity="0.7" d="M211.066 258.82V257.824H213.322V266.5H212.218V258.82H211.066ZM215.466 265.624C216.482 264.808 217.278 264.14 217.854 263.62C218.43 263.092 218.914 262.544 219.306 261.976C219.706 261.4 219.906 260.836 219.906 260.284C219.906 259.764 219.778 259.356 219.522 259.06C219.274 258.756 218.87 258.604 218.31 258.604C217.766 258.604 217.342 258.776 217.038 259.12C216.742 259.456 216.582 259.908 216.558 260.476H215.502C215.534 259.58 215.806 258.888 216.318 258.4C216.83 257.912 217.49 257.668 218.298 257.668C219.122 257.668 219.774 257.896 220.254 258.352C220.742 258.808 220.986 259.436 220.986 260.236C220.986 260.9 220.786 261.548 220.386 262.18C219.994 262.804 219.546 263.356 219.042 263.836C218.538 264.308 217.894 264.86 217.11 265.492H221.238V266.404H215.466V265.624ZM231.84 259.924L229.788 266.5H228.66L227.076 261.28L225.492 266.5H224.364L222.3 259.924H223.416L224.928 265.444L226.56 259.924H227.676L229.272 265.456L230.76 259.924H231.84Z" fill="#12152E"/>
<path fill-rule="evenodd" clip-rule="evenodd" d="M598 263H240V262H598V263Z" fill="#1C1854" fill-opacity="0.08"/>
<path opacity="0.7" d="M216.514 324.321C216.066 324.145 215.722 323.889 215.482 323.553C215.242 323.217 215.122 322.809 215.122 322.329C215.122 321.897 215.23 321.509 215.446 321.165C215.662 320.813 215.982 320.537 216.406 320.337C216.838 320.129 217.358 320.025 217.966 320.025C218.574 320.025 219.09 320.129 219.514 320.337C219.946 320.537 220.27 320.813 220.486 321.165C220.71 321.509 220.822 321.897 220.822 322.329C220.822 322.793 220.698 323.201 220.45 323.553C220.202 323.897 219.862 324.153 219.43 324.321C219.926 324.473 220.318 324.741 220.606 325.125C220.902 325.501 221.05 325.957 221.05 326.493C221.05 327.013 220.922 327.469 220.666 327.861C220.41 328.245 220.046 328.545 219.574 328.761C219.11 328.969 218.574 329.073 217.966 329.073C217.358 329.073 216.822 328.969 216.358 328.761C215.902 328.545 215.546 328.245 215.29 327.861C215.034 327.469 214.906 327.013 214.906 326.493C214.906 325.957 215.05 325.497 215.338 325.113C215.626 324.729 216.018 324.465 216.514 324.321ZM219.766 322.461C219.766 321.973 219.606 321.597 219.286 321.333C218.966 321.069 218.526 320.937 217.966 320.937C217.414 320.937 216.978 321.069 216.658 321.333C216.338 321.597 216.178 321.977 216.178 322.473C216.178 322.921 216.342 323.281 216.67 323.553C217.006 323.825 217.438 323.961 217.966 323.961C218.502 323.961 218.934 323.825 219.262 323.553C219.598 323.273 219.766 322.909 219.766 322.461ZM217.966 324.801C217.374 324.801 216.89 324.941 216.514 325.221C216.138 325.493 215.95 325.905 215.95 326.457C215.95 326.969 216.13 327.381 216.49 327.693C216.858 328.005 217.35 328.161 217.966 328.161C218.582 328.161 219.07 328.005 219.43 327.693C219.79 327.381 219.97 326.969 219.97 326.457C219.97 325.921 219.786 325.513 219.418 325.233C219.05 324.945 218.566 324.801 217.966 324.801ZM231.84 322.257L229.788 328.833H228.66L227.076 323.613L225.492 328.833H224.364L222.3 322.257H223.416L224.928 327.777L226.56 322.257H227.676L229.272 327.789L230.76 322.257H231.84Z" fill="#12152E"/>
<path fill-rule="evenodd" clip-rule="evenodd" d="M598 325.333H240V324.333H598V325.333Z" fill="#1C1854" fill-opacity="0.08"/>
<path opacity="0.7" d="M214.689 389.235V388.407L218.901 382.575H220.209V388.287H221.409V389.235H220.209V391.167H219.129V389.235H214.689ZM219.177 383.715L215.949 388.287H219.177V383.715ZM231.84 384.591L229.788 391.167H228.66L227.076 385.947L225.492 391.167H224.364L222.3 384.591H223.416L224.928 390.111L226.56 384.591H227.676L229.272 390.123L230.76 384.591H231.84Z" fill="#12152E"/>
<path fill-rule="evenodd" clip-rule="evenodd" d="M598 387.667H240V386.667H598V387.667Z" fill="#1C1854" fill-opacity="0.08"/>
<path opacity="0.7" d="M225.209 449.072C225.209 447.696 225.433 446.624 225.881 445.856C226.329 445.08 227.113 444.692 228.233 444.692C229.345 444.692 230.125 445.08 230.573 445.856C231.021 446.624 231.245 447.696 231.245 449.072C231.245 450.472 231.021 451.56 230.573 452.336C230.125 453.112 229.345 453.5 228.233 453.5C227.113 453.5 226.329 453.112 225.881 452.336C225.433 451.56 225.209 450.472 225.209 449.072ZM230.165 449.072C230.165 448.376 230.117 447.788 230.021 447.308C229.933 446.82 229.745 446.428 229.457 446.132C229.177 445.836 228.769 445.688 228.233 445.688C227.689 445.688 227.273 445.836 226.985 446.132C226.705 446.428 226.517 446.82 226.421 447.308C226.333 447.788 226.289 448.376 226.289 449.072C226.289 449.792 226.333 450.396 226.421 450.884C226.517 451.372 226.705 451.764 226.985 452.06C227.273 452.356 227.689 452.504 228.233 452.504C228.769 452.504 229.177 452.356 229.457 452.06C229.745 451.764 229.933 451.372 230.021 450.884C230.117 450.396 230.165 449.792 230.165 449.072Z" fill="#12152E"/>
<path fill-rule="evenodd" clip-rule="evenodd" d="M598 450H240V449H598V450Z" fill="#1C1854" fill-opacity="0.08"/>
<path opacity="0.7" d="M240.744 465.572C240.744 464.196 240.968 463.124 241.416 462.356C241.864 461.58 242.648 461.192 243.768 461.192C244.88 461.192 245.66 461.58 246.108 462.356C246.556 463.124 246.78 464.196 246.78 465.572C246.78 466.972 246.556 468.06 246.108 468.836C245.66 469.612 244.88 470 243.768 470C242.648 470 241.864 469.612 241.416 468.836C240.968 468.06 240.744 466.972 240.744 465.572ZM245.7 465.572C245.7 464.876 245.652 464.288 245.556 463.808C245.468 463.32 245.28 462.928 244.992 462.632C244.712 462.336 244.304 462.188 243.768 462.188C243.224 462.188 242.808 462.336 242.52 462.632C242.24 462.928 242.052 463.32 241.956 463.808C241.868 464.288 241.824 464.876 241.824 465.572C241.824 466.292 241.868 466.896 241.956 467.384C242.052 467.872 242.24 468.264 242.52 468.56C242.808 468.856 243.224 469.004 243.768 469.004C244.304 469.004 244.712 468.856 244.992 468.56C245.28 468.264 245.468 467.872 245.556 467.384C245.652 466.896 245.7 466.292 245.7 465.572ZM248.679 465.572C248.679 464.196 248.903 463.124 249.351 462.356C249.799 461.58 250.583 461.192 251.703 461.192C252.815 461.192 253.595 461.58 254.043 462.356C254.491 463.124 254.715 464.196 254.715 465.572C254.715 466.972 254.491 468.06 254.043 468.836C253.595 469.612 252.815 470 251.703 470C250.583 470 249.799 469.612 249.351 468.836C248.903 468.06 248.679 466.972 248.679 465.572ZM253.635 465.572C253.635 464.876 253.587 464.288 253.491 463.808C253.403 463.32 253.215 462.928 252.927 462.632C252.647 462.336 252.239 462.188 251.703 462.188C251.159 462.188 250.743 462.336 250.455 462.632C250.175 462.928 249.987 463.32 249.891 463.808C249.803 464.288 249.759 464.876 249.759 465.572C249.759 466.292 249.803 466.896 249.891 467.384C249.987 467.872 250.175 468.264 250.455 468.56C250.743 468.856 251.159 469.004 251.703 469.004C252.239 469.004 252.647 468.856 252.927 468.56C253.215 468.264 253.403 467.872 253.491 467.384C253.587 466.896 253.635 466.292 253.635 465.572Z" fill="#12152E"/>
<path opacity="0.7" d="M285.619 465.572C285.619 464.196 285.843 463.124 286.291 462.356C286.739 461.58 287.523 461.192 288.643 461.192C289.755 461.192 290.535 461.58 290.983 462.356C291.431 463.124 291.655 464.196 291.655 465.572C291.655 466.972 291.431 468.06 290.983 468.836C290.535 469.612 289.755 470 288.643 470C287.523 470 286.739 469.612 286.291 468.836C285.843 468.06 285.619 466.972 285.619 465.572ZM290.575 465.572C290.575 464.876 290.527 464.288 290.431 463.808C290.343 463.32 290.155 462.928 289.867 462.632C289.587 462.336 289.179 462.188 288.643 462.188C288.099 462.188 287.683 462.336 287.395 462.632C287.115 462.928 286.927 463.32 286.831 463.808C286.743 464.288 286.699 464.876 286.699 465.572C286.699 466.292 286.743 466.896 286.831 467.384C286.927 467.872 287.115 468.264 287.395 468.56C287.683 468.856 288.099 469.004 288.643 469.004C289.179 469.004 289.587 468.856 289.867 468.56C290.155 468.264 290.343 467.872 290.431 467.384C290.527 466.896 290.575 466.292 290.575 465.572ZM293.53 463.508C293.586 462.772 293.87 462.196 294.382 461.78C294.894 461.364 295.558 461.156 296.374 461.156C296.918 461.156 297.386 461.256 297.778 461.456C298.178 461.648 298.478 461.912 298.678 462.248C298.886 462.584 298.99 462.964 298.99 463.388C298.99 463.884 298.846 464.312 298.558 464.672C298.278 465.032 297.91 465.264 297.454 465.368V465.428C297.974 465.556 298.386 465.808 298.69 466.184C298.994 466.56 299.146 467.052 299.146 467.66C299.146 468.116 299.042 468.528 298.834 468.896C298.626 469.256 298.314 469.54 297.898 469.748C297.482 469.956 296.982 470.06 296.398 470.06C295.55 470.06 294.854 469.84 294.31 469.4C293.766 468.952 293.462 468.32 293.398 467.504H294.454C294.51 467.984 294.706 468.376 295.042 468.68C295.378 468.984 295.826 469.136 296.386 469.136C296.946 469.136 297.37 468.992 297.658 468.704C297.954 468.408 298.102 468.028 298.102 467.564C298.102 466.964 297.902 466.532 297.502 466.268C297.102 466.004 296.498 465.872 295.69 465.872H295.414V464.96H295.702C296.438 464.952 296.994 464.832 297.37 464.6C297.746 464.36 297.934 463.992 297.934 463.496C297.934 463.072 297.794 462.732 297.514 462.476C297.242 462.22 296.85 462.092 296.338 462.092C295.842 462.092 295.442 462.22 295.138 462.476C294.834 462.732 294.654 463.076 294.598 463.508H293.53Z" fill="#12152E"/>
<path opacity="0.7" d="M330.494 465.572C330.494 464.196 330.718 463.124 331.166 462.356C331.614 461.58 332.398 461.192 333.518 461.192C334.63 461.192 335.41 461.58 335.858 462.356C336.306 463.124 336.53 464.196 336.53 465.572C336.53 466.972 336.306 468.06 335.858 468.836C335.41 469.612 334.63 470 333.518 470C332.398 470 331.614 469.612 331.166 468.836C330.718 468.06 330.494 466.972 330.494 465.572ZM335.45 465.572C335.45 464.876 335.402 464.288 335.306 463.808C335.218 463.32 335.03 462.928 334.742 462.632C334.462 462.336 334.054 462.188 333.518 462.188C332.974 462.188 332.558 462.336 332.27 462.632C331.99 462.928 331.802 463.32 331.706 463.808C331.618 464.288 331.574 464.876 331.574 465.572C331.574 466.292 331.618 466.896 331.706 467.384C331.802 467.872 331.99 468.264 332.27 468.56C332.558 468.856 332.974 469.004 333.518 469.004C334.054 469.004 334.462 468.856 334.742 468.56C335.03 468.264 335.218 467.872 335.306 467.384C335.402 466.896 335.45 466.292 335.45 465.572ZM343.265 463.388C343.089 462.5 342.541 462.056 341.621 462.056C340.909 462.056 340.377 462.332 340.025 462.884C339.673 463.428 339.501 464.328 339.509 465.584C339.693 465.168 339.997 464.844 340.421 464.612C340.853 464.372 341.333 464.252 341.861 464.252C342.685 464.252 343.341 464.508 343.829 465.02C344.325 465.532 344.573 466.24 344.573 467.144C344.573 467.688 344.465 468.176 344.249 468.608C344.041 469.04 343.721 469.384 343.289 469.64C342.865 469.896 342.349 470.024 341.741 470.024C340.917 470.024 340.273 469.84 339.809 469.472C339.345 469.104 339.021 468.596 338.837 467.948C338.653 467.3 338.561 466.5 338.561 465.548C338.561 462.612 339.585 461.144 341.633 461.144C342.417 461.144 343.033 461.356 343.481 461.78C343.929 462.204 344.193 462.74 344.273 463.388H343.265ZM341.633 465.176C341.289 465.176 340.965 465.248 340.661 465.392C340.357 465.528 340.109 465.74 339.917 466.028C339.733 466.308 339.641 466.652 339.641 467.06C339.641 467.668 339.817 468.164 340.169 468.548C340.521 468.924 341.025 469.112 341.681 469.112C342.241 469.112 342.685 468.94 343.013 468.596C343.349 468.244 343.517 467.772 343.517 467.18C343.517 466.556 343.357 466.068 343.037 465.716C342.717 465.356 342.249 465.176 341.633 465.176Z" fill="#12152E"/>
<path opacity="0.7" d="M375.369 465.572C375.369 464.196 375.593 463.124 376.041 462.356C376.489 461.58 377.273 461.192 378.393 461.192C379.505 461.192 380.285 461.58 380.733 462.356C381.181 463.124 381.405 464.196 381.405 465.572C381.405 466.972 381.181 468.06 380.733 468.836C380.285 469.612 379.505 470 378.393 470C377.273 470 376.489 469.612 376.041 468.836C375.593 468.06 375.369 466.972 375.369 465.572ZM380.325 465.572C380.325 464.876 380.277 464.288 380.181 463.808C380.093 463.32 379.905 462.928 379.617 462.632C379.337 462.336 378.929 462.188 378.393 462.188C377.849 462.188 377.433 462.336 377.145 462.632C376.865 462.928 376.677 463.32 376.581 463.808C376.493 464.288 376.449 464.876 376.449 465.572C376.449 466.292 376.493 466.896 376.581 467.384C376.677 467.872 376.865 468.264 377.145 468.56C377.433 468.856 377.849 469.004 378.393 469.004C378.929 469.004 379.337 468.856 379.617 468.56C379.905 468.264 380.093 467.872 380.181 467.384C380.277 466.896 380.325 466.292 380.325 465.572ZM384.708 467.672C384.788 468.128 384.972 468.48 385.26 468.728C385.556 468.976 385.952 469.1 386.448 469.1C387.112 469.1 387.6 468.84 387.912 468.32C388.232 467.8 388.384 466.924 388.368 465.692C388.2 466.052 387.92 466.336 387.528 466.544C387.136 466.744 386.7 466.844 386.22 466.844C385.684 466.844 385.204 466.736 384.78 466.52C384.364 466.296 384.036 465.972 383.796 465.548C383.556 465.124 383.436 464.612 383.436 464.012C383.436 463.156 383.684 462.468 384.18 461.948C384.676 461.42 385.38 461.156 386.292 461.156C387.412 461.156 388.196 461.52 388.644 462.248C389.1 462.976 389.328 464.06 389.328 465.5C389.328 466.508 389.236 467.34 389.052 467.996C388.876 468.652 388.572 469.152 388.14 469.496C387.716 469.84 387.132 470.012 386.388 470.012C385.572 470.012 384.936 469.792 384.48 469.352C384.024 468.912 383.764 468.352 383.7 467.672H384.708ZM386.4 465.92C386.936 465.92 387.376 465.756 387.72 465.428C388.064 465.092 388.236 464.64 388.236 464.072C388.236 463.472 388.068 462.988 387.732 462.62C387.396 462.252 386.924 462.068 386.316 462.068C385.756 462.068 385.308 462.244 384.972 462.596C384.644 462.948 384.48 463.412 384.48 463.988C384.48 464.572 384.644 465.04 384.972 465.392C385.3 465.744 385.776 465.92 386.4 465.92Z" fill="#12152E"/>
<path opacity="0.7" d="M419.956 462.32V461.324H422.212V470H421.108V462.32H419.956ZM424.356 469.124C425.372 468.308 426.168 467.64 426.744 467.12C427.32 466.592 427.804 466.044 428.196 465.476C428.596 464.9 428.796 464.336 428.796 463.784C428.796 463.264 428.668 462.856 428.412 462.56C428.164 462.256 427.76 462.104 427.2 462.104C426.656 462.104 426.232 462.276 425.928 462.62C425.632 462.956 425.472 463.408 425.448 463.976H424.392C424.424 463.08 424.696 462.388 425.208 461.9C425.72 461.412 426.38 461.168 427.188 461.168C428.012 461.168 428.664 461.396 429.144 461.852C429.632 462.308 429.876 462.936 429.876 463.736C429.876 464.4 429.676 465.048 429.276 465.68C428.884 466.304 428.436 466.856 427.932 467.336C427.428 467.808 426.784 468.36 426 468.992H430.128V469.904H424.356V469.124Z" fill="#12152E"/>
<path opacity="0.7" d="M460.831 462.32V461.324H463.087V470H461.983V462.32H460.831ZM470.895 462.272H466.683V465.008C466.867 464.752 467.139 464.544 467.499 464.384C467.859 464.216 468.247 464.132 468.663 464.132C469.327 464.132 469.867 464.272 470.283 464.552C470.699 464.824 470.995 465.18 471.171 465.62C471.355 466.052 471.447 466.512 471.447 467C471.447 467.576 471.339 468.092 471.123 468.548C470.907 469.004 470.575 469.364 470.127 469.628C469.687 469.892 469.139 470.024 468.483 470.024C467.643 470.024 466.963 469.808 466.443 469.376C465.923 468.944 465.607 468.368 465.495 467.648H466.563C466.667 468.104 466.887 468.46 467.223 468.716C467.559 468.972 467.983 469.1 468.495 469.1C469.127 469.1 469.603 468.912 469.923 468.536C470.243 468.152 470.403 467.648 470.403 467.024C470.403 466.4 470.243 465.92 469.923 465.584C469.603 465.24 469.131 465.068 468.507 465.068C468.083 465.068 467.711 465.172 467.391 465.38C467.079 465.58 466.851 465.856 466.707 466.208H465.675V461.312H470.895V462.272Z" fill="#12152E"/>
<path opacity="0.7" d="M501.706 462.32V461.324H503.962V470H502.858V462.32H501.706ZM507.822 465.488C507.374 465.312 507.03 465.056 506.79 464.72C506.55 464.384 506.43 463.976 506.43 463.496C506.43 463.064 506.538 462.676 506.754 462.332C506.97 461.98 507.29 461.704 507.714 461.504C508.146 461.296 508.666 461.192 509.274 461.192C509.882 461.192 510.398 461.296 510.822 461.504C511.254 461.704 511.578 461.98 511.794 462.332C512.018 462.676 512.13 463.064 512.13 463.496C512.13 463.96 512.006 464.368 511.758 464.72C511.51 465.064 511.17 465.32 510.738 465.488C511.234 465.64 511.626 465.908 511.914 466.292C512.21 466.668 512.358 467.124 512.358 467.66C512.358 468.18 512.23 468.636 511.974 469.028C511.718 469.412 511.354 469.712 510.882 469.928C510.418 470.136 509.882 470.24 509.274 470.24C508.666 470.24 508.13 470.136 507.666 469.928C507.21 469.712 506.854 469.412 506.598 469.028C506.342 468.636 506.214 468.18 506.214 467.66C506.214 467.124 506.358 466.664 506.646 466.28C506.934 465.896 507.326 465.632 507.822 465.488ZM511.074 463.628C511.074 463.14 510.914 462.764 510.594 462.5C510.274 462.236 509.834 462.104 509.274 462.104C508.722 462.104 508.286 462.236 507.966 462.5C507.646 462.764 507.486 463.144 507.486 463.64C507.486 464.088 507.65 464.448 507.978 464.72C508.314 464.992 508.746 465.128 509.274 465.128C509.81 465.128 510.242 464.992 510.57 464.72C510.906 464.44 511.074 464.076 511.074 463.628ZM509.274 465.968C508.682 465.968 508.198 466.108 507.822 466.388C507.446 466.66 507.258 467.072 507.258 467.624C507.258 468.136 507.438 468.548 507.798 468.86C508.166 469.172 508.658 469.328 509.274 469.328C509.89 469.328 510.378 469.172 510.738 468.86C511.098 468.548 511.278 468.136 511.278 467.624C511.278 467.088 511.094 466.68 510.726 466.4C510.358 466.112 509.874 465.968 509.274 465.968Z" fill="#12152E"/>
<path opacity="0.7" d="M542.737 469.124C543.753 468.308 544.549 467.64 545.125 467.12C545.701 466.592 546.185 466.044 546.577 465.476C546.977 464.9 547.177 464.336 547.177 463.784C547.177 463.264 547.049 462.856 546.793 462.56C546.545 462.256 546.141 462.104 545.581 462.104C545.037 462.104 544.613 462.276 544.309 462.62C544.013 462.956 543.853 463.408 543.829 463.976H542.773C542.805 463.08 543.077 462.388 543.589 461.9C544.101 461.412 544.761 461.168 545.569 461.168C546.393 461.168 547.045 461.396 547.525 461.852C548.013 462.308 548.257 462.936 548.257 463.736C548.257 464.4 548.057 465.048 547.657 465.68C547.265 466.304 546.817 466.856 546.313 467.336C545.809 467.808 545.165 468.36 544.381 468.992H548.509V469.904H542.737V469.124ZM549.883 462.32V461.324H552.139V470H551.035V462.32H549.883Z" fill="#12152E"/>
<path opacity="0.7" d="M583.612 469.124C584.628 468.308 585.424 467.64 586 467.12C586.576 466.592 587.06 466.044 587.452 465.476C587.852 464.9 588.052 464.336 588.052 463.784C588.052 463.264 587.924 462.856 587.668 462.56C587.42 462.256 587.016 462.104 586.456 462.104C585.912 462.104 585.488 462.276 585.184 462.62C584.888 462.956 584.728 463.408 584.704 463.976H583.648C583.68 463.08 583.952 462.388 584.464 461.9C584.976 461.412 585.636 461.168 586.444 461.168C587.268 461.168 587.92 461.396 588.4 461.852C588.888 462.308 589.132 462.936 589.132 463.736C589.132 464.4 588.932 465.048 588.532 465.68C588.14 466.304 587.692 466.856 587.188 467.336C586.684 467.808 586.04 468.36 585.256 468.992H589.384V469.904H583.612V469.124ZM591.022 463.508C591.078 462.772 591.362 462.196 591.874 461.78C592.386 461.364 593.05 461.156 593.866 461.156C594.41 461.156 594.878 461.256 595.27 461.456C595.67 461.648 595.97 461.912 596.17 462.248C596.378 462.584 596.482 462.964 596.482 463.388C596.482 463.884 596.338 464.312 596.05 464.672C595.77 465.032 595.402 465.264 594.946 465.368V465.428C595.466 465.556 595.878 465.808 596.182 466.184C596.486 466.56 596.638 467.052 596.638 467.66C596.638 468.116 596.534 468.528 596.326 468.896C596.118 469.256 595.806 469.54 595.39 469.748C594.974 469.956 594.474 470.06 593.89 470.06C593.042 470.06 592.346 469.84 591.802 469.4C591.258 468.952 590.954 468.32 590.89 467.504H591.946C592.002 467.984 592.198 468.376 592.534 468.68C592.87 468.984 593.318 469.136 593.878 469.136C594.438 469.136 594.862 468.992 595.15 468.704C595.446 468.408 595.594 468.028 595.594 467.564C595.594 466.964 595.394 466.532 594.994 466.268C594.594 466.004 593.99 465.872 593.182 465.872H592.906V464.96H593.194C593.93 464.952 594.486 464.832 594.862 464.6C595.238 464.36 595.426 463.992 595.426 463.496C595.426 463.072 595.286 462.732 595.006 462.476C594.734 462.22 594.342 462.092 593.83 462.092C593.334 462.092 592.934 462.22 592.63 462.476C592.326 462.732 592.146 463.076 592.09 463.508H591.022Z" fill="#12152E"/>
<path d="M241 273.186L256.624 285.948L271.969 306.216L287.313 351.257L302.937 412.814L318.282 447.345L333.906 460.107L349.53 453.351L364.875 442.09L380.498 424.825L395.843 420.32L411.467 409.06L426.812 397.049L442.436 395.548L457.781 382.035L473.125 362.518L488.749 373.778L504.094 362.518L519.718 354.26L535.063 347.504L550.687 318.978L566.031 291.953L581.655 285.197L597 276.189" stroke="#13CAE6" stroke-width="2" stroke-linecap="round" stroke-linejoin="round"/>
<path d="M241 273.186L256.624 285.948L271.969 306.216L287.313 351.257L302.937 412.814L318.282 447.345L333.906 460.107L349.53 453.351L364.875 442.09L380.498 424.825L395.843 420.32L411.467 409.06L426.812 397.049L442.436 395.548L457.781 382.035L473.125 362.518L488.749 373.778L504.094 362.518L519.718 354.26L535.063 347.504L550.686 318.978L566.031 291.953L581.655 285.197L597 276.189" stroke="#13CAE6" stroke-width="6" stroke-linecap="round" stroke-linejoin="round" stroke-dasharray="0.01 30"/>
<path d="M241 273.186L256.624 285.948L271.969 306.216L287.313 351.257L302.937 412.814L318.282 447.345L333.906 460.107L349.53 453.351L364.875 442.09L380.498 424.825L395.843 420.32L411.467 409.06L426.812 397.049L442.436 395.548L457.781 382.035L473.125 362.518L488.749 373.778L504.094 362.518L519.718 354.26L535.063 347.504L550.687 318.978L566.031 291.953L581.655 285.197L597 276.189" stroke="white" stroke-width="4" stroke-linecap="round" stroke-linejoin="round" stroke-dasharray="0.01 30"/>
<path d="M241 261.698L256.624 274.222L271.969 294.113L287.313 332.421L302.937 385.463L318.282 438.506L333.906 445.136L349.53 437.032L364.875 425.982L380.498 406.091L395.843 391.357L411.467 393.567L426.812 378.833L442.436 375.886L457.781 364.099L473.125 362.626L488.749 369.256L504.094 359.679L519.718 360.416L535.063 318.424L550.687 305.163L566.031 277.169L581.655 277.905L597 267.592" stroke="#FFAB36" stroke-width="2" stroke-linecap="round" stroke-linejoin="round"/>
<path d="M241 261.889L256.624 274.4L271.969 294.27L287.313 332.539L302.937 385.526L318.282 438.512L333.906 445.136L349.53 437.041L364.875 426.002L380.498 406.132L395.843 391.413L411.467 393.621L426.812 378.902L442.436 375.959L457.781 364.184L473.125 362.712L488.749 369.335L504.094 359.768L519.718 360.504L535.063 318.556L550.687 305.309L566.031 277.344L581.655 278.08L597 267.777" stroke="#FFAB36" stroke-width="6" stroke-linecap="round" stroke-linejoin="round" stroke-dasharray="0.01 32.2"/>
<path d="M241 261.889L256.624 274.4L271.969 294.27L287.313 332.539L302.937 385.526L318.282 438.512L333.906 445.136L349.53 437.041L364.875 426.002L380.498 406.132L395.843 391.413L411.467 393.621L426.812 378.902L442.436 375.959L457.781 364.184L473.125 362.712L488.749 369.335L504.094 359.768L519.718 360.504L535.063 318.556L550.687 305.309L566.031 277.344L581.655 278.08L597 267.777" stroke="white" stroke-width="4" stroke-linecap="round" stroke-linejoin="round" stroke-dasharray="0.01 32.2"/>
<rect width="39.4286" height="242" transform="matrix(1 0 0 -1 345.043 477)" fill="url(#paint0_linear)" fill-opacity="0.04"/>
<g filter="url(#filter1_d)">
<circle r="2" transform="matrix(1 0 0 -1 364.758 425.793)" fill="#FFAB36"/>
<circle r="3" transform="matrix(1 0 0 -1 364.758 425.793)" stroke="white" stroke-width="2"/>
</g>
<g filter="url(#filter2_d)">
<circle r="2" transform="matrix(1 0 0 -1 364.758 442.27)" fill="#13CAE6"/>
<circle r="3" transform="matrix(1 0 0 -1 364.758 442.27)" stroke="white" stroke-width="2"/>
</g>
<g filter="url(#filter3_ddd)">
<rect width="102" height="132" rx="8" transform="matrix(1 0 0 -1 381.086 457.27)" fill="white"/>
<path opacity="0.6" d="M397.954 343.104C397.954 341.499 398.216 340.248 398.738 339.352C399.261 338.447 400.176 337.994 401.482 337.994C402.78 337.994 403.69 338.447 404.212 339.352C404.735 340.248 404.996 341.499 404.996 343.104C404.996 344.738 404.735 346.007 404.212 346.912C403.69 347.818 402.78 348.27 401.482 348.27C400.176 348.27 399.261 347.818 398.738 346.912C398.216 346.007 397.954 344.738 397.954 343.104ZM403.736 343.104C403.736 342.292 403.68 341.606 403.568 341.046C403.466 340.477 403.246 340.02 402.91 339.674C402.584 339.329 402.108 339.156 401.482 339.156C400.848 339.156 400.362 339.329 400.026 339.674C399.7 340.02 399.48 340.477 399.368 341.046C399.266 341.606 399.214 342.292 399.214 343.104C399.214 343.944 399.266 344.649 399.368 345.218C399.48 345.788 399.7 346.245 400.026 346.59C400.362 346.936 400.848 347.108 401.482 347.108C402.108 347.108 402.584 346.936 402.91 346.59C403.246 346.245 403.466 345.788 403.568 345.218C403.68 344.649 403.736 343.944 403.736 343.104ZM408.843 343.006C408.321 342.801 407.919 342.502 407.639 342.11C407.359 341.718 407.219 341.242 407.219 340.682C407.219 340.178 407.345 339.726 407.597 339.324C407.849 338.914 408.223 338.592 408.717 338.358C409.221 338.116 409.828 337.994 410.537 337.994C411.247 337.994 411.849 338.116 412.343 338.358C412.847 338.592 413.225 338.914 413.477 339.324C413.739 339.726 413.869 340.178 413.869 340.682C413.869 341.224 413.725 341.7 413.435 342.11C413.146 342.512 412.749 342.81 412.245 343.006C412.824 343.184 413.281 343.496 413.617 343.944C413.963 344.383 414.135 344.915 414.135 345.54C414.135 346.147 413.986 346.679 413.687 347.136C413.389 347.584 412.964 347.934 412.413 348.186C411.872 348.429 411.247 348.55 410.537 348.55C409.828 348.55 409.203 348.429 408.661 348.186C408.129 347.934 407.714 347.584 407.415 347.136C407.117 346.679 406.967 346.147 406.967 345.54C406.967 344.915 407.135 344.378 407.471 343.93C407.807 343.482 408.265 343.174 408.843 343.006ZM412.637 340.836C412.637 340.267 412.451 339.828 412.077 339.52C411.704 339.212 411.191 339.058 410.537 339.058C409.893 339.058 409.385 339.212 409.011 339.52C408.638 339.828 408.451 340.272 408.451 340.85C408.451 341.373 408.643 341.793 409.025 342.11C409.417 342.428 409.921 342.586 410.537 342.586C411.163 342.586 411.667 342.428 412.049 342.11C412.441 341.784 412.637 341.359 412.637 340.836ZM410.537 343.566C409.847 343.566 409.282 343.73 408.843 344.056C408.405 344.374 408.185 344.854 408.185 345.498C408.185 346.096 408.395 346.576 408.815 346.94C409.245 347.304 409.819 347.486 410.537 347.486C411.256 347.486 411.825 347.304 412.245 346.94C412.665 346.576 412.875 346.096 412.875 345.498C412.875 344.873 412.661 344.397 412.231 344.07C411.802 343.734 411.237 343.566 410.537 343.566ZM416.693 348.354C416.451 348.354 416.245 348.27 416.077 348.102C415.909 347.934 415.825 347.729 415.825 347.486C415.825 347.244 415.909 347.038 416.077 346.87C416.245 346.702 416.451 346.618 416.693 346.618C416.927 346.618 417.123 346.702 417.281 346.87C417.449 347.038 417.533 347.244 417.533 347.486C417.533 347.729 417.449 347.934 417.281 348.102C417.123 348.27 416.927 348.354 416.693 348.354ZM416.693 342.362C416.451 342.362 416.245 342.278 416.077 342.11C415.909 341.942 415.825 341.737 415.825 341.494C415.825 341.252 415.909 341.046 416.077 340.878C416.245 340.71 416.451 340.626 416.693 340.626C416.927 340.626 417.123 340.71 417.281 340.878C417.449 341.046 417.533 341.252 417.533 341.494C417.533 341.737 417.449 341.942 417.281 342.11C417.123 342.278 416.927 342.362 416.693 342.362ZM419.308 343.104C419.308 341.499 419.569 340.248 420.092 339.352C420.614 338.447 421.529 337.994 422.836 337.994C424.133 337.994 425.043 338.447 425.566 339.352C426.088 340.248 426.35 341.499 426.35 343.104C426.35 344.738 426.088 346.007 425.566 346.912C425.043 347.818 424.133 348.27 422.836 348.27C421.529 348.27 420.614 347.818 420.092 346.912C419.569 346.007 419.308 344.738 419.308 343.104ZM425.09 343.104C425.09 342.292 425.034 341.606 424.922 341.046C424.819 340.477 424.6 340.02 424.264 339.674C423.937 339.329 423.461 339.156 422.836 339.156C422.201 339.156 421.716 339.329 421.38 339.674C421.053 340.02 420.834 340.477 420.722 341.046C420.619 341.606 420.568 342.292 420.568 343.104C420.568 343.944 420.619 344.649 420.722 345.218C420.834 345.788 421.053 346.245 421.38 346.59C421.716 346.936 422.201 347.108 422.836 347.108C423.461 347.108 423.937 346.936 424.264 346.59C424.6 346.245 424.819 345.788 424.922 345.218C425.034 344.649 425.09 343.944 425.09 343.104ZM428.349 343.104C428.349 341.499 428.61 340.248 429.133 339.352C429.655 338.447 430.57 337.994 431.877 337.994C433.174 337.994 434.084 338.447 434.607 339.352C435.129 340.248 435.391 341.499 435.391 343.104C435.391 344.738 435.129 346.007 434.607 346.912C434.084 347.818 433.174 348.27 431.877 348.27C430.57 348.27 429.655 347.818 429.133 346.912C428.61 346.007 428.349 344.738 428.349 343.104ZM434.131 343.104C434.131 342.292 434.075 341.606 433.963 341.046C433.86 340.477 433.641 340.02 433.305 339.674C432.978 339.329 432.502 339.156 431.877 339.156C431.242 339.156 430.757 339.329 430.421 339.674C430.094 340.02 429.875 340.477 429.763 341.046C429.66 341.606 429.609 342.292 429.609 343.104C429.609 343.944 429.66 344.649 429.763 345.218C429.875 345.788 430.094 346.245 430.421 346.59C430.757 346.936 431.242 347.108 431.877 347.108C432.502 347.108 432.978 346.936 433.305 346.59C433.641 346.245 433.86 345.788 433.963 345.218C434.075 344.649 434.131 343.944 434.131 343.104Z" fill="#12152E"/>
<path d="M403.05 371.244C403.405 371.3 403.727 371.445 404.016 371.678C404.315 371.912 404.548 372.201 404.716 372.546C404.894 372.892 404.982 373.26 404.982 373.652C404.982 374.147 404.856 374.595 404.604 374.996C404.352 375.388 403.984 375.701 403.498 375.934C403.022 376.158 402.458 376.27 401.804 376.27H398.164V366.512H401.664C402.327 366.512 402.892 366.624 403.358 366.848C403.825 367.063 404.175 367.357 404.408 367.73C404.642 368.104 404.758 368.524 404.758 368.99C404.758 369.569 404.6 370.05 404.282 370.432C403.974 370.806 403.564 371.076 403.05 371.244ZM399.438 370.726H401.58C402.178 370.726 402.64 370.586 402.966 370.306C403.293 370.026 403.456 369.639 403.456 369.144C403.456 368.65 403.293 368.262 402.966 367.982C402.64 367.702 402.168 367.562 401.552 367.562H399.438V370.726ZM401.692 375.22C402.327 375.22 402.822 375.071 403.176 374.772C403.531 374.474 403.708 374.058 403.708 373.526C403.708 372.985 403.522 372.56 403.148 372.252C402.775 371.935 402.276 371.776 401.65 371.776H399.438V375.22H401.692ZM414 372.14C414 372.383 413.986 372.64 413.958 372.91H407.826C407.873 373.666 408.129 374.259 408.596 374.688C409.072 375.108 409.646 375.318 410.318 375.318C410.869 375.318 411.326 375.192 411.69 374.94C412.063 374.679 412.325 374.334 412.474 373.904H413.846C413.641 374.642 413.23 375.244 412.614 375.71C411.998 376.168 411.233 376.396 410.318 376.396C409.59 376.396 408.937 376.233 408.358 375.906C407.789 375.58 407.341 375.118 407.014 374.52C406.687 373.914 406.524 373.214 406.524 372.42C406.524 371.627 406.683 370.932 407 370.334C407.317 369.737 407.761 369.28 408.33 368.962C408.909 368.636 409.571 368.472 410.318 368.472C411.046 368.472 411.69 368.631 412.25 368.948C412.81 369.266 413.239 369.704 413.538 370.264C413.846 370.815 414 371.44 414 372.14ZM412.684 371.874C412.684 371.389 412.577 370.974 412.362 370.628C412.147 370.274 411.853 370.008 411.48 369.83C411.116 369.644 410.71 369.55 410.262 369.55C409.618 369.55 409.067 369.756 408.61 370.166C408.162 370.577 407.905 371.146 407.84 371.874H412.684ZM417.206 365.91V376.27H415.932V365.91H417.206ZM419.151 372.406C419.151 371.622 419.31 370.936 419.627 370.348C419.944 369.751 420.378 369.289 420.929 368.962C421.489 368.636 422.11 368.472 422.791 368.472C423.463 368.472 424.046 368.617 424.541 368.906C425.036 369.196 425.404 369.56 425.647 369.998V368.598H426.935V376.27H425.647V374.842C425.395 375.29 425.017 375.664 424.513 375.962C424.018 376.252 423.44 376.396 422.777 376.396C422.096 376.396 421.48 376.228 420.929 375.892C420.378 375.556 419.944 375.085 419.627 374.478C419.31 373.872 419.151 373.181 419.151 372.406ZM425.647 372.42C425.647 371.842 425.53 371.338 425.297 370.908C425.064 370.479 424.746 370.152 424.345 369.928C423.953 369.695 423.519 369.578 423.043 369.578C422.567 369.578 422.133 369.69 421.741 369.914C421.349 370.138 421.036 370.465 420.803 370.894C420.57 371.324 420.453 371.828 420.453 372.406C420.453 372.994 420.57 373.508 420.803 373.946C421.036 374.376 421.349 374.707 421.741 374.94C422.133 375.164 422.567 375.276 423.043 375.276C423.519 375.276 423.953 375.164 424.345 374.94C424.746 374.707 425.064 374.376 425.297 373.946C425.53 373.508 425.647 372.999 425.647 372.42ZM433.076 368.458C434.009 368.458 434.765 368.743 435.344 369.312C435.923 369.872 436.212 370.684 436.212 371.748V376.27H434.952V371.93C434.952 371.165 434.761 370.582 434.378 370.18C433.995 369.77 433.473 369.564 432.81 369.564C432.138 369.564 431.601 369.774 431.2 370.194C430.808 370.614 430.612 371.226 430.612 372.028V376.27H429.338V368.598H430.612V369.69C430.864 369.298 431.205 368.995 431.634 368.78C432.073 368.566 432.553 368.458 433.076 368.458ZM438.067 372.42C438.067 371.627 438.226 370.936 438.543 370.348C438.86 369.751 439.299 369.289 439.859 368.962C440.428 368.636 441.077 368.472 441.805 368.472C442.748 368.472 443.522 368.701 444.129 369.158C444.745 369.616 445.151 370.25 445.347 371.062H443.975C443.844 370.596 443.588 370.227 443.205 369.956C442.832 369.686 442.365 369.55 441.805 369.55C441.077 369.55 440.489 369.802 440.041 370.306C439.593 370.801 439.369 371.506 439.369 372.42C439.369 373.344 439.593 374.058 440.041 374.562C440.489 375.066 441.077 375.318 441.805 375.318C442.365 375.318 442.832 375.188 443.205 374.926C443.578 374.665 443.835 374.292 443.975 373.806H445.347C445.142 374.59 444.731 375.22 444.115 375.696C443.499 376.163 442.729 376.396 441.805 376.396C441.077 376.396 440.428 376.233 439.859 375.906C439.299 375.58 438.86 375.118 438.543 374.52C438.226 373.923 438.067 373.223 438.067 372.42ZM454.297 372.14C454.297 372.383 454.283 372.64 454.255 372.91H448.123C448.17 373.666 448.426 374.259 448.893 374.688C449.369 375.108 449.943 375.318 450.615 375.318C451.166 375.318 451.623 375.192 451.987 374.94C452.36 374.679 452.622 374.334 452.771 373.904H454.143C453.938 374.642 453.527 375.244 452.911 375.71C452.295 376.168 451.53 376.396 450.615 376.396C449.887 376.396 449.234 376.233 448.655 375.906C448.086 375.58 447.638 375.118 447.311 374.52C446.984 373.914 446.821 373.214 446.821 372.42C446.821 371.627 446.98 370.932 447.297 370.334C447.614 369.737 448.058 369.28 448.627 368.962C449.206 368.636 449.868 368.472 450.615 368.472C451.343 368.472 451.987 368.631 452.547 368.948C453.107 369.266 453.536 369.704 453.835 370.264C454.143 370.815 454.297 371.44 454.297 372.14ZM452.981 371.874C452.981 371.389 452.874 370.974 452.659 370.628C452.444 370.274 452.15 370.008 451.777 369.83C451.413 369.644 451.007 369.55 450.559 369.55C449.915 369.55 449.364 369.756 448.907 370.166C448.459 370.577 448.202 371.146 448.137 371.874H452.981Z" fill="#13CAE6"/>
<path d="M399.592 393.554C399.686 394.086 399.9 394.497 400.236 394.786C400.582 395.076 401.044 395.22 401.622 395.22C402.397 395.22 402.966 394.917 403.33 394.31C403.704 393.704 403.881 392.682 403.862 391.244C403.666 391.664 403.34 391.996 402.882 392.238C402.425 392.472 401.916 392.588 401.356 392.588C400.731 392.588 400.171 392.462 399.676 392.21C399.191 391.949 398.808 391.571 398.528 391.076C398.248 390.582 398.108 389.984 398.108 389.284C398.108 388.286 398.398 387.483 398.976 386.876C399.555 386.26 400.376 385.952 401.44 385.952C402.747 385.952 403.662 386.377 404.184 387.226C404.716 388.076 404.982 389.34 404.982 391.02C404.982 392.196 404.875 393.167 404.66 393.932C404.455 394.698 404.1 395.281 403.596 395.682C403.102 396.084 402.42 396.284 401.552 396.284C400.6 396.284 399.858 396.028 399.326 395.514C398.794 395.001 398.491 394.348 398.416 393.554H399.592ZM401.566 391.51C402.192 391.51 402.705 391.319 403.106 390.936C403.508 390.544 403.708 390.017 403.708 389.354C403.708 388.654 403.512 388.09 403.12 387.66C402.728 387.231 402.178 387.016 401.468 387.016C400.815 387.016 400.292 387.222 399.9 387.632C399.518 388.043 399.326 388.584 399.326 389.256C399.326 389.938 399.518 390.484 399.9 390.894C400.283 391.305 400.838 391.51 401.566 391.51ZM412.665 388.556C412.459 387.52 411.82 387.002 410.747 387.002C409.916 387.002 409.295 387.324 408.885 387.968C408.474 388.603 408.273 389.653 408.283 391.118C408.497 390.633 408.852 390.255 409.347 389.984C409.851 389.704 410.411 389.564 411.027 389.564C411.988 389.564 412.753 389.863 413.323 390.46C413.901 391.058 414.191 391.884 414.191 392.938C414.191 393.573 414.065 394.142 413.813 394.646C413.57 395.15 413.197 395.552 412.693 395.85C412.198 396.149 411.596 396.298 410.887 396.298C409.925 396.298 409.174 396.084 408.633 395.654C408.091 395.225 407.713 394.632 407.499 393.876C407.284 393.12 407.177 392.187 407.177 391.076C407.177 387.651 408.371 385.938 410.761 385.938C411.675 385.938 412.394 386.186 412.917 386.68C413.439 387.175 413.747 387.8 413.841 388.556H412.665ZM410.761 390.642C410.359 390.642 409.981 390.726 409.627 390.894C409.272 391.053 408.983 391.3 408.759 391.636C408.544 391.963 408.437 392.364 408.437 392.84C408.437 393.55 408.642 394.128 409.053 394.576C409.463 395.015 410.051 395.234 410.817 395.234C411.47 395.234 411.988 395.034 412.371 394.632C412.763 394.222 412.959 393.671 412.959 392.98C412.959 392.252 412.772 391.683 412.399 391.272C412.025 390.852 411.479 390.642 410.761 390.642ZM417.797 393.554C417.891 394.086 418.105 394.497 418.441 394.786C418.787 395.076 419.249 395.22 419.827 395.22C420.602 395.22 421.171 394.917 421.535 394.31C421.909 393.704 422.086 392.682 422.067 391.244C421.871 391.664 421.545 391.996 421.087 392.238C420.63 392.472 420.121 392.588 419.561 392.588C418.936 392.588 418.376 392.462 417.881 392.21C417.396 391.949 417.013 391.571 416.733 391.076C416.453 390.582 416.313 389.984 416.313 389.284C416.313 388.286 416.603 387.483 417.181 386.876C417.76 386.26 418.581 385.952 419.645 385.952C420.952 385.952 421.867 386.377 422.389 387.226C422.921 388.076 423.187 389.34 423.187 391.02C423.187 392.196 423.08 393.167 422.865 393.932C422.66 394.698 422.305 395.281 421.801 395.682C421.307 396.084 420.625 396.284 419.757 396.284C418.805 396.284 418.063 396.028 417.531 395.514C416.999 395.001 416.696 394.348 416.621 393.554H417.797ZM419.771 391.51C420.397 391.51 420.91 391.319 421.311 390.936C421.713 390.544 421.913 390.017 421.913 389.354C421.913 388.654 421.717 388.09 421.325 387.66C420.933 387.231 420.383 387.016 419.673 387.016C419.02 387.016 418.497 387.222 418.105 387.632C417.723 388.043 417.531 388.584 417.531 389.256C417.531 389.938 417.723 390.484 418.105 390.894C418.488 391.305 419.043 391.51 419.771 391.51ZM426.754 394.506L425.186 398.272H424.332L425.354 394.506H426.754ZM428.253 391.104C428.253 389.499 428.514 388.248 429.037 387.352C429.56 386.447 430.474 385.994 431.781 385.994C433.078 385.994 433.988 386.447 434.511 387.352C435.034 388.248 435.295 389.499 435.295 391.104C435.295 392.738 435.034 394.007 434.511 394.912C433.988 395.818 433.078 396.27 431.781 396.27C430.474 396.27 429.56 395.818 429.037 394.912C428.514 394.007 428.253 392.738 428.253 391.104ZM434.035 391.104C434.035 390.292 433.979 389.606 433.867 389.046C433.764 388.477 433.545 388.02 433.209 387.674C432.882 387.329 432.406 387.156 431.781 387.156C431.146 387.156 430.661 387.329 430.325 387.674C429.998 388.02 429.779 388.477 429.667 389.046C429.564 389.606 429.513 390.292 429.513 391.104C429.513 391.944 429.564 392.649 429.667 393.218C429.779 393.788 429.998 394.245 430.325 394.59C430.661 394.936 431.146 395.108 431.781 395.108C432.406 395.108 432.882 394.936 433.209 394.59C433.545 394.245 433.764 393.788 433.867 393.218C433.979 392.649 434.035 391.944 434.035 391.104ZM439.142 391.006C438.619 390.801 438.218 390.502 437.938 390.11C437.658 389.718 437.518 389.242 437.518 388.682C437.518 388.178 437.644 387.726 437.896 387.324C438.148 386.914 438.521 386.592 439.016 386.358C439.52 386.116 440.127 385.994 440.836 385.994C441.545 385.994 442.147 386.116 442.642 386.358C443.146 386.592 443.524 386.914 443.776 387.324C444.037 387.726 444.168 388.178 444.168 388.682C444.168 389.224 444.023 389.7 443.734 390.11C443.445 390.512 443.048 390.81 442.544 391.006C443.123 391.184 443.58 391.496 443.916 391.944C444.261 392.383 444.434 392.915 444.434 393.54C444.434 394.147 444.285 394.679 443.986 395.136C443.687 395.584 443.263 395.934 442.712 396.186C442.171 396.429 441.545 396.55 440.836 396.55C440.127 396.55 439.501 396.429 438.96 396.186C438.428 395.934 438.013 395.584 437.714 395.136C437.415 394.679 437.266 394.147 437.266 393.54C437.266 392.915 437.434 392.378 437.77 391.93C438.106 391.482 438.563 391.174 439.142 391.006ZM442.936 388.836C442.936 388.267 442.749 387.828 442.376 387.52C442.003 387.212 441.489 387.058 440.836 387.058C440.192 387.058 439.683 387.212 439.31 387.52C438.937 387.828 438.75 388.272 438.75 388.85C438.75 389.373 438.941 389.793 439.324 390.11C439.716 390.428 440.22 390.586 440.836 390.586C441.461 390.586 441.965 390.428 442.348 390.11C442.74 389.784 442.936 389.359 442.936 388.836ZM440.836 391.566C440.145 391.566 439.581 391.73 439.142 392.056C438.703 392.374 438.484 392.854 438.484 393.498C438.484 394.096 438.694 394.576 439.114 394.94C439.543 395.304 440.117 395.486 440.836 395.486C441.555 395.486 442.124 395.304 442.544 394.94C442.964 394.576 443.174 394.096 443.174 393.498C443.174 392.873 442.959 392.397 442.53 392.07C442.101 391.734 441.536 391.566 440.836 391.566ZM452.606 387.142L448.714 396.27H447.426L451.374 387.268H445.97V386.176H452.606V387.142Z" fill="black" fill-opacity="0.87"/>
<path d="M403.05 419.244C403.405 419.3 403.727 419.445 404.016 419.678C404.315 419.912 404.548 420.201 404.716 420.546C404.894 420.892 404.982 421.26 404.982 421.652C404.982 422.147 404.856 422.595 404.604 422.996C404.352 423.388 403.984 423.701 403.498 423.934C403.022 424.158 402.458 424.27 401.804 424.27H398.164V414.512H401.664C402.327 414.512 402.892 414.624 403.358 414.848C403.825 415.063 404.175 415.357 404.408 415.73C404.642 416.104 404.758 416.524 404.758 416.99C404.758 417.569 404.6 418.05 404.282 418.432C403.974 418.806 403.564 419.076 403.05 419.244ZM399.438 418.726H401.58C402.178 418.726 402.64 418.586 402.966 418.306C403.293 418.026 403.456 417.639 403.456 417.144C403.456 416.65 403.293 416.262 402.966 415.982C402.64 415.702 402.168 415.562 401.552 415.562H399.438V418.726ZM401.692 423.22C402.327 423.22 402.822 423.071 403.176 422.772C403.531 422.474 403.708 422.058 403.708 421.526C403.708 420.985 403.522 420.56 403.148 420.252C402.775 419.935 402.276 419.776 401.65 419.776H399.438V423.22H401.692ZM406.524 420.406C406.524 419.622 406.683 418.936 407 418.348C407.317 417.751 407.751 417.289 408.302 416.962C408.862 416.636 409.483 416.472 410.164 416.472C410.836 416.472 411.419 416.617 411.914 416.906C412.409 417.196 412.777 417.56 413.02 417.998V416.598H414.308V424.27H413.02V422.842C412.768 423.29 412.39 423.664 411.886 423.962C411.391 424.252 410.813 424.396 410.15 424.396C409.469 424.396 408.853 424.228 408.302 423.892C407.751 423.556 407.317 423.085 407 422.478C406.683 421.872 406.524 421.181 406.524 420.406ZM413.02 420.42C413.02 419.842 412.903 419.338 412.67 418.908C412.437 418.479 412.119 418.152 411.718 417.928C411.326 417.695 410.892 417.578 410.416 417.578C409.94 417.578 409.506 417.69 409.114 417.914C408.722 418.138 408.409 418.465 408.176 418.894C407.943 419.324 407.826 419.828 407.826 420.406C407.826 420.994 407.943 421.508 408.176 421.946C408.409 422.376 408.722 422.707 409.114 422.94C409.506 423.164 409.94 423.276 410.416 423.276C410.892 423.276 411.326 423.164 411.718 422.94C412.119 422.707 412.437 422.376 412.67 421.946C412.903 421.508 413.02 420.999 413.02 420.42ZM417.985 413.91V424.27H416.711V413.91H417.985ZM421.96 417.648V422.17C421.96 422.544 422.04 422.81 422.198 422.968C422.357 423.118 422.632 423.192 423.024 423.192H423.962V424.27H422.814C422.105 424.27 421.573 424.107 421.218 423.78C420.864 423.454 420.686 422.917 420.686 422.17V417.648H419.692V416.598H420.686V414.666H421.96V416.598H423.962V417.648H421.96ZM426.414 415.352C426.171 415.352 425.966 415.268 425.798 415.1C425.63 414.932 425.546 414.727 425.546 414.484C425.546 414.242 425.63 414.036 425.798 413.868C425.966 413.7 426.171 413.616 426.414 413.616C426.647 413.616 426.843 413.7 427.002 413.868C427.17 414.036 427.254 414.242 427.254 414.484C427.254 414.727 427.17 414.932 427.002 415.1C426.843 415.268 426.647 415.352 426.414 415.352ZM427.03 416.598V424.27H425.756V416.598H427.03ZM438.677 416.458C439.275 416.458 439.807 416.584 440.273 416.836C440.74 417.079 441.109 417.448 441.379 417.942C441.65 418.437 441.785 419.039 441.785 419.748V424.27H440.525V419.93C440.525 419.165 440.334 418.582 439.951 418.18C439.578 417.77 439.069 417.564 438.425 417.564C437.763 417.564 437.235 417.779 436.843 418.208C436.451 418.628 436.255 419.24 436.255 420.042V424.27H434.995V419.93C434.995 419.165 434.804 418.582 434.421 418.18C434.048 417.77 433.539 417.564 432.895 417.564C432.233 417.564 431.705 417.779 431.313 418.208C430.921 418.628 430.725 419.24 430.725 420.042V424.27H429.451V416.598H430.725V417.704C430.977 417.303 431.313 416.995 431.733 416.78C432.163 416.566 432.634 416.458 433.147 416.458C433.791 416.458 434.361 416.603 434.855 416.892C435.35 417.182 435.719 417.606 435.961 418.166C436.176 417.625 436.531 417.205 437.025 416.906C437.52 416.608 438.071 416.458 438.677 416.458ZM447.471 424.396C446.752 424.396 446.099 424.233 445.511 423.906C444.932 423.58 444.475 423.118 444.139 422.52C443.812 421.914 443.649 421.214 443.649 420.42C443.649 419.636 443.817 418.946 444.153 418.348C444.498 417.742 444.965 417.28 445.553 416.962C446.141 416.636 446.799 416.472 447.527 416.472C448.255 416.472 448.913 416.636 449.501 416.962C450.089 417.28 450.551 417.737 450.887 418.334C451.232 418.932 451.405 419.627 451.405 420.42C451.405 421.214 451.228 421.914 450.873 422.52C450.528 423.118 450.056 423.58 449.459 423.906C448.862 424.233 448.199 424.396 447.471 424.396ZM447.471 423.276C447.928 423.276 448.358 423.169 448.759 422.954C449.16 422.74 449.482 422.418 449.725 421.988C449.977 421.559 450.103 421.036 450.103 420.42C450.103 419.804 449.982 419.282 449.739 418.852C449.496 418.423 449.179 418.106 448.787 417.9C448.395 417.686 447.97 417.578 447.513 417.578C447.046 417.578 446.617 417.686 446.225 417.9C445.842 418.106 445.534 418.423 445.301 418.852C445.068 419.282 444.951 419.804 444.951 420.42C444.951 421.046 445.063 421.573 445.287 422.002C445.52 422.432 445.828 422.754 446.211 422.968C446.594 423.174 447.014 423.276 447.471 423.276ZM454.604 417.844C454.828 417.406 455.146 417.065 455.556 416.822C455.976 416.58 456.485 416.458 457.082 416.458V417.774H456.746C455.318 417.774 454.604 418.549 454.604 420.098V424.27H453.33V416.598H454.604V417.844ZM465.803 420.14C465.803 420.383 465.789 420.64 465.761 420.91H459.629C459.676 421.666 459.932 422.259 460.399 422.688C460.875 423.108 461.449 423.318 462.121 423.318C462.672 423.318 463.129 423.192 463.493 422.94C463.866 422.679 464.128 422.334 464.277 421.904H465.649C465.444 422.642 465.033 423.244 464.417 423.71C463.801 424.168 463.036 424.396 462.121 424.396C461.393 424.396 460.74 424.233 460.161 423.906C459.592 423.58 459.144 423.118 458.817 422.52C458.49 421.914 458.327 421.214 458.327 420.42C458.327 419.627 458.486 418.932 458.803 418.334C459.12 417.737 459.564 417.28 460.133 416.962C460.712 416.636 461.374 416.472 462.121 416.472C462.849 416.472 463.493 416.631 464.053 416.948C464.613 417.266 465.042 417.704 465.341 418.264C465.649 418.815 465.803 419.44 465.803 420.14ZM464.487 419.874C464.487 419.389 464.38 418.974 464.165 418.628C463.95 418.274 463.656 418.008 463.283 417.83C462.919 417.644 462.513 417.55 462.065 417.55C461.421 417.55 460.87 417.756 460.413 418.166C459.965 418.577 459.708 419.146 459.643 419.874H464.487Z" fill="#FFAB36"/>
<path d="M404.184 435.142L400.292 444.27H399.004L402.952 435.268H397.548V434.176H404.184V435.142ZM405.819 436.696C405.884 435.838 406.215 435.166 406.813 434.68C407.41 434.195 408.185 433.952 409.137 433.952C409.771 433.952 410.317 434.069 410.775 434.302C411.241 434.526 411.591 434.834 411.825 435.226C412.067 435.618 412.189 436.062 412.189 436.556C412.189 437.135 412.021 437.634 411.685 438.054C411.358 438.474 410.929 438.745 410.397 438.866V438.936C411.003 439.086 411.484 439.38 411.839 439.818C412.193 440.257 412.371 440.831 412.371 441.54C412.371 442.072 412.249 442.553 412.007 442.982C411.764 443.402 411.4 443.734 410.915 443.976C410.429 444.219 409.846 444.34 409.165 444.34C408.175 444.34 407.363 444.084 406.729 443.57C406.094 443.048 405.739 442.31 405.665 441.358H406.897C406.962 441.918 407.191 442.376 407.583 442.73C407.975 443.085 408.497 443.262 409.151 443.262C409.804 443.262 410.299 443.094 410.635 442.758C410.98 442.413 411.153 441.97 411.153 441.428C411.153 440.728 410.919 440.224 410.453 439.916C409.986 439.608 409.281 439.454 408.339 439.454H408.017V438.39H408.353C409.211 438.381 409.86 438.241 410.299 437.97C410.737 437.69 410.957 437.261 410.957 436.682C410.957 436.188 410.793 435.791 410.467 435.492C410.149 435.194 409.692 435.044 409.095 435.044C408.516 435.044 408.049 435.194 407.695 435.492C407.34 435.791 407.13 436.192 407.065 436.696H405.819ZM414.341 439.104C414.341 437.499 414.602 436.248 415.125 435.352C415.648 434.447 416.562 433.994 417.869 433.994C419.166 433.994 420.076 434.447 420.599 435.352C421.122 436.248 421.383 437.499 421.383 439.104C421.383 440.738 421.122 442.007 420.599 442.912C420.076 443.818 419.166 444.27 417.869 444.27C416.562 444.27 415.648 443.818 415.125 442.912C414.602 442.007 414.341 440.738 414.341 439.104ZM420.123 439.104C420.123 438.292 420.067 437.606 419.955 437.046C419.852 436.477 419.633 436.02 419.297 435.674C418.97 435.329 418.494 435.156 417.869 435.156C417.234 435.156 416.749 435.329 416.413 435.674C416.086 436.02 415.867 436.477 415.755 437.046C415.652 437.606 415.601 438.292 415.601 439.104C415.601 439.944 415.652 440.649 415.755 441.218C415.867 441.788 416.086 442.245 416.413 442.59C416.749 442.936 417.234 443.108 417.869 443.108C418.494 443.108 418.97 442.936 419.297 442.59C419.633 442.245 419.852 441.788 419.955 441.218C420.067 440.649 420.123 439.944 420.123 439.104ZM424.908 442.506L423.34 446.272H422.486L423.508 442.506H424.908ZM432.637 435.142L428.745 444.27H427.457L431.405 435.268H426.001V434.176H432.637V435.142ZM434.3 439.104C434.3 437.499 434.561 436.248 435.084 435.352C435.607 434.447 436.521 433.994 437.828 433.994C439.125 433.994 440.035 434.447 440.558 435.352C441.081 436.248 441.342 437.499 441.342 439.104C441.342 440.738 441.081 442.007 440.558 442.912C440.035 443.818 439.125 444.27 437.828 444.27C436.521 444.27 435.607 443.818 435.084 442.912C434.561 442.007 434.3 440.738 434.3 439.104ZM440.082 439.104C440.082 438.292 440.026 437.606 439.914 437.046C439.811 436.477 439.592 436.02 439.256 435.674C438.929 435.329 438.453 435.156 437.828 435.156C437.193 435.156 436.708 435.329 436.372 435.674C436.045 436.02 435.826 436.477 435.714 437.046C435.611 437.606 435.56 438.292 435.56 439.104C435.56 439.944 435.611 440.649 435.714 441.218C435.826 441.788 436.045 442.245 436.372 442.59C436.708 442.936 437.193 443.108 437.828 443.108C438.453 443.108 438.929 442.936 439.256 442.59C439.592 442.245 439.811 441.788 439.914 441.218C440.026 440.649 440.082 439.944 440.082 439.104ZM445.189 439.006C444.666 438.801 444.265 438.502 443.985 438.11C443.705 437.718 443.565 437.242 443.565 436.682C443.565 436.178 443.691 435.726 443.943 435.324C444.195 434.914 444.568 434.592 445.063 434.358C445.567 434.116 446.174 433.994 446.883 433.994C447.592 433.994 448.194 434.116 448.689 434.358C449.193 434.592 449.571 434.914 449.823 435.324C450.084 435.726 450.215 436.178 450.215 436.682C450.215 437.224 450.07 437.7 449.781 438.11C449.492 438.512 449.095 438.81 448.591 439.006C449.17 439.184 449.627 439.496 449.963 439.944C450.308 440.383 450.481 440.915 450.481 441.54C450.481 442.147 450.332 442.679 450.033 443.136C449.734 443.584 449.31 443.934 448.759 444.186C448.218 444.429 447.592 444.55 446.883 444.55C446.174 444.55 445.548 444.429 445.007 444.186C444.475 443.934 444.06 443.584 443.761 443.136C443.462 442.679 443.313 442.147 443.313 441.54C443.313 440.915 443.481 440.378 443.817 439.93C444.153 439.482 444.61 439.174 445.189 439.006ZM448.983 436.836C448.983 436.267 448.796 435.828 448.423 435.52C448.05 435.212 447.536 435.058 446.883 435.058C446.239 435.058 445.73 435.212 445.357 435.52C444.984 435.828 444.797 436.272 444.797 436.85C444.797 437.373 444.988 437.793 445.371 438.11C445.763 438.428 446.267 438.586 446.883 438.586C447.508 438.586 448.012 438.428 448.395 438.11C448.787 437.784 448.983 437.359 448.983 436.836ZM446.883 439.566C446.192 439.566 445.628 439.73 445.189 440.056C444.75 440.374 444.531 440.854 444.531 441.498C444.531 442.096 444.741 442.576 445.161 442.94C445.59 443.304 446.164 443.486 446.883 443.486C447.602 443.486 448.171 443.304 448.591 442.94C449.011 442.576 449.221 442.096 449.221 441.498C449.221 440.873 449.006 440.397 448.577 440.07C448.148 439.734 447.583 439.566 446.883 439.566Z" fill="black" fill-opacity="0.87"/>
</g>
<rect x="150.5" y="142.5" width="487" height="371" rx="29.5" stroke="#12152E"/>
</g>
<defs>
<filter id="filter0_d" x="0" y="0" width="788" height="672" filterUnits="userSpaceOnUse" color-interpolation-filters="sRGB">
<feFlood flood-opacity="0" result="BackgroundImageFix"/>
<feColorMatrix in="SourceAlpha" type="matrix" values="0 0 0 0 0 0 0 0 0 0 0 0 0 0 0 0 0 0 127 0"/>
<feOffset dy="8"/>
<feGaussianBlur stdDeviation="75"/>
<feColorMatrix type="matrix" values="0 0 0 0 0.0705882 0 0 0 0 0.0823529 0 0 0 0 0.180392 0 0 0 0.15 0"/>
<feBlend mode="normal" in2="BackgroundImageFix" result="effect1_dropShadow"/>
<feBlend mode="normal" in="SourceGraphic" in2="effect1_dropShadow" result="shape"/>
</filter>
<filter id="filter1_d" x="355.758" y="416.793" width="18" height="18" filterUnits="userSpaceOnUse" color-interpolation-filters="sRGB">
<feFlood flood-opacity="0" result="BackgroundImageFix"/>
<feColorMatrix in="SourceAlpha" type="matrix" values="0 0 0 0 0 0 0 0 0 0 0 0 0 0 0 0 0 0 127 0"/>
<feMorphology radius="5" operator="dilate" in="SourceAlpha" result="effect1_dropShadow"/>
<feOffset/>
<feColorMatrix type="matrix" values="0 0 0 0 0.545098 0 0 0 0 0.521569 0 0 0 0 0.886275 0 0 0 0.15 0"/>
<feBlend mode="normal" in2="BackgroundImageFix" result="effect1_dropShadow"/>
<feBlend mode="normal" in="SourceGraphic" in2="effect1_dropShadow" result="shape"/>
</filter>
<filter id="filter2_d" x="355.758" y="433.27" width="18" height="18" filterUnits="userSpaceOnUse" color-interpolation-filters="sRGB">
<feFlood flood-opacity="0" result="BackgroundImageFix"/>
<feColorMatrix in="SourceAlpha" type="matrix" values="0 0 0 0 0 0 0 0 0 0 0 0 0 0 0 0 0 0 127 0"/>
<feMorphology radius="5" operator="dilate" in="SourceAlpha" result="effect1_dropShadow"/>
<feOffset/>
<feColorMatrix type="matrix" values="0 0 0 0 0.956863 0 0 0 0 0.631373 0 0 0 0 0.392157 0 0 0 0.15 0"/>
<feBlend mode="normal" in2="BackgroundImageFix" result="effect1_dropShadow"/>
<feBlend mode="normal" in="SourceGraphic" in2="effect1_dropShadow" result="shape"/>
</filter>
<filter id="filter3_ddd" x="331.086" y="275.27" width="202" height="232" filterUnits="userSpaceOnUse" color-interpolation-filters="sRGB">
<feFlood flood-opacity="0" result="BackgroundImageFix"/>
<feColorMatrix in="SourceAlpha" type="matrix" values="0 0 0 0 0 0 0 0 0 0 0 0 0 0 0 0 0 0 127 0"/>
<feOffset/>
<feGaussianBlur stdDeviation="25"/>
<feColorMatrix type="matrix" values="0 0 0 0 0.0705882 0 0 0 0 0.0823529 0 0 0 0 0.180392 0 0 0 0.07 0"/>
<feBlend mode="normal" in2="BackgroundImageFix" result="effect1_dropShadow"/>
<feColorMatrix in="SourceAlpha" type="matrix" values="0 0 0 0 0 0 0 0 0 0 0 0 0 0 0 0 0 0 127 0"/>
<feOffset dy="1"/>
<feGaussianBlur stdDeviation="1.5"/>
<feColorMatrix type="matrix" values="0 0 0 0 0.0588235 0 0 0 0 0.133333 0 0 0 0 0.262745 0 0 0 0.12 0"/>
<feBlend mode="normal" in2="effect1_dropShadow" result="effect2_dropShadow"/>
<feColorMatrix in="SourceAlpha" type="matrix" values="0 0 0 0 0 0 0 0 0 0 0 0 0 0 0 0 0 0 127 0"/>
<feMorphology radius="6" operator="erode" in="SourceAlpha" result="effect3_dropShadow"/>
<feOffset dy="8"/>
<feGaussianBlur stdDeviation="12"/>
<feColorMatrix type="matrix" values="0 0 0 0 0.0588235 0 0 0 0 0.133333 0 0 0 0 0.262745 0 0 0 0.16 0"/>
<feBlend mode="normal" in2="effect2_dropShadow" result="effect3_dropShadow"/>
<feBlend mode="normal" in="SourceGraphic" in2="effect3_dropShadow" result="shape"/>
</filter>
<linearGradient id="paint0_linear" x1="19.7143" y1="0" x2="19.7143" y2="242" gradientUnits="userSpaceOnUse">
<stop stop-color="#1B1664" stop-opacity="0"/>
<stop offset="1" stop-color="#1B1664"/>
</linearGradient>
</defs>
</svg>
