<svg width="34" height="28" viewBox="0 0 34 34" fill="none" xmlns="http://www.w3.org/2000/svg">
<path fill-rule="evenodd" clip-rule="evenodd" d="M9.7835 0.33313H24.2335C29.8835 0.33313 33.6668 4.2998 33.6668 10.1998V23.8181C33.6668 29.6998 29.8835 33.6665 24.2335 33.6665H9.7835C4.1335 33.6665 0.333496 29.6998 0.333496 23.8181V10.1998C0.333496 4.2998 4.1335 0.33313 9.7835 0.33313ZM16.0501 21.9831L23.9668 14.0665C24.5335 13.4998 24.5335 12.5831 23.9668 11.9998C23.4001 11.4331 22.4668 11.4331 21.9001 11.9998L15.0168 18.8831L12.1001 15.9665C11.5335 15.3998 10.6001 15.3998 10.0335 15.9665C9.46679 16.5331 9.46679 17.4498 10.0335 18.0331L14.0001 21.9831C14.2835 22.2665 14.6501 22.3998 15.0168 22.3998C15.4001 22.3998 15.7668 22.2665 16.0501 21.9831Z" fill="#13CAE6"/>
</svg>
