<svg width="217" height="55" viewBox="0 0 217 78" fill="none" xmlns="http://www.w3.org/2000/svg">
<rect width="217" height="78" rx="18" fill="#12152E"/>
<path d="M87.868 28.14H84.22L83.548 30H82.396L85.42 21.684H86.68L89.692 30H88.54L87.868 28.14ZM87.556 27.252L86.044 23.028L84.532 27.252H87.556ZM94.4579 28.992L96.4979 23.424H97.6619L95.0819 30H93.8099L91.2299 23.424H92.4059L94.4579 28.992ZM99.3285 26.688C99.3285 26.016 99.4645 25.428 99.7365 24.924C100.009 24.412 100.381 24.016 100.853 23.736C101.333 23.456 101.865 23.316 102.449 23.316C103.025 23.316 103.525 23.44 103.949 23.688C104.373 23.936 104.689 24.248 104.897 24.624V23.424H106.001V30H104.897V28.776C104.681 29.16 104.357 29.48 103.925 29.736C103.501 29.984 103.005 30.108 102.437 30.108C101.853 30.108 101.325 29.964 100.853 29.676C100.381 29.388 100.009 28.984 99.7365 28.464C99.4645 27.944 99.3285 27.352 99.3285 26.688ZM104.897 26.7C104.897 26.204 104.797 25.772 104.597 25.404C104.397 25.036 104.125 24.756 103.781 24.564C103.445 24.364 103.073 24.264 102.665 24.264C102.257 24.264 101.885 24.36 101.549 24.552C101.213 24.744 100.945 25.024 100.745 25.392C100.545 25.76 100.445 26.192 100.445 26.688C100.445 27.192 100.545 27.632 100.745 28.008C100.945 28.376 101.213 28.66 101.549 28.86C101.885 29.052 102.257 29.148 102.665 29.148C103.073 29.148 103.445 29.052 103.781 28.86C104.125 28.66 104.397 28.376 104.597 28.008C104.797 27.632 104.897 27.196 104.897 26.7ZM109.938 21.12V30H108.846V21.12H109.938ZM113.363 22.356C113.155 22.356 112.979 22.284 112.835 22.14C112.691 21.996 112.619 21.82 112.619 21.612C112.619 21.404 112.691 21.228 112.835 21.084C112.979 20.94 113.155 20.868 113.363 20.868C113.563 20.868 113.731 20.94 113.867 21.084C114.011 21.228 114.083 21.404 114.083 21.612C114.083 21.82 114.011 21.996 113.867 22.14C113.731 22.284 113.563 22.356 113.363 22.356ZM113.891 23.424V30H112.799V23.424H113.891ZM116.344 26.688C116.344 26.016 116.48 25.428 116.752 24.924C117.024 24.412 117.396 24.016 117.868 23.736C118.348 23.456 118.88 23.316 119.464 23.316C120.04 23.316 120.54 23.44 120.964 23.688C121.388 23.936 121.704 24.248 121.912 24.624V23.424H123.016V30H121.912V28.776C121.696 29.16 121.372 29.48 120.94 29.736C120.516 29.984 120.02 30.108 119.452 30.108C118.868 30.108 118.34 29.964 117.868 29.676C117.396 29.388 117.024 28.984 116.752 28.464C116.48 27.944 116.344 27.352 116.344 26.688ZM121.912 26.7C121.912 26.204 121.812 25.772 121.612 25.404C121.412 25.036 121.14 24.756 120.796 24.564C120.46 24.364 120.088 24.264 119.68 24.264C119.272 24.264 118.9 24.36 118.564 24.552C118.228 24.744 117.96 25.024 117.76 25.392C117.56 25.76 117.46 26.192 117.46 26.688C117.46 27.192 117.56 27.632 117.76 28.008C117.96 28.376 118.228 28.66 118.564 28.86C118.9 29.052 119.272 29.148 119.68 29.148C120.088 29.148 120.46 29.052 120.796 28.86C121.14 28.66 121.412 28.376 121.612 28.008C121.812 27.632 121.912 27.196 121.912 26.7ZM126.954 24.648C127.178 24.256 127.506 23.936 127.938 23.688C128.37 23.44 128.862 23.316 129.414 23.316C130.006 23.316 130.538 23.456 131.01 23.736C131.482 24.016 131.854 24.412 132.126 24.924C132.398 25.428 132.534 26.016 132.534 26.688C132.534 27.352 132.398 27.944 132.126 28.464C131.854 28.984 131.477 29.388 130.997 29.676C130.526 29.964 129.998 30.108 129.414 30.108C128.846 30.108 128.346 29.984 127.914 29.736C127.49 29.488 127.17 29.172 126.954 28.788V30H125.862V21.12H126.954V24.648ZM131.418 26.688C131.418 26.192 131.318 25.76 131.118 25.392C130.918 25.024 130.646 24.744 130.302 24.552C129.966 24.36 129.594 24.264 129.186 24.264C128.786 24.264 128.414 24.364 128.07 24.564C127.734 24.756 127.462 25.04 127.254 25.416C127.054 25.784 126.954 26.212 126.954 26.7C126.954 27.196 127.054 27.632 127.254 28.008C127.462 28.376 127.734 28.66 128.07 28.86C128.414 29.052 128.786 29.148 129.186 29.148C129.594 29.148 129.966 29.052 130.302 28.86C130.646 28.66 130.918 28.376 131.118 28.008C131.318 27.632 131.418 27.192 131.418 26.688ZM136.063 21.12V30H134.971V21.12H136.063ZM144.924 26.46C144.924 26.668 144.912 26.888 144.888 27.12H139.632C139.672 27.768 139.892 28.276 140.292 28.644C140.7 29.004 141.192 29.184 141.768 29.184C142.24 29.184 142.632 29.076 142.944 28.86C143.264 28.636 143.488 28.34 143.616 27.972H144.792C144.616 28.604 144.264 29.12 143.736 29.52C143.208 29.912 142.552 30.108 141.768 30.108C141.144 30.108 140.584 29.968 140.088 29.688C139.6 29.408 139.216 29.012 138.936 28.5C138.656 27.98 138.516 27.38 138.516 26.7C138.516 26.02 138.652 25.424 138.924 24.912C139.196 24.4 139.576 24.008 140.064 23.736C140.56 23.456 141.128 23.316 141.768 23.316C142.392 23.316 142.944 23.452 143.424 23.724C143.904 23.996 144.272 24.372 144.528 24.852C144.792 25.324 144.924 25.86 144.924 26.46ZM143.796 26.232C143.796 25.816 143.704 25.46 143.52 25.164C143.336 24.86 143.084 24.632 142.764 24.48C142.452 24.32 142.104 24.24 141.72 24.24C141.168 24.24 140.696 24.416 140.304 24.768C139.92 25.12 139.7 25.608 139.644 26.232H143.796ZM154.433 30.108C153.817 30.108 153.257 29.968 152.753 29.688C152.257 29.408 151.865 29.012 151.577 28.5C151.297 27.98 151.157 27.38 151.157 26.7C151.157 26.028 151.301 25.436 151.589 24.924C151.885 24.404 152.285 24.008 152.789 23.736C153.293 23.456 153.857 23.316 154.481 23.316C155.105 23.316 155.669 23.456 156.173 23.736C156.677 24.008 157.073 24.4 157.361 24.912C157.657 25.424 157.805 26.02 157.805 26.7C157.805 27.38 157.653 27.98 157.349 28.5C157.053 29.012 156.649 29.408 156.137 29.688C155.625 29.968 155.057 30.108 154.433 30.108ZM154.433 29.148C154.825 29.148 155.193 29.056 155.537 28.872C155.881 28.688 156.157 28.412 156.365 28.044C156.581 27.676 156.689 27.228 156.689 26.7C156.689 26.172 156.585 25.724 156.377 25.356C156.169 24.988 155.897 24.716 155.561 24.54C155.225 24.356 154.861 24.264 154.469 24.264C154.069 24.264 153.701 24.356 153.365 24.54C153.037 24.716 152.773 24.988 152.573 25.356C152.373 25.724 152.273 26.172 152.273 26.7C152.273 27.236 152.369 27.688 152.561 28.056C152.761 28.424 153.025 28.7 153.353 28.884C153.681 29.06 154.041 29.148 154.433 29.148ZM163.444 23.304C164.244 23.304 164.892 23.548 165.388 24.036C165.884 24.516 166.132 25.212 166.132 26.124V30H165.052V26.28C165.052 25.624 164.888 25.124 164.56 24.78C164.232 24.428 163.784 24.252 163.216 24.252C162.64 24.252 162.18 24.432 161.836 24.792C161.5 25.152 161.332 25.676 161.332 26.364V30H160.24V23.424H161.332V24.36C161.548 24.024 161.84 23.764 162.208 23.58C162.584 23.396 162.996 23.304 163.444 23.304Z" fill="white"/>
<path d="M93.56 45.36C93.56 46.1067 93.38 46.8067 93.02 47.46C92.6733 48.1133 92.12 48.64 91.36 49.04C90.6133 49.44 89.6667 49.64 88.52 49.64H86.18V55H83.38V41.04H88.52C89.6 41.04 90.52 41.2267 91.28 41.6C92.04 41.9733 92.6067 42.4867 92.98 43.14C93.3667 43.7933 93.56 44.5333 93.56 45.36ZM88.4 47.38C89.1733 47.38 89.7467 47.2067 90.12 46.86C90.4933 46.5 90.68 46 90.68 45.36C90.68 44 89.92 43.32 88.4 43.32H86.18V47.38H88.4ZM99.348 40.2V55H96.548V40.2H99.348ZM102.394 49.42C102.394 48.3 102.614 47.3067 103.054 46.44C103.508 45.5733 104.114 44.9067 104.874 44.44C105.648 43.9733 106.508 43.74 107.454 43.74C108.281 43.74 109.001 43.9067 109.614 44.24C110.241 44.5733 110.741 44.9933 111.114 45.5V43.92H113.934V55H111.114V53.38C110.754 53.9 110.254 54.3333 109.614 54.68C108.988 55.0133 108.261 55.18 107.434 55.18C106.501 55.18 105.648 54.94 104.874 54.46C104.114 53.98 103.508 53.3067 103.054 52.44C102.614 51.56 102.394 50.5533 102.394 49.42ZM111.114 49.46C111.114 48.78 110.981 48.2 110.714 47.72C110.448 47.2267 110.088 46.8533 109.634 46.6C109.181 46.3333 108.694 46.2 108.174 46.2C107.654 46.2 107.174 46.3267 106.734 46.58C106.294 46.8333 105.934 47.2067 105.654 47.7C105.388 48.18 105.254 48.7533 105.254 49.42C105.254 50.0867 105.388 50.6733 105.654 51.18C105.934 51.6733 106.294 52.0533 106.734 52.32C107.188 52.5867 107.668 52.72 108.174 52.72C108.694 52.72 109.181 52.5933 109.634 52.34C110.088 52.0733 110.448 51.7 110.714 51.22C110.981 50.7267 111.114 50.14 111.114 49.46ZM128.269 43.92L121.409 60.24H118.429L120.829 54.72L116.389 43.92H119.529L122.389 51.66L125.289 43.92H128.269ZM141.364 55.14C140.391 55.14 139.511 54.9733 138.724 54.64C137.951 54.3067 137.337 53.8267 136.884 53.2C136.431 52.5733 136.197 51.8333 136.184 50.98H139.184C139.224 51.5533 139.424 52.0067 139.784 52.34C140.157 52.6733 140.664 52.84 141.304 52.84C141.957 52.84 142.471 52.6867 142.844 52.38C143.217 52.06 143.404 51.6467 143.404 51.14C143.404 50.7267 143.277 50.3867 143.024 50.12C142.771 49.8533 142.451 49.6467 142.064 49.5C141.691 49.34 141.171 49.1667 140.504 48.98C139.597 48.7133 138.857 48.4533 138.284 48.2C137.724 47.9333 137.237 47.54 136.824 47.02C136.424 46.4867 136.224 45.78 136.224 44.9C136.224 44.0733 136.431 43.3533 136.844 42.74C137.257 42.1267 137.837 41.66 138.584 41.34C139.331 41.0067 140.184 40.84 141.144 40.84C142.584 40.84 143.751 41.1933 144.644 41.9C145.551 42.5933 146.051 43.5667 146.144 44.82H143.064C143.037 44.34 142.831 43.9467 142.444 43.64C142.071 43.32 141.571 43.16 140.944 43.16C140.397 43.16 139.957 43.3 139.624 43.58C139.304 43.86 139.144 44.2667 139.144 44.8C139.144 45.1733 139.264 45.4867 139.504 45.74C139.757 45.98 140.064 46.18 140.424 46.34C140.797 46.4867 141.317 46.66 141.984 46.86C142.891 47.1267 143.631 47.3933 144.204 47.66C144.777 47.9267 145.271 48.3267 145.684 48.86C146.097 49.3933 146.304 50.0933 146.304 50.96C146.304 51.7067 146.111 52.4 145.724 53.04C145.337 53.68 144.771 54.1933 144.024 54.58C143.277 54.9533 142.391 55.14 141.364 55.14ZM152.992 46.22V51.58C152.992 51.9533 153.078 52.2267 153.252 52.4C153.438 52.56 153.745 52.64 154.172 52.64H155.472V55H153.712C151.352 55 150.172 53.8533 150.172 51.56V46.22H148.852V43.92H150.172V41.18H152.992V43.92H155.472V46.22H152.992ZM163.405 55.18C162.339 55.18 161.379 54.9467 160.525 54.48C159.672 54 158.999 53.3267 158.505 52.46C158.025 51.5933 157.785 50.5933 157.785 49.46C157.785 48.3267 158.032 47.3267 158.525 46.46C159.032 45.5933 159.719 44.9267 160.585 44.46C161.452 43.98 162.419 43.74 163.485 43.74C164.552 43.74 165.519 43.98 166.385 44.46C167.252 44.9267 167.932 45.5933 168.425 46.46C168.932 47.3267 169.185 48.3267 169.185 49.46C169.185 50.5933 168.925 51.5933 168.405 52.46C167.899 53.3267 167.205 54 166.325 54.48C165.459 54.9467 164.485 55.18 163.405 55.18ZM163.405 52.74C163.912 52.74 164.385 52.62 164.825 52.38C165.279 52.1267 165.639 51.7533 165.905 51.26C166.172 50.7667 166.305 50.1667 166.305 49.46C166.305 48.4067 166.025 47.6 165.465 47.04C164.919 46.4667 164.245 46.18 163.445 46.18C162.645 46.18 161.972 46.4667 161.425 47.04C160.892 47.6 160.625 48.4067 160.625 49.46C160.625 50.5133 160.885 51.3267 161.405 51.9C161.939 52.46 162.605 52.74 163.405 52.74ZM175.039 45.64C175.399 45.0533 175.866 44.5933 176.439 44.26C177.026 43.9267 177.693 43.76 178.439 43.76V46.7H177.699C176.819 46.7 176.153 46.9067 175.699 47.32C175.259 47.7333 175.039 48.4533 175.039 49.48V55H172.239V43.92H175.039V45.64ZM191.625 49.22C191.625 49.62 191.599 49.98 191.545 50.3H183.445C183.512 51.1 183.792 51.7267 184.285 52.18C184.779 52.6333 185.385 52.86 186.105 52.86C187.145 52.86 187.885 52.4133 188.325 51.52H191.345C191.025 52.5867 190.412 53.4667 189.505 54.16C188.599 54.84 187.485 55.18 186.165 55.18C185.099 55.18 184.139 54.9467 183.285 54.48C182.445 54 181.785 53.3267 181.305 52.46C180.839 51.5933 180.605 50.5933 180.605 49.46C180.605 48.3133 180.839 47.3067 181.305 46.44C181.772 45.5733 182.425 44.9067 183.265 44.44C184.105 43.9733 185.072 43.74 186.165 43.74C187.219 43.74 188.159 43.9667 188.985 44.42C189.825 44.8733 190.472 45.52 190.925 46.36C191.392 47.1867 191.625 48.14 191.625 49.22ZM188.725 48.42C188.712 47.7 188.452 47.1267 187.945 46.7C187.439 46.26 186.819 46.04 186.085 46.04C185.392 46.04 184.805 46.2533 184.325 46.68C183.859 47.0933 183.572 47.6733 183.465 48.42H188.725Z" fill="white"/>
<path d="M56.502 46.0301C61.5739 43.0379 65.4188 40.7579 65.7502 40.5806C66.8103 39.9749 67.9052 38.3716 65.7502 37.1263C65.0544 36.7346 61.3083 34.5256 56.502 31.6768L49.8392 38.9067L56.502 46.03V46.0301Z" fill="#FFD900"/>
<path d="M49.8393 38.9067L28.6241 61.8803C29.1221 61.9512 29.6843 61.8093 30.3471 61.4178C31.7387 60.5994 46.4905 51.9435 56.5021 46.0318L49.8393 38.9067Z" fill="#F43249"/>
<path d="M49.8393 38.9067L56.5021 31.7124C56.5021 31.7124 31.8393 17.2508 30.3471 16.3971C29.7849 16.0393 29.1549 15.9331 28.5912 16.0393L49.8393 38.9067Z" fill="#00EE76"/>
<path d="M49.8392 38.9101L28.5911 16.0427C27.7287 16.2569 27 17.0755 27 18.7497V59.1768C27 60.7091 27.5639 61.8127 28.6241 61.9192L49.8392 38.9101Z" fill="#00D3FF"/>
</svg>
