<svg width="34" height="28" viewBox="0 0 34 34" fill="none" xmlns="http://www.w3.org/2000/svg">
<path fill-rule="evenodd" clip-rule="evenodd" d="M9.21695 0.333496H24.767C30.4336 0.333496 33.667 3.5335 33.667 9.21683V24.7835C33.667 30.4335 30.4503 33.6668 24.7836 33.6668H9.21695C3.53362 33.6668 0.333618 30.4335 0.333618 24.7835V9.21683C0.333618 3.5335 3.53362 0.333496 9.21695 0.333496ZM18.367 18.3835H23.1003C23.867 18.3668 24.4836 17.7502 24.4836 16.9835C24.4836 16.2168 23.867 15.6002 23.1003 15.6002H18.367V10.9002C18.367 10.1335 17.7503 9.51684 16.9836 9.51684C16.217 9.51684 15.6003 10.1335 15.6003 10.9002V15.6002H10.8836C10.517 15.6002 10.167 15.7502 9.90029 16.0002C9.65029 16.2668 9.50029 16.6152 9.50029 16.9835C9.50029 17.7502 10.117 18.3668 10.8836 18.3835H15.6003V23.1002C15.6003 23.8668 16.217 24.4835 16.9836 24.4835C17.7503 24.4835 18.367 23.8668 18.367 23.1002V18.3835Z" fill="#13CAE6"/>
</svg>
