<svg width="30" height="30" viewBox="0 0 30 30" fill="none" xmlns="http://www.w3.org/2000/svg">
<path fill-rule="evenodd" clip-rule="evenodd" d="M9.43272 4.09741C9.64045 4.24737 9.97546 4.59181 9.97546 4.59181C11.276 5.81072 13.2348 8.84242 13.8639 10.3805C13.877 10.3805 14.2501 11.2951 14.2647 11.7301V11.788C14.2647 12.4546 13.8917 13.0782 13.2919 13.3974C13.0446 13.529 12.4432 13.6514 12.153 13.7104C12.0569 13.73 11.995 13.7426 11.9913 13.7463C11.1341 13.8769 9.81893 13.9631 8.37504 13.9631C6.85947 13.9631 5.48726 13.8769 4.64316 13.7166C4.62853 13.7166 3.85758 13.5577 3.60011 13.4553C3.22853 13.2964 2.914 13.0054 2.71358 12.6432C2.57022 12.3537 2.5 12.0478 2.5 11.7301C2.51317 11.3961 2.72821 10.7725 2.82769 10.526C3.45674 8.90033 5.51505 5.79588 6.77315 4.60666C6.90384 4.47402 7.05257 4.33508 7.15606 4.23839C7.21128 4.18681 7.25362 4.14725 7.27347 4.12711C7.58799 3.88065 7.9742 3.75 8.38967 3.75C8.75978 3.75 9.13136 3.8658 9.43272 4.09741ZM22.7858 12.7022C22.7858 13.357 22.2635 13.887 21.6184 13.887C20.9732 13.887 20.451 13.357 20.451 12.7022L20.1291 6.97869C20.1291 6.14429 20.7962 5.46875 21.6184 5.46875C22.4405 5.46875 23.1061 6.14429 23.1061 6.97869L22.7858 12.7022ZM26.3999 16.5445C26.7715 16.7048 27.086 16.9944 27.2864 17.3566C27.4298 17.6461 27.5 17.952 27.5 18.2712C27.4868 18.6038 27.2718 19.2288 27.1708 19.4753C26.5433 21.0996 24.4835 24.2041 23.2268 25.3948C23.0983 25.5243 22.9524 25.6605 22.8491 25.7568L22.8491 25.7568L22.8491 25.7568L22.8486 25.7573C22.7911 25.8109 22.7469 25.8522 22.7265 25.8729C22.4105 26.1193 22.0258 26.25 21.6118 26.25C21.2388 26.25 20.8672 26.1342 20.5673 25.9011C20.3596 25.7526 20.0245 25.4082 20.0245 25.4082C18.7226 24.1907 16.7652 21.1575 16.1361 19.6193C16.1215 19.6193 15.7499 18.7062 15.7353 18.2712V18.2133C15.7353 17.5452 16.1069 16.9216 16.7081 16.6024C16.9549 16.4722 17.5543 16.3495 17.8452 16.2899L17.8452 16.2899L17.8452 16.2899C17.9423 16.27 18.005 16.2572 18.0087 16.2535C18.8659 16.1228 20.1811 16.0367 21.625 16.0367C23.1405 16.0367 24.5127 16.1228 25.3568 16.2832C25.37 16.2832 26.1424 16.442 26.3999 16.5445ZM8.38192 16.1132C7.73678 16.1132 7.21452 16.6432 7.21452 17.2979L6.89268 23.0213C6.89268 23.8557 7.55977 24.5312 8.38192 24.5312C9.20407 24.5312 9.8697 23.8557 9.8697 23.0213L9.54932 17.2979C9.54932 16.6432 9.02706 16.1132 8.38192 16.1132Z" fill="#13CAE6"/>
</svg>
