<svg width="65" height="65" viewBox="0 0 80 80" fill="none" xmlns="http://www.w3.org/2000/svg">
<path fill-rule="evenodd" clip-rule="evenodd" d="M34.4327 29.0974C34.6405 29.2474 34.9755 29.5918 34.9755 29.5918C36.276 30.8107 38.2348 33.8424 38.8639 35.3805C38.877 35.3805 39.2501 36.2951 39.2647 36.7301V36.788C39.2647 37.4546 38.8917 38.0782 38.2919 38.3974C38.0446 38.529 37.4432 38.6514 37.153 38.7104C37.0569 38.73 36.995 38.7426 36.9913 38.7463C36.1341 38.8769 34.8189 38.9631 33.375 38.9631C31.8595 38.9631 30.4873 38.8769 29.6432 38.7166C29.6285 38.7166 28.8576 38.5577 28.6001 38.4553C28.2285 38.2964 27.914 38.0054 27.7136 37.6432C27.5702 37.3537 27.5 37.0478 27.5 36.7301C27.5132 36.3961 27.7282 35.7725 27.8277 35.526C28.4567 33.9003 30.5151 30.7959 31.7732 29.6067C31.9038 29.474 32.0526 29.3351 32.1561 29.2384C32.2113 29.1868 32.2536 29.1473 32.2735 29.1271C32.588 28.8807 32.9742 28.75 33.3897 28.75C33.7598 28.75 34.1314 28.8658 34.4327 29.0974ZM47.7858 37.7022C47.7858 38.357 47.2635 38.887 46.6184 38.887C45.9732 38.887 45.451 38.357 45.451 37.7022L45.1291 31.9787C45.1291 31.1443 45.7962 30.4688 46.6184 30.4688C47.4405 30.4688 48.1061 31.1443 48.1061 31.9787L47.7858 37.7022ZM51.3999 41.5445C51.7715 41.7048 52.086 41.9944 52.2864 42.3566C52.4298 42.6461 52.5 42.952 52.5 43.2712C52.4868 43.6038 52.2718 44.2288 52.1708 44.4753C51.5433 46.0996 49.4835 49.2041 48.2268 50.3948C48.0983 50.5243 47.9524 50.6605 47.8491 50.7568L47.8491 50.7568L47.8491 50.7568L47.8486 50.7573C47.7911 50.8109 47.7469 50.8522 47.7265 50.8729C47.4105 51.1193 47.0258 51.25 46.6118 51.25C46.2388 51.25 45.8672 51.1342 45.5673 50.9011C45.3596 50.7526 45.0245 50.4082 45.0245 50.4082C43.7226 49.1907 41.7652 46.1575 41.1361 44.6193C41.1215 44.6193 40.7499 43.7062 40.7353 43.2712V43.2133C40.7353 42.5452 41.1069 41.9216 41.7081 41.6024C41.9549 41.4722 42.5543 41.3495 42.8452 41.2899L42.8452 41.2899L42.8452 41.2899C42.9423 41.27 43.005 41.2572 43.0087 41.2535C43.8659 41.1228 45.1811 41.0367 46.625 41.0367C48.1405 41.0367 49.5127 41.1228 50.3568 41.2832C50.37 41.2832 51.1424 41.442 51.3999 41.5445ZM33.3819 41.1132C32.7368 41.1132 32.2145 41.6432 32.2145 42.2979L31.8927 48.0213C31.8927 48.8557 32.5598 49.5312 33.3819 49.5312C34.2041 49.5312 34.8697 48.8557 34.8697 48.0213L34.5493 42.2979C34.5493 41.6432 34.0271 41.1132 33.3819 41.1132Z" fill="#13CAE6"/>
<circle opacity="0.1" cx="40" cy="40" r="40" fill="#13CAE6"/>
</svg>
