<svg width="26" height="24" viewBox="0 0 26 24" fill="none" xmlns="http://www.w3.org/2000/svg">
<path fill-rule="evenodd" clip-rule="evenodd" d="M7.43272 1.09741C7.64045 1.24737 7.97546 1.59181 7.97546 1.59181C9.27598 2.81072 11.2348 5.84242 11.8639 7.38054C11.877 7.38054 12.2501 8.2951 12.2647 8.73011V8.78801C12.2647 9.45463 11.8917 10.0782 11.2919 10.3974C11.0446 10.529 10.4432 10.6514 10.153 10.7104C10.0569 10.73 9.99499 10.7426 9.99135 10.7463C9.13408 10.8769 7.81893 10.9631 6.37504 10.9631C4.85947 10.9631 3.48726 10.8769 2.64316 10.7166C2.62853 10.7166 1.85758 10.5577 1.60011 10.4553C1.22853 10.2964 0.914003 10.0054 0.713585 9.64318C0.57022 9.35367 0.5 9.04783 0.5 8.73011C0.513166 8.39606 0.728214 7.7725 0.827691 7.52604C1.45674 5.90033 3.51505 2.79588 4.77315 1.60666C4.90384 1.47402 5.05257 1.33508 5.15606 1.23839C5.21128 1.18681 5.25362 1.14725 5.27347 1.12711C5.58799 0.880651 5.9742 0.75 6.38967 0.75C6.75978 0.75 7.13136 0.865804 7.43272 1.09741ZM20.7858 9.70223C20.7858 10.357 20.2635 10.887 19.6184 10.887C18.9732 10.887 18.451 10.357 18.451 9.70223L18.1291 3.97869C18.1291 3.14429 18.7962 2.46875 19.6184 2.46875C20.4405 2.46875 21.1061 3.14429 21.1061 3.97869L20.7858 9.70223ZM24.3999 13.5445C24.7715 13.7048 25.086 13.9944 25.2864 14.3566C25.4298 14.6461 25.5 14.952 25.5 15.2712C25.4868 15.6038 25.2718 16.2288 25.1708 16.4753C24.5433 18.0996 22.4835 21.2041 21.2268 22.3948C21.0983 22.5243 20.9524 22.6605 20.8491 22.7568L20.8491 22.7568L20.8491 22.7568L20.8486 22.7573C20.7911 22.8109 20.7469 22.8522 20.7265 22.8729C20.4105 23.1193 20.0258 23.25 19.6118 23.25C19.2388 23.25 18.8672 23.1342 18.5673 22.9011C18.3596 22.7526 18.0245 22.4082 18.0245 22.4082C16.7226 21.1907 14.7652 18.1575 14.1361 16.6193C14.1215 16.6193 13.7499 15.7062 13.7353 15.2712V15.2133C13.7353 14.5452 14.1069 13.9216 14.7081 13.6024C14.9549 13.4722 15.5543 13.3495 15.8452 13.2899L15.8452 13.2899L15.8452 13.2899C15.9423 13.27 16.005 13.2572 16.0087 13.2535C16.8659 13.1228 18.1811 13.0367 19.625 13.0367C21.1405 13.0367 22.5127 13.1228 23.3568 13.2832C23.37 13.2832 24.1424 13.442 24.3999 13.5445ZM6.38192 13.1132C5.73678 13.1132 5.21452 13.6432 5.21452 14.2979L4.89268 20.0213C4.89268 20.8557 5.55977 21.5312 6.38192 21.5312C7.20407 21.5312 7.8697 20.8557 7.8697 20.0213L7.54932 14.2979C7.54932 13.6432 7.02706 13.1132 6.38192 13.1132Z" fill="#13CAE6"/>
</svg>
